<?plantuml 1.2026.2?><svg xmlns="http://www.w3.org/2000/svg" xmlns:xlink="http://www.w3.org/1999/xlink" contentStyleType="text/css" data-diagram-type="DESCRIPTION" height="480px" preserveAspectRatio="none" style="width:2510px;height:480px;background:#FFFFFF;" version="1.1" viewBox="0 0 2510 480" width="2510px" zoomAndPan="magnify"><title>C4 Level 3 - Data Tier (Kleff Data Platform)</title><defs/><g><g class="title" data-source-line="1"><text fill="#000000" font-family="sans-serif" font-size="14" font-weight="bold" lengthAdjust="spacing" textLength="340.0811" x="1077.9595" y="22.9951">C4 Level 3 - Data Tier (Kleff Data Platform)</text></g><!--cluster Data Tier - Kleff Data Platform--><g class="cluster" data-qualified-name="Data Tier - Kleff Data Platform" data-source-line="5" id="ent0002"><rect fill="none" height="368" rx="2.5" ry="2.5" style="stroke:#181818;stroke-width:1;" width="2497" x="7" y="106.2969"/><text fill="#000000" font-family="sans-serif" font-size="14" font-weight="bold" lengthAdjust="spacing" textLength="241.0693" x="1134.9653" y="121.292">Data Tier - Kleff Data Platform</text></g><!--cluster Kleff Relational Database (Postgres Cluster)--><g class="cluster" data-qualified-name="Data Tier - Kleff Data Platform.Kleff Relational Database .Postgres Cluster." data-source-line="8" id="ent0003"><rect fill="none" height="293" rx="2.5" ry="2.5" style="stroke:#181818;stroke-width:1;" width="1056" x="498" y="157.2969"/><text fill="#000000" font-family="sans-serif" font-size="14" font-weight="bold" lengthAdjust="spacing" textLength="350.0889" x="850.9556" y="172.292">Kleff Relational Database (Postgres Cluster)</text></g><!--cluster Caching Layer (Redis)--><g class="cluster" data-qualified-name="Data Tier - Kleff Data Platform.Caching Layer .Redis." data-source-line="41" id="ent0028"><rect fill="none" height="130" rx="2.5" ry="2.5" style="stroke:#181818;stroke-width:1;" width="443" x="31" y="149.2969"/><text fill="#000000" font-family="sans-serif" font-size="14" font-weight="bold" lengthAdjust="spacing" textLength="172.6416" x="166.1792" y="164.292">Caching Layer (Redis)</text></g><!--cluster Logs & Metrics Storage--><g class="cluster" data-qualified-name="Data Tier - Kleff Data Platform.Logs . Metrics Storage" data-source-line="47" id="ent0031"><rect fill="none" height="114" rx="2.5" ry="2.5" style="stroke:#181818;stroke-width:1;" width="902" x="1578" y="157.2969"/><text fill="#000000" font-family="sans-serif" font-size="14" font-weight="bold" lengthAdjust="spacing" textLength="184.4404" x="1936.7798" y="172.292">Logs &amp; Metrics Storage</text></g><!--entity IdentitySchema--><g class="entity" data-qualified-name="Data Tier - Kleff Data Platform.Kleff Relational Database .Postgres Cluster..IdentitySchema" data-source-line="9" id="ent0004"><rect fill="#F1F1F1" height="111.4844" rx="2.5" ry="2.5" style="stroke:#181818;stroke-width:0.5;" width="165.0156" x="590.5" y="323.2969"/><rect fill="#F1F1F1" height="10" style="stroke:#181818;stroke-width:0.5;" width="15" x="735.5156" y="328.2969"/><rect fill="#F1F1F1" height="2" style="stroke:#181818;stroke-width:0.5;" width="4" x="733.5156" y="330.2969"/><rect fill="#F1F1F1" height="2" style="stroke:#181818;stroke-width:0.5;" width="4" x="733.5156" y="334.2969"/><text fill="#000000" font-family="sans-serif" font-size="14" lengthAdjust="spacing" textLength="114.3926" x="605.5" y="356.292">Identity Schema</text><text fill="#000000" font-family="sans-serif" font-size="14" lengthAdjust="spacing" textLength="50.5381" x="605.5" y="372.5889">&#8226; users</text><text fill="#000000" font-family="sans-serif" font-size="14" lengthAdjust="spacing" textLength="65.9189" x="605.5" y="388.8857">&#8226; tenants</text><text fill="#000000" font-family="sans-serif" font-size="14" lengthAdjust="spacing" textLength="71.8252" x="605.5" y="405.1826">&#8226; sessions</text><text fill="#000000" font-family="sans-serif" font-size="14" lengthAdjust="spacing" textLength="125.0156" x="605.5" y="421.4795">&#8226; oauth_identities</text></g><!--entity ProjectSchema--><g class="entity" data-qualified-name="Data Tier - Kleff Data Platform.Kleff Relational Database .Postgres Cluster..ProjectSchema" data-source-line="10" id="ent0005"><rect fill="#F1F1F1" height="95.1875" rx="2.5" ry="2.5" style="stroke:#181818;stroke-width:0.5;" width="187.0615" x="790.5" y="331.2969"/><rect fill="#F1F1F1" height="10" style="stroke:#181818;stroke-width:0.5;" width="15" x="957.5615" y="336.2969"/><rect fill="#F1F1F1" height="2" style="stroke:#181818;stroke-width:0.5;" width="4" x="955.5615" y="338.2969"/><rect fill="#F1F1F1" height="2" style="stroke:#181818;stroke-width:0.5;" width="4" x="955.5615" y="342.2969"/><text fill="#000000" font-family="sans-serif" font-size="14" lengthAdjust="spacing" textLength="109.1904" x="805.5" y="364.292">Project Schema</text><text fill="#000000" font-family="sans-serif" font-size="14" lengthAdjust="spacing" textLength="68.8994" x="805.5" y="380.5889">&#8226; projects</text><text fill="#000000" font-family="sans-serif" font-size="14" lengthAdjust="spacing" textLength="142.8232" x="805.5" y="396.8857">&#8226; app_environments</text><text fill="#000000" font-family="sans-serif" font-size="14" lengthAdjust="spacing" textLength="147.0615" x="805.5" y="413.1826">&#8226; deployments_meta</text></g><!--entity BillingSchema--><g class="entity" data-qualified-name="Data Tier - Kleff Data Platform.Kleff Relational Database .Postgres Cluster..BillingSchema" data-source-line="11" id="ent0006"><rect fill="#F1F1F1" height="111.4844" rx="2.5" ry="2.5" style="stroke:#181818;stroke-width:0.5;" width="183.4316" x="1012.5" y="323.2969"/><rect fill="#F1F1F1" height="10" style="stroke:#181818;stroke-width:0.5;" width="15" x="1175.9316" y="328.2969"/><rect fill="#F1F1F1" height="2" style="stroke:#181818;stroke-width:0.5;" width="4" x="1173.9316" y="330.2969"/><rect fill="#F1F1F1" height="2" style="stroke:#181818;stroke-width:0.5;" width="4" x="1173.9316" y="334.2969"/><text fill="#000000" font-family="sans-serif" font-size="14" lengthAdjust="spacing" textLength="103.6602" x="1027.5" y="356.292">Billing Schema</text><text fill="#000000" font-family="sans-serif" font-size="14" lengthAdjust="spacing" textLength="105.3965" x="1027.5" y="372.5889">&#8226; subscriptions</text><text fill="#000000" font-family="sans-serif" font-size="14" lengthAdjust="spacing" textLength="69.8154" x="1027.5" y="388.8857">&#8226; invoices</text><text fill="#000000" font-family="sans-serif" font-size="14" lengthAdjust="spacing" textLength="143.4316" x="1027.5" y="405.1826">&#8226; payment_methods</text><text fill="#000000" font-family="sans-serif" font-size="14" lengthAdjust="spacing" textLength="114.5225" x="1027.5" y="421.4795">&#8226; usage_records</text></g><!--entity ObservabilitySchema--><g class="entity" data-qualified-name="Data Tier - Kleff Data Platform.Kleff Relational Database .Postgres Cluster..ObservabilitySchema" data-source-line="12" id="ent0007"><rect fill="#F1F1F1" height="95.1875" rx="2.5" ry="2.5" style="stroke:#181818;stroke-width:0.5;" width="193.501" x="1231" y="331.2969"/><rect fill="#F1F1F1" height="10" style="stroke:#181818;stroke-width:0.5;" width="15" x="1404.501" y="336.2969"/><rect fill="#F1F1F1" height="2" style="stroke:#181818;stroke-width:0.5;" width="4" x="1402.501" y="338.2969"/><rect fill="#F1F1F1" height="2" style="stroke:#181818;stroke-width:0.5;" width="4" x="1402.501" y="342.2969"/><text fill="#000000" font-family="sans-serif" font-size="14" lengthAdjust="spacing" textLength="153.501" x="1246" y="364.292">Observability Schema</text><text fill="#000000" font-family="sans-serif" font-size="14" lengthAdjust="spacing" textLength="139.9385" x="1246" y="380.5889">&#8226; metrics_metadata</text><text fill="#000000" font-family="sans-serif" font-size="14" lengthAdjust="spacing" textLength="86.4609" x="1246" y="396.8857">&#8226; alert_rules</text><text fill="#000000" font-family="sans-serif" font-size="14" lengthAdjust="spacing" textLength="94.3086" x="1246" y="413.1826">&#8226; dashboards</text></g><!--entity MigrationRunner--><g class="entity" data-qualified-name="Data Tier - Kleff Data Platform.Kleff Relational Database .Postgres Cluster..MigrationRunner" data-source-line="14" id="ent0008"><rect fill="#F1F1F1" height="62.5938" rx="2.5" ry="2.5" style="stroke:#181818;stroke-width:0.5;" width="161.1738" x="794.5" y="192.2969"/><rect fill="#F1F1F1" height="10" style="stroke:#181818;stroke-width:0.5;" width="15" x="935.6738" y="197.2969"/><rect fill="#F1F1F1" height="2" style="stroke:#181818;stroke-width:0.5;" width="4" x="933.6738" y="199.2969"/><rect fill="#F1F1F1" height="2" style="stroke:#181818;stroke-width:0.5;" width="4" x="933.6738" y="203.2969"/><text fill="#000000" font-family="sans-serif" font-size="14" lengthAdjust="spacing" textLength="121.1738" x="809.5" y="225.292">Migration Runner</text><text fill="#000000" font-family="sans-serif" font-size="14" lengthAdjust="spacing" textLength="116.9697" x="809.5" y="241.5889">(Goose / Flyway)</text></g><!--entity ConnectionPool--><g class="entity" data-qualified-name="Data Tier - Kleff Data Platform.Kleff Relational Database .Postgres Cluster..ConnectionPool" data-source-line="15" id="ent0009"><rect fill="#F1F1F1" height="62.5938" rx="2.5" ry="2.5" style="stroke:#181818;stroke-width:0.5;" width="245.4199" x="514.5" y="192.2969"/><rect fill="#F1F1F1" height="10" style="stroke:#181818;stroke-width:0.5;" width="15" x="739.9199" y="197.2969"/><rect fill="#F1F1F1" height="2" style="stroke:#181818;stroke-width:0.5;" width="4" x="737.9199" y="199.2969"/><rect fill="#F1F1F1" height="2" style="stroke:#181818;stroke-width:0.5;" width="4" x="737.9199" y="203.2969"/><text fill="#000000" font-family="sans-serif" font-size="14" lengthAdjust="spacing" textLength="113.1279" x="529.5" y="225.292">Connection Pool</text><text fill="#000000" font-family="sans-serif" font-size="14" lengthAdjust="spacing" textLength="205.4199" x="529.5" y="241.5889">(PgBouncer / Built-in pooling)</text></g><!--entity ReadReplica--><g class="entity" data-qualified-name="Data Tier - Kleff Data Platform.Kleff Relational Database .Postgres Cluster..ReadReplica" data-source-line="16" id="ent0010"><rect fill="#F1F1F1" height="62.5938" rx="2.5" ry="2.5" style="stroke:#181818;stroke-width:0.5;" width="266.7549" x="1270.5" y="192.2969"/><rect fill="#F1F1F1" height="10" style="stroke:#181818;stroke-width:0.5;" width="15" x="1517.2549" y="197.2969"/><rect fill="#F1F1F1" height="2" style="stroke:#181818;stroke-width:0.5;" width="4" x="1515.2549" y="199.2969"/><rect fill="#F1F1F1" height="2" style="stroke:#181818;stroke-width:0.5;" width="4" x="1515.2549" y="203.2969"/><text fill="#000000" font-family="sans-serif" font-size="14" lengthAdjust="spacing" textLength="109.7578" x="1285.5" y="225.292">Read Replica(s)</text><text fill="#000000" font-family="sans-serif" font-size="14" lengthAdjust="spacing" textLength="226.7549" x="1285.5" y="241.5889">(Read-only reporting / analytics)</text></g><!--entity BackupService--><g class="entity" data-qualified-name="Data Tier - Kleff Data Platform.Kleff Relational Database .Postgres Cluster..BackupService" data-source-line="17" id="ent0011"><rect fill="#F1F1F1" height="62.5938" rx="2.5" ry="2.5" style="stroke:#181818;stroke-width:0.5;" width="244.21" x="991" y="192.2969"/><rect fill="#F1F1F1" height="10" style="stroke:#181818;stroke-width:0.5;" width="15" x="1215.21" y="197.2969"/><rect fill="#F1F1F1" height="2" style="stroke:#181818;stroke-width:0.5;" width="4" x="1213.21" y="199.2969"/><rect fill="#F1F1F1" height="2" style="stroke:#181818;stroke-width:0.5;" width="4" x="1213.21" y="203.2969"/><text fill="#000000" font-family="sans-serif" font-size="14" lengthAdjust="spacing" textLength="181.8154" x="1006" y="225.292">Backup &amp; Restore Service</text><text fill="#000000" font-family="sans-serif" font-size="14" lengthAdjust="spacing" textLength="204.21" x="1006" y="241.5889">(Scheduled snapshots / PITR)</text></g><!--entity AuthCache--><g class="entity" data-qualified-name="Data Tier - Kleff Data Platform.Caching Layer .Redis..AuthCache" data-source-line="42" id="ent0029"><rect fill="#F1F1F1" height="78.8906" rx="2.5" ry="2.5" style="stroke:#181818;stroke-width:0.5;" width="155.9238" x="47" y="184.2969"/><rect fill="#F1F1F1" height="10" style="stroke:#181818;stroke-width:0.5;" width="15" x="182.9238" y="189.2969"/><rect fill="#F1F1F1" height="2" style="stroke:#181818;stroke-width:0.5;" width="4" x="180.9238" y="191.2969"/><rect fill="#F1F1F1" height="2" style="stroke:#181818;stroke-width:0.5;" width="4" x="180.9238" y="195.2969"/><text fill="#000000" font-family="sans-serif" font-size="14" lengthAdjust="spacing" textLength="80.8008" x="62" y="217.292">Auth Cache</text><text fill="#000000" font-family="sans-serif" font-size="14" lengthAdjust="spacing" textLength="115.9238" x="62" y="233.5889">&#8226; session tokens</text><text fill="#000000" font-family="sans-serif" font-size="14" lengthAdjust="spacing" textLength="83.6855" x="62" y="249.8857">&#8226; rate limits</text></g><!--entity ConfigCache--><g class="entity" data-qualified-name="Data Tier - Kleff Data Platform.Caching Layer .Redis..ConfigCache" data-source-line="43" id="ent0030"><rect fill="#F1F1F1" height="78.8906" rx="2.5" ry="2.5" style="stroke:#181818;stroke-width:0.5;" width="219.0195" x="238.5" y="184.2969"/><rect fill="#F1F1F1" height="10" style="stroke:#181818;stroke-width:0.5;" width="15" x="437.5195" y="189.2969"/><rect fill="#F1F1F1" height="2" style="stroke:#181818;stroke-width:0.5;" width="4" x="435.5195" y="191.2969"/><rect fill="#F1F1F1" height="2" style="stroke:#181818;stroke-width:0.5;" width="4" x="435.5195" y="195.2969"/><text fill="#000000" font-family="sans-serif" font-size="14" lengthAdjust="spacing" textLength="179.0195" x="253.5" y="217.292">Config &amp; Metadata Cache</text><text fill="#000000" font-family="sans-serif" font-size="14" lengthAdjust="spacing" textLength="105.916" x="253.5" y="233.5889">&#8226; tenant config</text><text fill="#000000" font-family="sans-serif" font-size="14" lengthAdjust="spacing" textLength="101.5889" x="253.5" y="249.8857">&#8226; feature flags</text></g><!--entity LogStore--><g class="entity" data-qualified-name="Data Tier - Kleff Data Platform.Logs . Metrics Storage.LogStore" data-source-line="48" id="ent0032"><rect fill="#F1F1F1" height="62.5938" rx="2.5" ry="2.5" style="stroke:#181818;stroke-width:0.5;" width="239.1309" x="1914.5" y="192.2969"/><rect fill="#F1F1F1" height="10" style="stroke:#181818;stroke-width:0.5;" width="15" x="2133.6309" y="197.2969"/><rect fill="#F1F1F1" height="2" style="stroke:#181818;stroke-width:0.5;" width="4" x="2131.6309" y="199.2969"/><rect fill="#F1F1F1" height="2" style="stroke:#181818;stroke-width:0.5;" width="4" x="2131.6309" y="203.2969"/><text fill="#000000" font-family="sans-serif" font-size="14" lengthAdjust="spacing" textLength="67.0127" x="1929.5" y="225.292">Log Store</text><text fill="#000000" font-family="sans-serif" font-size="14" lengthAdjust="spacing" textLength="199.1309" x="1929.5" y="241.5889">(Object storage / Loki index)</text></g><!--entity MetricsStore--><g class="entity" data-qualified-name="Data Tier - Kleff Data Platform.Logs . Metrics Storage.MetricsStore" data-source-line="49" id="ent0033"><rect fill="#F1F1F1" height="62.5938" rx="2.5" ry="2.5" style="stroke:#181818;stroke-width:0.5;" width="274.5205" x="2188.5" y="192.2969"/><rect fill="#F1F1F1" height="10" style="stroke:#181818;stroke-width:0.5;" width="15" x="2443.0205" y="197.2969"/><rect fill="#F1F1F1" height="2" style="stroke:#181818;stroke-width:0.5;" width="4" x="2441.0205" y="199.2969"/><rect fill="#F1F1F1" height="2" style="stroke:#181818;stroke-width:0.5;" width="4" x="2441.0205" y="203.2969"/><text fill="#000000" font-family="sans-serif" font-size="14" lengthAdjust="spacing" textLength="92.5791" x="2203.5" y="225.292">Metrics Store</text><text fill="#000000" font-family="sans-serif" font-size="14" lengthAdjust="spacing" textLength="234.5205" x="2203.5" y="241.5889">(Time-series DB like Prometheus)</text></g><!--entity ArtifactStore--><g class="entity" data-qualified-name="Data Tier - Kleff Data Platform.Logs . Metrics Storage.ArtifactStore" data-source-line="50" id="ent0034"><rect fill="#F1F1F1" height="62.5938" rx="2.5" ry="2.5" style="stroke:#181818;stroke-width:0.5;" width="285.041" x="1594.5" y="192.2969"/><rect fill="#F1F1F1" height="10" style="stroke:#181818;stroke-width:0.5;" width="15" x="1859.541" y="197.2969"/><rect fill="#F1F1F1" height="2" style="stroke:#181818;stroke-width:0.5;" width="4" x="1857.541" y="199.2969"/><rect fill="#F1F1F1" height="2" style="stroke:#181818;stroke-width:0.5;" width="4" x="1857.541" y="203.2969"/><text fill="#000000" font-family="sans-serif" font-size="14" lengthAdjust="spacing" textLength="93.167" x="1609.5" y="225.292">Artifact Store</text><text fill="#000000" font-family="sans-serif" font-size="14" lengthAdjust="spacing" textLength="245.041" x="1609.5" y="241.5889">(Build artifacts / images metadata)</text></g><!--entity AuthService--><g class="entity" data-qualified-name="AuthService" data-source-line="55" id="ent0035"><rect fill="#F1F1F1" height="46.2969" rx="2.5" ry="2.5" style="stroke:#181818;stroke-width:0.5;" width="124.5537" x="90.5" y="44.2969"/><rect fill="#F1F1F1" height="10" style="stroke:#181818;stroke-width:0.5;" width="15" x="195.0537" y="49.2969"/><rect fill="#F1F1F1" height="2" style="stroke:#181818;stroke-width:0.5;" width="4" x="193.0537" y="51.2969"/><rect fill="#F1F1F1" height="2" style="stroke:#181818;stroke-width:0.5;" width="4" x="193.0537" y="55.2969"/><text fill="#000000" font-family="sans-serif" font-size="14" lengthAdjust="spacing" textLength="84.5537" x="105.5" y="77.292">AuthService</text></g><!--entity TenantService--><g class="entity" data-qualified-name="TenantService" data-source-line="56" id="ent0037"><rect fill="#F1F1F1" height="46.2969" rx="2.5" ry="2.5" style="stroke:#181818;stroke-width:0.5;" width="140.7207" x="453.5" y="44.2969"/><rect fill="#F1F1F1" height="10" style="stroke:#181818;stroke-width:0.5;" width="15" x="574.2207" y="49.2969"/><rect fill="#F1F1F1" height="2" style="stroke:#181818;stroke-width:0.5;" width="4" x="572.2207" y="51.2969"/><rect fill="#F1F1F1" height="2" style="stroke:#181818;stroke-width:0.5;" width="4" x="572.2207" y="55.2969"/><text fill="#000000" font-family="sans-serif" font-size="14" lengthAdjust="spacing" textLength="100.7207" x="468.5" y="77.292">TenantService</text></g><!--entity ProjectService--><g class="entity" data-qualified-name="ProjectService" data-source-line="57" id="ent0039"><rect fill="#F1F1F1" height="46.2969" rx="2.5" ry="2.5" style="stroke:#181818;stroke-width:0.5;" width="140.1943" x="278" y="44.2969"/><rect fill="#F1F1F1" height="10" style="stroke:#181818;stroke-width:0.5;" width="15" x="398.1943" y="49.2969"/><rect fill="#F1F1F1" height="2" style="stroke:#181818;stroke-width:0.5;" width="4" x="396.1943" y="51.2969"/><rect fill="#F1F1F1" height="2" style="stroke:#181818;stroke-width:0.5;" width="4" x="396.1943" y="55.2969"/><text fill="#000000" font-family="sans-serif" font-size="14" lengthAdjust="spacing" textLength="100.1943" x="293" y="77.292">ProjectService</text></g><!--entity DeploymentService--><g class="entity" data-qualified-name="DeploymentService" data-source-line="58" id="ent0041"><rect fill="#F1F1F1" height="46.2969" rx="2.5" ry="2.5" style="stroke:#181818;stroke-width:0.5;" width="177.375" x="629.5" y="44.2969"/><rect fill="#F1F1F1" height="10" style="stroke:#181818;stroke-width:0.5;" width="15" x="786.875" y="49.2969"/><rect fill="#F1F1F1" height="2" style="stroke:#181818;stroke-width:0.5;" width="4" x="784.875" y="51.2969"/><rect fill="#F1F1F1" height="2" style="stroke:#181818;stroke-width:0.5;" width="4" x="784.875" y="55.2969"/><text fill="#000000" font-family="sans-serif" font-size="14" lengthAdjust="spacing" textLength="137.375" x="644.5" y="77.292">DeploymentService</text></g><!--entity BillingService--><g class="entity" data-qualified-name="BillingService" data-source-line="59" id="ent0043"><rect fill="#F1F1F1" height="46.2969" rx="2.5" ry="2.5" style="stroke:#181818;stroke-width:0.5;" width="134.6641" x="841.5" y="44.2969"/><rect fill="#F1F1F1" height="10" style="stroke:#181818;stroke-width:0.5;" width="15" x="956.1641" y="49.2969"/><rect fill="#F1F1F1" height="2" style="stroke:#181818;stroke-width:0.5;" width="4" x="954.1641" y="51.2969"/><rect fill="#F1F1F1" height="2" style="stroke:#181818;stroke-width:0.5;" width="4" x="954.1641" y="55.2969"/><text fill="#000000" font-family="sans-serif" font-size="14" lengthAdjust="spacing" textLength="94.6641" x="856.5" y="77.292">BillingService</text></g><!--entity ObservabilityService--><g class="entity" data-qualified-name="ObservabilityService" data-source-line="60" id="ent0045"><rect fill="#F1F1F1" height="46.2969" rx="2.5" ry="2.5" style="stroke:#181818;stroke-width:0.5;" width="184.5049" x="2087.5" y="44.2969"/><rect fill="#F1F1F1" height="10" style="stroke:#181818;stroke-width:0.5;" width="15" x="2252.0049" y="49.2969"/><rect fill="#F1F1F1" height="2" style="stroke:#181818;stroke-width:0.5;" width="4" x="2250.0049" y="51.2969"/><rect fill="#F1F1F1" height="2" style="stroke:#181818;stroke-width:0.5;" width="4" x="2250.0049" y="55.2969"/><text fill="#000000" font-family="sans-serif" font-size="14" lengthAdjust="spacing" textLength="144.5049" x="2102.5" y="77.292">ObservabilityService</text></g><!--link MigrationRunner to IdentitySchema--><g class="link" data-entity-1="ent0008" data-entity-2="ent0004" data-link-type="dependency" data-source-line="19" id="lnk12"><path d="M834.61,255.3869 C809.05,274.7469 780.0528,296.714 749.9928,319.484" fill="none" id="MigrationRunner-to-IdentitySchema" style="stroke:#181818;stroke-width:1;"/><polygon fill="#181818" points="745.21,323.1069,754.7994,320.8611,749.1956,320.0878,749.9689,314.4841,745.21,323.1069" style="stroke:#181818;stroke-width:1;"/></g><!--link MigrationRunner to ProjectSchema--><g class="link" data-entity-1="ent0008" data-entity-2="ent0005" data-link-type="dependency" data-source-line="20" id="lnk13"><path d="M876.8,255.3869 C878.08,277.1069 879.4574,300.6572 880.9074,325.2872" fill="none" id="MigrationRunner-to-ProjectSchema" style="stroke:#181818;stroke-width:1;"/><polygon fill="#181818" points="881.26,331.2769,884.7242,322.0574,880.9662,326.2855,876.738,322.5275,881.26,331.2769" style="stroke:#181818;stroke-width:1;"/></g><!--link MigrationRunner to BillingSchema--><g class="link" data-entity-1="ent0008" data-entity-2="ent0006" data-link-type="dependency" data-source-line="21" id="lnk14"><path d="M920.79,255.3869 C949.77,274.7469 983.0711,297.0036 1017.1511,319.7736" fill="none" id="MigrationRunner-to-BillingSchema" style="stroke:#181818;stroke-width:1;"/><polygon fill="#181818" points="1022.14,323.1069,1016.8788,314.781,1017.9826,320.3292,1012.4344,321.4329,1022.14,323.1069" style="stroke:#181818;stroke-width:1;"/></g><!--link MigrationRunner to ObservabilitySchema--><g class="link" data-entity-1="ent0008" data-entity-2="ent0007" data-link-type="dependency" data-source-line="22" id="lnk15"><path d="M914.45,255.3269 C931.58,267.1069 952.4,279.5869 973,287.2969 C1074.01,325.1269 1109.82,291.8669 1213,323.2969 C1220.5,325.5869 1222.5485,326.1108 1230.1285,329.0608" fill="none" id="MigrationRunner-to-ObservabilitySchema" style="stroke:#181818;stroke-width:1;"/><polygon fill="#181818" points="1235.72,331.2369,1228.7835,324.2451,1231.0604,329.4235,1225.8821,331.7004,1235.72,331.2369" style="stroke:#181818;stroke-width:1;"/></g><!--link ConnectionPool to IdentitySchema--><g class="link" data-entity-1="ent0009" data-entity-2="ent0004" data-link-type="dependency" data-source-line="24" id="lnk16"><path d="M644.2,255.3869 C648.75,274.7469 653.3952,294.4965 658.7552,317.2665" fill="none" id="ConnectionPool-to-IdentitySchema" style="stroke:#181818;stroke-width:1;"/><polygon fill="#181818" points="660.13,323.1069,661.9614,313.4298,658.9843,318.2399,654.1742,315.2629,660.13,323.1069" style="stroke:#181818;stroke-width:1;"/></g><!--link ConnectionPool to ProjectSchema--><g class="link" data-entity-1="ent0009" data-entity-2="ent0005" data-link-type="dependency" data-source-line="25" id="lnk17"><path d="M686.39,255.3869 C721.45,277.1069 764.0397,303.4866 803.7897,328.1166" fill="none" id="ConnectionPool-to-ProjectSchema" style="stroke:#181818;stroke-width:1;"/><polygon fill="#181818" points="808.89,331.2769,803.3464,323.1363,804.6398,328.6433,799.1328,329.9367,808.89,331.2769" style="stroke:#181818;stroke-width:1;"/></g><!--link ConnectionPool to BillingSchema--><g class="link" data-entity-1="ent0009" data-entity-2="ent0006" data-link-type="dependency" data-source-line="26" id="lnk18"><path d="M696.35,255.3469 C720.79,266.8369 749.72,279.1069 777,287.2969 C871.05,315.5469 901.59,292.9969 995,323.2969 C1000.74,325.1569 1000.9738,325.0618 1006.7638,327.3618" fill="none" id="ConnectionPool-to-BillingSchema" style="stroke:#181818;stroke-width:1;"/><polygon fill="#181818" points="1012.34,329.5769,1005.4525,322.5369,1007.6932,327.731,1002.4991,329.9717,1012.34,329.5769" style="stroke:#181818;stroke-width:1;"/></g><!--link ConnectionPool to ObservabilitySchema--><g class="link" data-entity-1="ent0009" data-entity-2="ent0007" data-link-type="dependency" data-source-line="27" id="lnk19"><path d="M693.66,255.3369 C718.53,267.3469 748.51,279.9869 777,287.2969 C965.34,335.6169 1025.22,272.8469 1213,323.2969 C1221.11,325.4769 1223.7274,326.0858 1231.8774,329.1658" fill="none" id="ConnectionPool-to-ObservabilitySchema" style="stroke:#181818;stroke-width:1;"/><polygon fill="#181818" points="1237.49,331.2869,1230.4852,324.3635,1232.8129,329.5193,1227.6571,331.847,1237.49,331.2869" style="stroke:#181818;stroke-width:1;"/></g><!--link ReadReplica to IdentitySchema--><g class="link" data-entity-1="ent0010" data-entity-2="ent0004" data-link-type="association" data-source-line="29" id="lnk20"><path d="M1342.67,255.3769 C1315.8,267.3969 1283.5,280.0369 1253,287.2969 C1044.88,336.8269 978.19,262.7569 773,323.2969 C767.22,325.0069 761.39,327.0769 755.62,329.4069" fill="none" id="ReadReplica-IdentitySchema" style="stroke:#181818;stroke-width:1;"/></g><!--link ReadReplica to ProjectSchema--><g class="link" data-entity-1="ent0010" data-entity-2="ent0005" data-link-type="association" data-source-line="30" id="lnk21"><path d="M1340.23,255.4069 C1313.77,266.9869 1282.43,279.2969 1253,287.2969 C1141.28,317.6769 1105.69,289.3569 995,323.2969 C987.61,325.5669 980.11,328.2669 972.66,331.2469" fill="none" id="ReadReplica-ProjectSchema" style="stroke:#181818;stroke-width:1;"/></g><!--link ReadReplica to BillingSchema--><g class="link" data-entity-1="ent0010" data-entity-2="ent0006" data-link-type="association" data-source-line="31" id="lnk22"><path d="M1344.01,255.3869 C1301.52,277.0569 1243.74,306.5269 1195.51,331.1269" fill="none" id="ReadReplica-BillingSchema" style="stroke:#181818;stroke-width:1;"/></g><!--link ReadReplica to ObservabilitySchema--><g class="link" data-entity-1="ent0010" data-entity-2="ent0007" data-link-type="association" data-source-line="32" id="lnk23"><path d="M1388.8,255.3869 C1378.02,277.1069 1363.34,306.6469 1351.11,331.2769" fill="none" id="ReadReplica-ObservabilitySchema" style="stroke:#181818;stroke-width:1;"/></g><!--link BackupService to IdentitySchema--><g class="link" data-entity-1="ent0011" data-entity-2="ent0004" data-link-type="dependency" data-source-line="34" id="lnk24"><path d="M1053.25,255.3069 C1028.87,266.7269 1000.09,278.9469 973,287.2969 C886.69,313.8969 858.19,293.2969 773,323.2969 C767.22,325.3369 766.8676,325.2735 761.0576,327.8135" fill="none" id="BackupService-to-IdentitySchema" style="stroke:#181818;stroke-width:1;"/><polygon fill="#181818" points="755.56,330.2169,765.4087,330.2768,760.1413,328.214,762.2041,322.9467,755.56,330.2169" style="stroke:#181818;stroke-width:1;"/></g><!--link BackupService to ProjectSchema--><g class="link" data-entity-1="ent0011" data-entity-2="ent0005" data-link-type="dependency" data-source-line="35" id="lnk25"><path d="M1067.21,255.3869 C1034.71,277.1069 995.4788,303.3134 958.6188,327.9434" fill="none" id="BackupService-to-ProjectSchema" style="stroke:#181818;stroke-width:1;"/><polygon fill="#181818" points="953.63,331.2769,963.3355,329.6025,957.7873,328.499,958.8908,322.9508,953.63,331.2769" style="stroke:#181818;stroke-width:1;"/></g><!--link BackupService to BillingSchema--><g class="link" data-entity-1="ent0011" data-entity-2="ent0006" data-link-type="dependency" data-source-line="36" id="lnk26"><path d="M1111.2,255.3869 C1110.06,274.7469 1108.9125,294.3472 1107.5725,317.1172" fill="none" id="BackupService-to-BillingSchema" style="stroke:#181818;stroke-width:1;"/><polygon fill="#181818" points="1107.22,323.1069,1111.7418,314.3574,1107.5137,318.1155,1103.7556,313.8874,1107.22,323.1069" style="stroke:#181818;stroke-width:1;"/></g><!--link BackupService to ObservabilitySchema--><g class="link" data-entity-1="ent0011" data-entity-2="ent0007" data-link-type="dependency" data-source-line="37" id="lnk27"><path d="M1155.99,255.3869 C1186.51,277.1069 1223.132,303.1673 1257.732,327.7973" fill="none" id="BackupService-to-ObservabilitySchema" style="stroke:#181818;stroke-width:1;"/><polygon fill="#181818" points="1262.62,331.2769,1257.6077,322.7989,1258.5466,328.3773,1252.9683,329.3162,1262.62,331.2769" style="stroke:#181818;stroke-width:1;"/></g><!--link AuthService to ConnectionPool--><g class="link" data-entity-1="ent0035" data-entity-2="ent0009" data-link-type="dependency" data-source-line="55" id="lnk36"><path d="M215.52,82.9569 C230.05,85.8569 245.5,88.5469 260,90.2969 C283.62,93.1469 451.61,90.2569 474,98.2969 C527.96,117.6769 574.283,157.6786 604.373,187.8486" fill="none" id="AuthService-to-ConnectionPool" style="stroke:#181818;stroke-width:1;"/><polygon fill="#181818" points="608.61,192.0969,605.0867,182.8998,605.0792,188.5567,599.4223,188.5491,608.61,192.0969" style="stroke:#181818;stroke-width:1;"/></g><!--link TenantService to ConnectionPool--><g class="link" data-entity-1="ent0037" data-entity-2="ent0009" data-link-type="dependency" data-source-line="56" id="lnk38"><path d="M540.19,90.4369 C559.72,117.1369 589.1068,157.3248 611.0668,187.3348" fill="none" id="TenantService-to-ConnectionPool" style="stroke:#181818;stroke-width:1;"/><polygon fill="#181818" points="614.61,192.1769,612.5232,182.5516,611.6573,188.1418,606.0671,187.2759,614.61,192.1769" style="stroke:#181818;stroke-width:1;"/></g><!--link ProjectService to ConnectionPool--><g class="link" data-entity-1="ent0039" data-entity-2="ent0009" data-link-type="dependency" data-source-line="57" id="lnk40"><path d="M418.07,86.0669 C424.13,87.5269 430.17,88.9569 436,90.2969 C452.82,94.1669 458.31,91.1069 474,98.2969 C524.98,121.6669 570.5316,159.326 601.4216,187.986" fill="none" id="ProjectService-to-ConnectionPool" style="stroke:#181818;stroke-width:1;"/><polygon fill="#181818" points="605.82,192.0669,601.943,183.0132,602.1546,188.6661,596.5017,188.8778,605.82,192.0669" style="stroke:#181818;stroke-width:1;"/></g><!--link DeploymentService to ConnectionPool--><g class="link" data-entity-1="ent0041" data-entity-2="ent0009" data-link-type="dependency" data-source-line="58" id="lnk42"><path d="M706.39,90.4369 C692.4,117.1369 671.5769,156.8534 655.8369,186.8634" fill="none" id="DeploymentService-to-ConnectionPool" style="stroke:#181818;stroke-width:1;"/><polygon fill="#181818" points="653.05,192.1769,660.7727,186.0646,655.3724,187.749,653.688,182.3487,653.05,192.1769" style="stroke:#181818;stroke-width:1;"/></g><!--link BillingService to ConnectionPool--><g class="link" data-entity-1="ent0043" data-entity-2="ent0009" data-link-type="dependency" data-source-line="59" id="lnk44"><path d="M841.38,86.3469 C835.52,87.7469 829.66,89.0869 824,90.2969 C803.28,94.7369 796.1,89.1269 777,98.2969 C730.53,120.6169 691.9048,158.5324 666.2048,187.5924" fill="none" id="BillingService-to-ConnectionPool" style="stroke:#181818;stroke-width:1;"/><polygon fill="#181818" points="662.23,192.0869,671.1886,187.995,665.5424,188.3414,665.1959,182.6952,662.23,192.0869" style="stroke:#181818;stroke-width:1;"/></g><!--link ObservabilityService to MetricsStore--><g class="link" data-entity-1="ent0045" data-entity-2="ent0033" data-link-type="dependency" data-source-line="60" id="lnk46"><path d="M2200.92,90.4369 C2226.15,117.1369 2264.5782,157.8068 2292.9482,187.8168" fill="none" id="ObservabilityService-to-MetricsStore" style="stroke:#181818;stroke-width:1;"/><polygon fill="#181818" points="2297.07,192.1769,2293.794,182.8888,2293.6351,188.5435,2287.9805,188.3846,2297.07,192.1769" style="stroke:#181818;stroke-width:1;"/></g><!--link ObservabilityService to LogStore--><g class="link" data-entity-1="ent0045" data-entity-2="ent0032" data-link-type="dependency" data-source-line="61" id="lnk47"><path d="M2159.08,90.4369 C2133.85,117.1369 2095.4218,157.8068 2067.0518,187.8168" fill="none" id="ObservabilityService-to-LogStore" style="stroke:#181818;stroke-width:1;"/><polygon fill="#181818" points="2062.93,192.1769,2072.0195,188.3846,2066.3649,188.5435,2066.206,182.8888,2062.93,192.1769" style="stroke:#181818;stroke-width:1;"/></g><!--link AuthService to AuthCache--><g class="link" data-entity-1="ent0035" data-entity-2="ent0029" data-link-type="dependency" data-source-line="63" id="lnk48"><path d="M148.99,90.4369 C144.56,114.8769 138.4098,148.793 133.0498,178.373" fill="none" id="AuthService-to-AuthCache" style="stroke:#181818;stroke-width:1;"/><polygon fill="#181818" points="131.98,184.2769,137.5206,176.1343,132.8715,179.357,129.6488,174.7079,131.98,184.2769" style="stroke:#181818;stroke-width:1;"/></g><!--link ProjectService to ConfigCache--><g class="link" data-entity-1="ent0039" data-entity-2="ent0030" data-link-type="dependency" data-source-line="64" id="lnk49"><path d="M348,90.4369 C348,114.8769 348,148.6969 348,178.2769" fill="none" id="ProjectService-to-ConfigCache" style="stroke:#181818;stroke-width:1;"/><polygon fill="#181818" points="348,184.2769,352,175.2769,348,179.2769,344,175.2769,348,184.2769" style="stroke:#181818;stroke-width:1;"/></g><?plantuml-src XLPBRjim4Dth58Ci6diXUD5k6o1nq29eWXXEW2xImg2biSIQ8WMIIceK0NgM7gqdwL2ax4YYQsziKM_U3EVpnfPRWJ3_0BVuZ0BUGmhNp39uvAXXyaNWPkCF5eBPZTBLD4dCbikQQLP1pR8jA_31xeX4OsQPB0GcIJY7imDN2X6oC_YL903dyB7xm5nfX2KIW2l9H8jVCuCmMIXZ2urcUa2JxTwLf_-l9Sn5OopggVCBzCbKLIk9qiBPJKvVtExW8IknOj_atzz_e36eZVzfKJ9fmuD1OyX9U5AiiUMAUmAEvWoOWOxFqmszBRJwGUdgEQlzMI1bTRr2-SoraXNk7UTO2xLh3rOLMjQw2cHnJrTS22wBdYVJh4scUMqFT-3oMV4CmrFDMX_EHQboqoM3yhoYAYkT-pi6xhZZ-pKbxvcjkHXcbLWrp_m5SYfIkB10RLUw4LqGEJFbMh7EMOylk1pwlEE5RiiFoqPArD_avBDIr08p-2HsBsmtRQdsC8yQiimLdMOjpK8fGIIBuaerCgCsdi5LmuLDkOIQtj7jFUN1nfaC6PV8SchDMl2CJSoK6Dr9ggJOqTZKIbjNeXamwjkTfTnuKWSALgEoKjitDRmZZB5kP1ueELH0edQvoIcDEHZ9QbCgQuXwSVEuzApUDE1z2WS9WJIzY3Lm33PklXXgt2anrD4IzxDxBBm8QXnT13GEBW8w6jkR8a6QgnUPncABeCQnHK3Zs2AWex7rIdqiRMFGEB8nPXpO61EB2-1r9FaiArt_tx8TDK9KtFiGcfwScvYANv8IjtpO4sgmQekTr57R8GXUSUk5nTcq9X4TsF22Pkmk2DLRPhyF2Eum_cY3p3OqYXl12jEf0htjo4SNlrM5yVHE3-611jdTDfg1E3QI0WAsRvqKtA_RBMC2yOmyRZbfVOu_lHOGkCMEXFID6qVqo2jCgPYqtU3wYhAtHTSbRZzW4zGgs4JvBadXDimjl43eL3G75ewTGF6AGZJGBGNFsTbrfAy99V4SlfOyAzsAT5FG2lNUbo51PVdiHNEgSebKZad9Yp8Lxl_DD7borGuz-ZtCpyLGlPyUs-AUX7LpSWftlT_Q9w7TM9t2zKThYEwLuWHstmB3tD2xmsYCx-g3shVtFm00?></g></svg>