<?plantuml 1.2026.2?><svg xmlns="http://www.w3.org/2000/svg" xmlns:xlink="http://www.w3.org/1999/xlink" contentStyleType="text/css" data-diagram-type="DESCRIPTION" height="611px" preserveAspectRatio="none" style="width:1776px;height:611px;background:#FFFFFF;" version="1.1" viewBox="0 0 1776 611" width="1776px" zoomAndPan="magnify"><title>C4 Level 3 - Presentation Tier (Kleff Dashboard)</title><defs/><g><g class="title" data-source-line="1"><text fill="#000000" font-family="sans-serif" font-size="14" font-weight="bold" lengthAdjust="spacing" textLength="379.4424" x="691.2788" y="22.9951">C4 Level 3 - Presentation Tier (Kleff Dashboard)</text></g><!--cluster Presentation Tier - Kleff Dashboard (React / Vite SPA)--><g class="cluster" data-qualified-name="Presentation Tier - Kleff Dashboard .React . Vite SPA." data-source-line="5" id="ent0002"><rect fill="none" height="440" rx="2.5" ry="2.5" style="stroke:#181818;stroke-width:1;" width="1763" x="7" y="44.2969"/><text fill="#000000" font-family="sans-serif" font-size="14" font-weight="bold" lengthAdjust="spacing" textLength="425.5508" x="675.7246" y="59.292">Presentation Tier - Kleff Dashboard (React / Vite SPA)</text></g><!--cluster Application Tier APIs (HTTP / JSON)--><g class="cluster" data-qualified-name="Application Tier APIs .HTTP . JSON." data-source-line="35" id="ent0026"><rect fill="none" height="97" rx="2.5" ry="2.5" style="stroke:#181818;stroke-width:1;" width="877" x="442" y="508.2969"/><text fill="#000000" font-family="sans-serif" font-size="14" font-weight="bold" lengthAdjust="spacing" textLength="276.9512" x="742.0244" y="523.292">Application Tier APIs (HTTP / JSON)</text></g><!--entity DashboardShell--><g class="entity" data-qualified-name="Presentation Tier - Kleff Dashboard .React . Vite SPA..DashboardShell" data-source-line="7" id="ent0003"><rect fill="#F1F1F1" height="78.8906" rx="2.5" ry="2.5" style="stroke:#181818;stroke-width:0.5;" width="204.5" x="770.5" y="79.2969"/><rect fill="#F1F1F1" height="10" style="stroke:#181818;stroke-width:0.5;" width="15" x="955" y="84.2969"/><rect fill="#F1F1F1" height="2" style="stroke:#181818;stroke-width:0.5;" width="4" x="953" y="86.2969"/><rect fill="#F1F1F1" height="2" style="stroke:#181818;stroke-width:0.5;" width="4" x="953" y="90.2969"/><text fill="#000000" font-family="sans-serif" font-size="14" lengthAdjust="spacing" textLength="114.8027" x="785.5" y="112.292">Dashboard Shell</text><text fill="#000000" font-family="sans-serif" font-size="14" lengthAdjust="spacing" textLength="155.627" x="785.5" y="128.5889">&#8226; Layout &amp; Navigation</text><text fill="#000000" font-family="sans-serif" font-size="14" lengthAdjust="spacing" textLength="164.5" x="785.5" y="144.8857">&#8226; Tenant-aware routing</text></g><!--entity AuthUI--><g class="entity" data-qualified-name="Presentation Tier - Kleff Dashboard .React . Vite SPA..AuthUI" data-source-line="8" id="ent0004"><rect fill="#F1F1F1" height="95.1875" rx="2.5" ry="2.5" style="stroke:#181818;stroke-width:0.5;" width="169.1855" x="22.5" y="218.2969"/><rect fill="#F1F1F1" height="10" style="stroke:#181818;stroke-width:0.5;" width="15" x="171.6855" y="223.2969"/><rect fill="#F1F1F1" height="2" style="stroke:#181818;stroke-width:0.5;" width="4" x="169.6855" y="225.2969"/><rect fill="#F1F1F1" height="2" style="stroke:#181818;stroke-width:0.5;" width="4" x="169.6855" y="229.2969"/><text fill="#000000" font-family="sans-serif" font-size="14" lengthAdjust="spacing" textLength="106.9961" x="37.5" y="251.292">Auth UI Module</text><text fill="#000000" font-family="sans-serif" font-size="14" lengthAdjust="spacing" textLength="112.6357" x="37.5" y="267.5889">&#8226; Login / Signup</text><text fill="#000000" font-family="sans-serif" font-size="14" lengthAdjust="spacing" textLength="114.4609" x="37.5" y="283.8857">&#8226; OAuth buttons</text><text fill="#000000" font-family="sans-serif" font-size="14" lengthAdjust="spacing" textLength="129.1855" x="37.5" y="300.1826">&#8226; Forgot password</text></g><!--entity TenantSwitcher--><g class="entity" data-qualified-name="Presentation Tier - Kleff Dashboard .React . Vite SPA..TenantSwitcher" data-source-line="9" id="ent0005"><rect fill="#F1F1F1" height="78.8906" rx="2.5" ry="2.5" style="stroke:#181818;stroke-width:0.5;" width="251.2441" x="226.5" y="226.2969"/><rect fill="#F1F1F1" height="10" style="stroke:#181818;stroke-width:0.5;" width="15" x="457.7441" y="231.2969"/><rect fill="#F1F1F1" height="2" style="stroke:#181818;stroke-width:0.5;" width="4" x="455.7441" y="233.2969"/><rect fill="#F1F1F1" height="2" style="stroke:#181818;stroke-width:0.5;" width="4" x="455.7441" y="237.2969"/><text fill="#000000" font-family="sans-serif" font-size="14" lengthAdjust="spacing" textLength="211.2441" x="241.5" y="259.292">Tenant &amp; Workspace Switcher</text><text fill="#000000" font-family="sans-serif" font-size="14" lengthAdjust="spacing" textLength="116.2109" x="241.5" y="275.5889">&#8226; Current tenant</text><text fill="#000000" font-family="sans-serif" font-size="14" lengthAdjust="spacing" textLength="158.5117" x="241.5" y="291.8857">&#8226; Switch / Join / Create</text></g><!--entity ProjectUI--><g class="entity" data-qualified-name="Presentation Tier - Kleff Dashboard .React . Vite SPA..ProjectUI" data-source-line="10" id="ent0006"><rect fill="#F1F1F1" height="95.1875" rx="2.5" ry="2.5" style="stroke:#181818;stroke-width:0.5;" width="203.9531" x="513" y="218.2969"/><rect fill="#F1F1F1" height="10" style="stroke:#181818;stroke-width:0.5;" width="15" x="696.9531" y="223.2969"/><rect fill="#F1F1F1" height="2" style="stroke:#181818;stroke-width:0.5;" width="4" x="694.9531" y="225.2969"/><rect fill="#F1F1F1" height="2" style="stroke:#181818;stroke-width:0.5;" width="4" x="694.9531" y="229.2969"/><text fill="#000000" font-family="sans-serif" font-size="14" lengthAdjust="spacing" textLength="163.9531" x="528" y="251.292">Project Management UI</text><text fill="#000000" font-family="sans-serif" font-size="14" lengthAdjust="spacing" textLength="152.6328" x="528" y="267.5889">&#8226; Project list &amp; details</text><text fill="#000000" font-family="sans-serif" font-size="14" lengthAdjust="spacing" textLength="125.8428" x="528" y="283.8857">&#8226; Git repo binding</text><text fill="#000000" font-family="sans-serif" font-size="14" lengthAdjust="spacing" textLength="139.0977" x="528" y="300.1826">&#8226; Environment view</text></g><!--entity DeploymentUI--><g class="entity" data-qualified-name="Presentation Tier - Kleff Dashboard .React . Vite SPA..DeploymentUI" data-source-line="11" id="ent0007"><rect fill="#F1F1F1" height="95.1875" rx="2.5" ry="2.5" style="stroke:#181818;stroke-width:0.5;" width="241.1338" x="752.5" y="218.2969"/><rect fill="#F1F1F1" height="10" style="stroke:#181818;stroke-width:0.5;" width="15" x="973.6338" y="223.2969"/><rect fill="#F1F1F1" height="2" style="stroke:#181818;stroke-width:0.5;" width="4" x="971.6338" y="225.2969"/><rect fill="#F1F1F1" height="2" style="stroke:#181818;stroke-width:0.5;" width="4" x="971.6338" y="229.2969"/><text fill="#000000" font-family="sans-serif" font-size="14" lengthAdjust="spacing" textLength="201.1338" x="767.5" y="251.292">Deployment Management UI</text><text fill="#000000" font-family="sans-serif" font-size="14" lengthAdjust="spacing" textLength="114.3311" x="767.5" y="267.5889">&#8226; Deploy history</text><text fill="#000000" font-family="sans-serif" font-size="14" lengthAdjust="spacing" textLength="88.7646" x="767.5" y="283.8857">&#8226; Live status</text><text fill="#000000" font-family="sans-serif" font-size="14" lengthAdjust="spacing" textLength="149.5498" x="767.5" y="300.1826">&#8226; Rollbacks &amp; actions</text></g><!--entity BillingUI--><g class="entity" data-qualified-name="Presentation Tier - Kleff Dashboard .React . Vite SPA..BillingUI" data-source-line="12" id="ent0008"><rect fill="#F1F1F1" height="95.1875" rx="2.5" ry="2.5" style="stroke:#181818;stroke-width:0.5;" width="208.5537" x="1028.5" y="218.2969"/><rect fill="#F1F1F1" height="10" style="stroke:#181818;stroke-width:0.5;" width="15" x="1217.0537" y="223.2969"/><rect fill="#F1F1F1" height="2" style="stroke:#181818;stroke-width:0.5;" width="4" x="1215.0537" y="225.2969"/><rect fill="#F1F1F1" height="2" style="stroke:#181818;stroke-width:0.5;" width="4" x="1215.0537" y="229.2969"/><text fill="#000000" font-family="sans-serif" font-size="14" lengthAdjust="spacing" textLength="168.5537" x="1043.5" y="251.292">Billing &amp; Subscription UI</text><text fill="#000000" font-family="sans-serif" font-size="14" lengthAdjust="spacing" textLength="102.8604" x="1043.5" y="267.5889">&#8226; Plan selector</text><text fill="#000000" font-family="sans-serif" font-size="14" lengthAdjust="spacing" textLength="140.4375" x="1043.5" y="283.8857">&#8226; Payment methods</text><text fill="#000000" font-family="sans-serif" font-size="14" lengthAdjust="spacing" textLength="70.0547" x="1043.5" y="300.1826">&#8226; Invoices</text></g><!--entity ObservabilityUI--><g class="entity" data-qualified-name="Presentation Tier - Kleff Dashboard .React . Vite SPA..ObservabilityUI" data-source-line="13" id="ent0009"><rect fill="#F1F1F1" height="95.1875" rx="2.5" ry="2.5" style="stroke:#181818;stroke-width:0.5;" width="203.9531" x="1273" y="218.2969"/><rect fill="#F1F1F1" height="10" style="stroke:#181818;stroke-width:0.5;" width="15" x="1456.9531" y="223.2969"/><rect fill="#F1F1F1" height="2" style="stroke:#181818;stroke-width:0.5;" width="4" x="1454.9531" y="225.2969"/><rect fill="#F1F1F1" height="2" style="stroke:#181818;stroke-width:0.5;" width="4" x="1454.9531" y="229.2969"/><text fill="#000000" font-family="sans-serif" font-size="14" lengthAdjust="spacing" textLength="163.9531" x="1288" y="251.292">Observability &amp; Logs UI</text><text fill="#000000" font-family="sans-serif" font-size="14" lengthAdjust="spacing" textLength="96.3115" x="1288" y="267.5889">&#8226; Logs viewer</text><text fill="#000000" font-family="sans-serif" font-size="14" lengthAdjust="spacing" textLength="149.5771" x="1288" y="283.8857">&#8226; Metrics dashboards</text><text fill="#000000" font-family="sans-serif" font-size="14" lengthAdjust="spacing" textLength="150.6436" x="1288" y="300.1826">&#8226; Alerts configuration</text></g><!--entity AccountUI--><g class="entity" data-qualified-name="Presentation Tier - Kleff Dashboard .React . Vite SPA..AccountUI" data-source-line="14" id="ent0010"><rect fill="#F1F1F1" height="95.1875" rx="2.5" ry="2.5" style="stroke:#181818;stroke-width:0.5;" width="241.373" x="1512.5" y="218.2969"/><rect fill="#F1F1F1" height="10" style="stroke:#181818;stroke-width:0.5;" width="15" x="1733.873" y="223.2969"/><rect fill="#F1F1F1" height="2" style="stroke:#181818;stroke-width:0.5;" width="4" x="1731.873" y="225.2969"/><rect fill="#F1F1F1" height="2" style="stroke:#181818;stroke-width:0.5;" width="4" x="1731.873" y="229.2969"/><text fill="#000000" font-family="sans-serif" font-size="14" lengthAdjust="spacing" textLength="201.373" x="1527.5" y="251.292">Account &amp; Profile Settings UI</text><text fill="#000000" font-family="sans-serif" font-size="14" lengthAdjust="spacing" textLength="56.793" x="1527.5" y="267.5889">&#8226; Profile</text><text fill="#000000" font-family="sans-serif" font-size="14" lengthAdjust="spacing" textLength="70.1982" x="1527.5" y="283.8857">&#8226; Security</text><text fill="#000000" font-family="sans-serif" font-size="14" lengthAdjust="spacing" textLength="160.8154" x="1527.5" y="300.1826">&#8226; Personal preferences</text></g><!--entity ApiClient--><g class="entity" data-qualified-name="Presentation Tier - Kleff Dashboard .React . Vite SPA..ApiClient" data-source-line="15" id="ent0011"><rect fill="#F1F1F1" height="95.1875" rx="2.5" ry="2.5" style="stroke:#181818;stroke-width:0.5;" width="207.9863" x="769" y="373.2969"/><rect fill="#F1F1F1" height="10" style="stroke:#181818;stroke-width:0.5;" width="15" x="956.9863" y="378.2969"/><rect fill="#F1F1F1" height="2" style="stroke:#181818;stroke-width:0.5;" width="4" x="954.9863" y="380.2969"/><rect fill="#F1F1F1" height="2" style="stroke:#181818;stroke-width:0.5;" width="4" x="954.9863" y="384.2969"/><text fill="#000000" font-family="sans-serif" font-size="14" lengthAdjust="spacing" textLength="167.9863" x="784" y="406.292">Frontend API Client SDK</text><text fill="#000000" font-family="sans-serif" font-size="14" lengthAdjust="spacing" textLength="91.6221" x="784" y="422.5889">&#8226; REST client</text><text fill="#000000" font-family="sans-serif" font-size="14" lengthAdjust="spacing" textLength="154.8203" x="784" y="438.8857">&#8226; Auth token handling</text><text fill="#000000" font-family="sans-serif" font-size="14" lengthAdjust="spacing" textLength="152.0791" x="784" y="455.1826">&#8226; Error / retry policies</text></g><!--entity Auth API--><g class="entity" data-qualified-name="Application Tier APIs .HTTP . JSON..Auth API" data-source-line="36" id="ent0027"><rect fill="#F1F1F1" height="46.2969" rx="2.5" ry="2.5" style="stroke:#181818;stroke-width:0.5;" width="99.4111" x="1203.5" y="543.2969"/><rect fill="#F1F1F1" height="10" style="stroke:#181818;stroke-width:0.5;" width="15" x="1282.9111" y="548.2969"/><rect fill="#F1F1F1" height="2" style="stroke:#181818;stroke-width:0.5;" width="4" x="1280.9111" y="550.2969"/><rect fill="#F1F1F1" height="2" style="stroke:#181818;stroke-width:0.5;" width="4" x="1280.9111" y="554.2969"/><text fill="#000000" font-family="sans-serif" font-size="14" lengthAdjust="spacing" textLength="59.4111" x="1218.5" y="576.292">Auth API</text></g><!--entity Tenant & Project API--><g class="entity" data-qualified-name="Application Tier APIs .HTTP . JSON..Tenant . Project API" data-source-line="37" id="ent0028"><rect fill="#F1F1F1" height="46.2969" rx="2.5" ry="2.5" style="stroke:#181818;stroke-width:0.5;" width="183.8486" x="984" y="543.2969"/><rect fill="#F1F1F1" height="10" style="stroke:#181818;stroke-width:0.5;" width="15" x="1147.8486" y="548.2969"/><rect fill="#F1F1F1" height="2" style="stroke:#181818;stroke-width:0.5;" width="4" x="1145.8486" y="550.2969"/><rect fill="#F1F1F1" height="2" style="stroke:#181818;stroke-width:0.5;" width="4" x="1145.8486" y="554.2969"/><text fill="#000000" font-family="sans-serif" font-size="14" lengthAdjust="spacing" textLength="143.8486" x="999" y="576.292">Tenant &amp; Project API</text></g><!--entity Deployment API--><g class="entity" data-qualified-name="Application Tier APIs .HTTP . JSON..Deployment API" data-source-line="38" id="ent0029"><rect fill="#F1F1F1" height="46.2969" rx="2.5" ry="2.5" style="stroke:#181818;stroke-width:0.5;" width="152.2324" x="797" y="543.2969"/><rect fill="#F1F1F1" height="10" style="stroke:#181818;stroke-width:0.5;" width="15" x="929.2324" y="548.2969"/><rect fill="#F1F1F1" height="2" style="stroke:#181818;stroke-width:0.5;" width="4" x="927.2324" y="550.2969"/><rect fill="#F1F1F1" height="2" style="stroke:#181818;stroke-width:0.5;" width="4" x="927.2324" y="554.2969"/><text fill="#000000" font-family="sans-serif" font-size="14" lengthAdjust="spacing" textLength="112.2324" x="812" y="576.292">Deployment API</text></g><!--entity Billing API--><g class="entity" data-qualified-name="Application Tier APIs .HTTP . JSON..Billing API" data-source-line="39" id="ent0030"><rect fill="#F1F1F1" height="46.2969" rx="2.5" ry="2.5" style="stroke:#181818;stroke-width:0.5;" width="109.5215" x="652" y="543.2969"/><rect fill="#F1F1F1" height="10" style="stroke:#181818;stroke-width:0.5;" width="15" x="741.5215" y="548.2969"/><rect fill="#F1F1F1" height="2" style="stroke:#181818;stroke-width:0.5;" width="4" x="739.5215" y="550.2969"/><rect fill="#F1F1F1" height="2" style="stroke:#181818;stroke-width:0.5;" width="4" x="739.5215" y="554.2969"/><text fill="#000000" font-family="sans-serif" font-size="14" lengthAdjust="spacing" textLength="69.5215" x="667" y="576.292">Billing API</text></g><!--entity Observability API--><g class="entity" data-qualified-name="Application Tier APIs .HTTP . JSON..Observability API" data-source-line="40" id="ent0031"><rect fill="#F1F1F1" height="46.2969" rx="2.5" ry="2.5" style="stroke:#181818;stroke-width:0.5;" width="159.3623" x="457.5" y="543.2969"/><rect fill="#F1F1F1" height="10" style="stroke:#181818;stroke-width:0.5;" width="15" x="596.8623" y="548.2969"/><rect fill="#F1F1F1" height="2" style="stroke:#181818;stroke-width:0.5;" width="4" x="594.8623" y="550.2969"/><rect fill="#F1F1F1" height="2" style="stroke:#181818;stroke-width:0.5;" width="4" x="594.8623" y="554.2969"/><text fill="#000000" font-family="sans-serif" font-size="14" lengthAdjust="spacing" textLength="119.3623" x="472.5" y="576.292">Observability API</text></g><!--link DashboardShell to AuthUI--><g class="link" data-entity-1="ent0003" data-entity-2="ent0004" data-link-type="dependency" data-source-line="17" id="lnk12"><path d="M770.41,126.0769 C638.28,136.1669 402.62,161.0469 209,218.2969 C203.31,219.9769 203.155,219.8662 197.385,221.9762" fill="none" id="DashboardShell-to-AuthUI" style="stroke:#808080;stroke-width:1;"/><polygon fill="#808080" points="191.75,224.0369,201.5763,224.7026,196.4459,222.3197,198.8288,217.1892,191.75,224.0369" style="stroke:#808080;stroke-width:1;"/></g><!--link DashboardShell to TenantSwitcher--><g class="link" data-entity-1="ent0003" data-entity-2="ent0005" data-link-type="dependency" data-source-line="18" id="lnk13"><path d="M770.16,144.9869 C694.12,164.0269 588.21,191.3869 496,218.2969 C487.43,220.7969 484.3251,221.6937 475.4451,224.4237" fill="none" id="DashboardShell-to-TenantSwitcher" style="stroke:#808080;stroke-width:1;"/><polygon fill="#808080" points="469.71,226.1869,479.4881,227.3655,474.4892,224.7176,477.1372,219.7187,469.71,226.1869" style="stroke:#808080;stroke-width:1;"/></g><!--link DashboardShell to ProjectUI--><g class="link" data-entity-1="ent0003" data-entity-2="ent0006" data-link-type="dependency" data-source-line="19" id="lnk14"><path d="M804.2,158.4669 C771.51,176.8369 737.4004,196.007 703.0804,215.297" fill="none" id="DashboardShell-to-ProjectUI" style="stroke:#808080;stroke-width:1;"/><polygon fill="#808080" points="697.85,218.2369,707.6555,217.3141,702.2087,215.787,703.7358,210.3402,697.85,218.2369" style="stroke:#808080;stroke-width:1;"/></g><!--link DashboardShell to DeploymentUI--><g class="link" data-entity-1="ent0003" data-entity-2="ent0007" data-link-type="dependency" data-source-line="20" id="lnk15"><path d="M873,158.6569 C873,176.9369 873,192.8969 873,212.0869" fill="none" id="DashboardShell-to-DeploymentUI" style="stroke:#808080;stroke-width:1;"/><polygon fill="#808080" points="873,218.0869,877,209.0869,873,213.0869,869,209.0869,873,218.0869" style="stroke:#808080;stroke-width:1;"/></g><!--link DashboardShell to BillingUI--><g class="link" data-entity-1="ent0003" data-entity-2="ent0008" data-link-type="dependency" data-source-line="21" id="lnk16"><path d="M942.33,158.4669 C975.28,176.8369 1009.6798,196.0245 1044.2698,215.3145" fill="none" id="DashboardShell-to-BillingUI" style="stroke:#808080;stroke-width:1;"/><polygon fill="#808080" points="1049.51,218.2369,1043.5979,210.3599,1045.1431,215.8016,1039.7014,217.3468,1049.51,218.2369" style="stroke:#808080;stroke-width:1;"/></g><!--link DashboardShell to ObservabilityUI--><g class="link" data-entity-1="ent0003" data-entity-2="ent0009" data-link-type="dependency" data-source-line="22" id="lnk17"><path d="M975.67,142.8169 C1053.11,161.0069 1161.6,188.2769 1255,218.2969 C1260.85,220.1769 1261.1658,220.2077 1267.1758,222.3077" fill="none" id="DashboardShell-to-ObservabilityUI" style="stroke:#808080;stroke-width:1;"/><polygon fill="#808080" points="1272.84,224.2869,1265.6632,217.542,1268.1199,222.6376,1263.0243,225.0942,1272.84,224.2869" style="stroke:#808080;stroke-width:1;"/></g><!--link DashboardShell to AccountUI--><g class="link" data-entity-1="ent0003" data-entity-2="ent0010" data-link-type="dependency" data-source-line="23" id="lnk18"><path d="M975.59,130.6869 C1099.76,145.0969 1314.64,173.9669 1495,218.2969 C1500.65,219.6869 1500.61,219.5869 1506.39,221.1969" fill="none" id="DashboardShell-to-AccountUI" style="stroke:#808080;stroke-width:1;"/><polygon fill="#808080" points="1512.17,222.8069,1504.5734,216.5386,1507.3534,221.4652,1502.4267,224.2452,1512.17,222.8069" style="stroke:#808080;stroke-width:1;"/></g><!--link AuthUI to ApiClient--><g class="link" data-entity-1="ent0004" data-entity-2="ent0011" data-link-type="dependency" data-source-line="25" id="lnk19"><path d="M191.77,307.4769 C197.54,309.6169 203.32,311.5769 209,313.2969 C401.93,371.5769 630.615,399.1394 763.005,411.2694" fill="none" id="AuthUI-to-ApiClient" style="stroke:#181818;stroke-width:1;"/><polygon fill="#181818" points="768.98,411.8169,760.3825,407.0124,764.0009,411.3607,759.6526,414.979,768.98,411.8169" style="stroke:#181818;stroke-width:1;"/></g><!--link TenantSwitcher to ApiClient--><g class="link" data-entity-1="ent0005" data-entity-2="ent0011" data-link-type="dependency" data-source-line="26" id="lnk20"><path d="M470.16,305.3369 C478.89,308.0669 487.58,310.7469 496,313.2969 C587.79,341.0669 687.0453,368.9639 762.9053,389.8539" fill="none" id="TenantSwitcher-to-ApiClient" style="stroke:#181818;stroke-width:1;"/><polygon fill="#181818" points="768.69,391.4469,761.075,385.201,763.8694,390.1194,758.951,392.9139,768.69,391.4469" style="stroke:#181818;stroke-width:1;"/></g><!--link ProjectUI to ApiClient--><g class="link" data-entity-1="ent0006" data-entity-2="ent0011" data-link-type="dependency" data-source-line="27" id="lnk21"><path d="M693.46,313.3269 C725.48,332.3169 757.2789,351.177 789.3089,370.167" fill="none" id="ProjectUI-to-ApiClient" style="stroke:#181818;stroke-width:1;"/><polygon fill="#181818" points="794.47,373.2269,788.7683,365.1963,790.1691,370.6769,784.6884,372.0777,794.47,373.2269" style="stroke:#181818;stroke-width:1;"/></g><!--link DeploymentUI to ApiClient--><g class="link" data-entity-1="ent0007" data-entity-2="ent0011" data-link-type="dependency" data-source-line="28" id="lnk22"><path d="M873,313.5369 C873,332.4269 873,348.1869 873,367.0869" fill="none" id="DeploymentUI-to-ApiClient" style="stroke:#181818;stroke-width:1;"/><polygon fill="#181818" points="873,373.0869,877,364.0869,873,368.0869,869,364.0869,873,373.0869" style="stroke:#181818;stroke-width:1;"/></g><!--link BillingUI to ApiClient--><g class="link" data-entity-1="ent0008" data-entity-2="ent0011" data-link-type="dependency" data-source-line="29" id="lnk23"><path d="M1053.93,313.3269 C1021.66,332.3169 989.5915,351.1945 957.3115,370.1845" fill="none" id="BillingUI-to-ApiClient" style="stroke:#181818;stroke-width:1;"/><polygon fill="#181818" points="952.14,373.2269,961.9254,372.111,956.4496,370.6916,957.869,365.2157,952.14,373.2269" style="stroke:#181818;stroke-width:1;"/></g><!--link ObservabilityUI to ApiClient--><g class="link" data-entity-1="ent0009" data-entity-2="ent0011" data-link-type="dependency" data-source-line="30" id="lnk24"><path d="M1272.79,307.1769 C1266.79,309.2969 1260.83,311.3569 1255,313.2969 C1162.06,344.1769 1060.2673,372.1185 982.9973,392.1885" fill="none" id="ObservabilityUI-to-ApiClient" style="stroke:#181818;stroke-width:1;"/><polygon fill="#181818" points="977.19,393.6969,986.9065,395.3058,982.0294,392.4399,984.8954,387.5628,977.19,393.6969" style="stroke:#181818;stroke-width:1;"/></g><!--link AccountUI to ApiClient--><g class="link" data-entity-1="ent0010" data-entity-2="ent0011" data-link-type="dependency" data-source-line="31" id="lnk25"><path d="M1512.15,308.6969 C1506.38,310.3269 1500.64,311.8769 1495,313.2969 C1315.35,358.6569 1107.5483,389.7812 983.1583,406.2112" fill="none" id="AccountUI-to-ApiClient" style="stroke:#181818;stroke-width:1;"/><polygon fill="#181818" points="977.21,406.9969,986.6563,409.7839,982.1669,406.3421,985.6087,401.8528,977.21,406.9969" style="stroke:#181818;stroke-width:1;"/></g><!--link ApiClient to Auth API--><g class="link" data-entity-1="ent0011" data-entity-2="ent0027" data-link-type="dependency" data-source-line="43" id="lnk32"><path d="M977.05,433.9469 C1040.5,444.6569 1121.51,464.3969 1186,500.2969 C1205.4,511.0969 1219.2865,524.4261 1231.6665,538.6861" fill="none" id="ApiClient-to-Auth API" style="stroke:#181818;stroke-width:1;"/><polygon fill="#181818" points="1235.6,543.2169,1232.7203,533.7984,1232.3221,539.4412,1226.6793,539.043,1235.6,543.2169" style="stroke:#181818;stroke-width:1;"/></g><!--link ApiClient to Tenant & Project API--><g class="link" data-entity-1="ent0011" data-entity-2="ent0028" data-link-type="dependency" data-source-line="44" id="lnk33"><path d="M938.91,468.3869 C974.45,493.5069 1011.761,519.8827 1039.861,539.7527" fill="none" id="ApiClient-to-Tenant &amp; Project API" style="stroke:#181818;stroke-width:1;"/><polygon fill="#181818" points="1044.76,543.2169,1039.721,534.7547,1040.6775,540.3301,1035.1021,541.2866,1044.76,543.2169" style="stroke:#181818;stroke-width:1;"/></g><!--link ApiClient to Deployment API--><g class="link" data-entity-1="ent0011" data-entity-2="ent0029" data-link-type="dependency" data-source-line="45" id="lnk34"><path d="M873,468.3869 C873,493.4269 873,517.1569 873,537.0169" fill="none" id="ApiClient-to-Deployment API" style="stroke:#181818;stroke-width:1;"/><polygon fill="#181818" points="873,543.0169,877,534.0169,873,538.0169,869,534.0169,873,543.0169" style="stroke:#181818;stroke-width:1;"/></g><!--link ApiClient to Billing API--><g class="link" data-entity-1="ent0011" data-entity-2="ent0030" data-link-type="dependency" data-source-line="46" id="lnk35"><path d="M817.23,468.4669 C804.91,478.8769 791.97,489.9169 780,500.2969 C763.72,514.4169 750.0861,526.5101 735.9861,539.1601" fill="none" id="ApiClient-to-Billing API" style="stroke:#181818;stroke-width:1;"/><polygon fill="#181818" points="731.52,543.1669,740.8903,540.1341,735.2417,539.8279,735.5479,534.1793,731.52,543.1669" style="stroke:#181818;stroke-width:1;"/></g><!--link ApiClient to Observability API--><g class="link" data-entity-1="ent0011" data-entity-2="ent0031" data-link-type="dependency" data-source-line="47" id="lnk36"><path d="M768.72,449.5869 C726.23,462.5869 677.27,479.7669 635,500.2969 C610.39,512.2469 589.5443,525.9704 570.6443,539.7004" fill="none" id="ApiClient-to-Observability API" style="stroke:#181818;stroke-width:1;"/><polygon fill="#181818" points="565.79,543.2269,575.4224,541.1734,569.8353,540.2882,570.7205,534.701,565.79,543.2269" style="stroke:#181818;stroke-width:1;"/></g><?plantuml-src VLLDZzCm4BtdLuoA1Dr3XGISaKft5yf-LPik79OzkCaqCNNjo7PQAeJ4R-6dyKkOs4xQEbkEcPcyzsRcsRRS2eJ9ExZ63Gfu2oEOQJGeBRDSIPXpr32y4hXSmZapvK8ndPybYLbnMJ7Drb2nRCKAJEsEW3Hcbib2O9A4E0pwU2E8065uZoopy1g-S8kGpiPd0_YP902PMbTAqkyms5Ud9GhnJVxz_GUksKxL5bx2BTlmmd7un1mbatR4jaoJBAhXiXW0CtjIXt9CCQvj2GzJk55vBJ0mg89BKfRoGjQLZzsvmaLjhPB6XowLBfIbQHYpLJftL4tLm_IOmkiYmL-LNXaQ4hMxvJOhKNkWIQrrKsbTeO_v2XBnMJaj4utCekFmU2t4CTTCg--q4BXXaZQnRc8FKu_OfWGtZPWSBUCYjFAHMrfafM31PKvZyz4BkU5QIOUouRXrx04cRl8SAw5shlGPRf-5agYLteKfyms28PFKGSIz4c915ZAaZgn1UpL-VHrqJFg12q5ggJwj5oRJl7AEwpeMJ891GN9L6FMCUOrhjANA0_5KRXJFqBC5p9ZgRc5GRzY22svtH4WUCHsH-sWcr6xq1gtccO6yTLvW6WlKrX2kNFAYriwyZlK8FkOUPvcgdODe-4jEXov5sxZR72wtIGJlO5PhmWafr4P99g3Ik4GoMjjfW8tPBcdbvCGSnhCfJ0HlWkdvLTZHHJg7p0L3Hysni6g54aecSx4tZzPAat4rZM87bH8yuornnJrkSzoF3oUC7byKcksUHk_tP-bqIUyed2uzzEtfgiXhfmiFRNAwgh_M_xJRhOFAVEymQkBTj23gjvVkUknb3llg9RjUUfb8Vo_VQOuolvBa5LpyiAWRuv6H3DWIOTbQop91nzmg659exHwZDsVxzsDSLMINW-V38Gm_pUUpvaPCxsxTOm7mwEn7sQVcexjeswkkJHnSJcselJhQx-FpxQBKHDUHw--0BKeypnmLnIgYz96YAFUCkdy0?></g></svg>