<?plantuml 1.2026.2?><svg xmlns="http://www.w3.org/2000/svg" xmlns:xlink="http://www.w3.org/1999/xlink" contentStyleType="text/css" data-diagram-type="DESCRIPTION" height="443px" preserveAspectRatio="none" style="width:937px;height:443px;background:#FFFFFF;" version="1.1" viewBox="0 0 937 443" width="937px" zoomAndPan="magnify"><defs/><g><!--cluster Kleff Hosting Platform--><g class="cluster" data-qualified-name="Kleff Hosting Platform" data-source-line="12" id="ent0004"><rect fill="none" height="430" rx="2.5" ry="2.5" style="stroke:#181818;stroke-width:1;" width="684" x="247" y="7"/><text fill="#000000" font-family="sans-serif" font-size="14" font-weight="bold" lengthAdjust="spacing" textLength="176.6201" x="500.6899" y="21.9951">Kleff Hosting Platform</text></g><!--cluster Deployment--><g class="cluster" data-qualified-name="Kleff Hosting Platform.Deployment" data-source-line="13" id="ent0005"><rect fill="#FFF9C4" height="363" rx="2.5" ry="2.5" style="stroke:#181818;stroke-width:1;" width="636" x="271" y="50"/><text fill="#000000" font-family="sans-serif" font-size="14" font-weight="bold" lengthAdjust="spacing" textLength="95.4229" x="541.2886" y="64.9951">Deployment</text></g><!--entity UC20--><g class="entity" data-qualified-name="Kleff Hosting Platform.Deployment.UC20" data-source-line="15" id="ent0006"><ellipse cx="398.5034" cy="374.1007" fill="#FAFAFA" rx="103.5034" ry="23.1007" style="stroke:#455A64;stroke-width:0.5;"/><text fill="#000000" font-family="sans-serif" font-size="14" lengthAdjust="spacing" textLength="183.75" x="306.6284" y="378.7491">UC-20: Deploy Application</text></g><!--entity UC21--><g class="entity" data-qualified-name="Kleff Hosting Platform.Deployment.UC21" data-source-line="16" id="ent0007"><ellipse cx="398.2726" cy="191.7545" fill="#FAFAFA" rx="104.2726" ry="23.2545" style="stroke:#455A64;stroke-width:0.5;"/><text fill="#000000" font-family="sans-serif" font-size="14" lengthAdjust="spacing" textLength="185.4316" x="305.5568" y="196.403">UC-21: Update Application</text></g><!--entity UC22--><g class="entity" data-qualified-name="Kleff Hosting Platform.Deployment.UC22" data-source-line="17" id="ent0008"><ellipse cx="398.6679" cy="275.2336" fill="#FAFAFA" rx="111.6679" ry="24.7336" style="stroke:#455A64;stroke-width:0.5;"/><text fill="#000000" font-family="sans-serif" font-size="14" lengthAdjust="spacing" textLength="201.4824" x="297.9267" y="279.882">UC-22: Rollback Deployment</text></g><!--entity UC23--><g class="entity" data-qualified-name="Kleff Hosting Platform.Deployment.UC23" data-source-line="18" id="ent0009"><ellipse cx="398.477" cy="109.1954" fill="#FAFAFA" rx="108.977" ry="24.1954" style="stroke:#455A64;stroke-width:0.5;"/><text fill="#000000" font-family="sans-serif" font-size="14" lengthAdjust="spacing" textLength="195.665" x="300.6445" y="113.8438">UC-23: Stop/Start Container</text></g><!--entity UC24--><g class="entity" data-qualified-name="Kleff Hosting Platform.Deployment.UC24" data-source-line="19" id="ent0010"><ellipse cx="765.9693" cy="175.8939" fill="#FAFAFA" rx="124.9693" ry="27.3939" style="stroke:#455A64;stroke-width:0.5;"/><text fill="#000000" font-family="sans-serif" font-size="14" lengthAdjust="spacing" textLength="229.9268" x="651.0059" y="180.5423">UC-24: View Deployment History</text></g><!--entity Dev--><g class="entity" data-qualified-name="Dev" data-source-line="9" id="ent0002"><ellipse cx="47.5015" cy="162.5" fill="#C0C0C0" rx="8" ry="8" style="stroke:#181818;stroke-width:0.5;"/><path d="M47.5015,170.5 L47.5015,197.5 M34.5015,178.5 L60.5015,178.5 M47.5015,197.5 L34.5015,212.5 M47.5015,197.5 L60.5015,212.5" fill="none" style="stroke:#181818;stroke-width:0.5;"/><text fill="#000000" font-family="sans-serif" font-size="14" lengthAdjust="spacing" textLength="72.0029" x="11.5" y="226.9951">Developer</text></g><!--entity Git--><g class="entity" data-qualified-name="Git" data-source-line="10" id="ent0003"><ellipse cx="47.436" cy="344.5" fill="#800080" rx="8" ry="8" style="stroke:#181818;stroke-width:0.5;"/><path d="M47.436,352.5 L47.436,379.5 M34.436,360.5 L60.436,360.5 M47.436,379.5 L34.436,394.5 M47.436,379.5 L60.436,394.5" fill="none" style="stroke:#181818;stroke-width:0.5;"/><text fill="#000000" font-family="sans-serif" font-size="14" lengthAdjust="spacing" textLength="82.8721" x="6" y="408.9951">Git Provider</text></g><!--link Dev to UC20--><g class="link" data-entity-1="ent0002" data-entity-2="ent0006" data-link-type="association" data-source-line="23" id="lnk11"><path d="M70.45,230.07 C82.68,248.33 99.39,269.19 119,283 C153.25,307.13 258.76,337.89 329.63,356.75" fill="none" id="Dev-UC20" style="stroke:#181818;stroke-width:1;"/></g><!--link Dev to UC21--><g class="link" data-entity-1="ent0002" data-entity-2="ent0007" data-link-type="association" data-source-line="24" id="lnk12"><path d="M83.56,192 C132.31,192 222.59,192 293.87,192" fill="none" id="Dev-UC21" style="stroke:#181818;stroke-width:1;"/></g><!--link Dev to UC22--><g class="link" data-entity-1="ent0002" data-entity-2="ent0008" data-link-type="association" data-source-line="25" id="lnk13"><path d="M83.62,226.33 C94.21,234.81 106.39,242.91 119,248 C172.04,269.43 235.2,276.85 287.96,278.63" fill="none" id="Dev-UC22" style="stroke:#181818;stroke-width:1;"/></g><!--link Dev to UC23--><g class="link" data-entity-1="ent0002" data-entity-2="ent0009" data-link-type="association" data-source-line="26" id="lnk14"><path d="M83.66,177.84 C94.84,173.67 107.33,169.32 119,166 C182.36,147.94 255.38,133.22 310.75,123.26" fill="none" id="Dev-UC23" style="stroke:#181818;stroke-width:1;"/></g><!--link Dev to UC24--><g class="link" data-entity-1="ent0002" data-entity-2="ent0010" data-link-type="association" data-source-line="27" id="lnk15"><path d="M83.54,156.82 C94.4,146.86 106.75,136.45 119,128 C168.25,94.04 180.82,80.94 239,67 C356.13,38.94 392,42.84 510,67 C587.59,82.89 670.76,123.36 720.29,150.27" fill="none" id="Dev-UC24" style="stroke:#181818;stroke-width:1;"/></g><!--link Git to UC20--><g class="link" data-entity-1="ent0003" data-entity-2="ent0006" data-link-type="dependency" data-source-line="29" id="lnk16"><path d="M89.22,374 C139.29,374 220.11,374 288.87,374" fill="none" id="Git-to-UC20" style="stroke:#181818;stroke-width:1;stroke-dasharray:7,7;"/><polygon fill="#181818" points="294.87,374,285.87,370,289.87,374,285.87,378,294.87,374" style="stroke:#181818;stroke-width:1;"/><text fill="#000000" font-family="sans-serif" font-size="13" lengthAdjust="spacing" textLength="110.938" x="120" y="355.0669">&#171;system trigger&#187;</text><text fill="#000000" font-family="sans-serif" font-size="13" lengthAdjust="spacing" textLength="81.4722" x="134.7329" y="370.1997">Git webhook</text></g><!--link UC20 to UC24--><g class="link" data-entity-1="ent0006" data-entity-2="ent0010" data-link-type="dependency" data-source-line="32" id="lnk17"><path d="M441.1,352.9 C461.87,342.27 487.34,329.1 510,317 C583.85,277.55 663.5598,233.1203 714.3798,204.5503" fill="none" id="UC20-to-UC24" style="stroke:#181818;stroke-width:1;stroke-dasharray:7,7;"/><polygon fill="#181818" points="719.61,201.61,709.8046,202.5337,715.2515,204.0602,713.7249,209.5072,719.61,201.61" style="stroke:#181818;stroke-width:1;"/><text fill="#000000" font-family="sans-serif" font-size="13" lengthAdjust="spacing" textLength="69.7798" x="541" y="260.0669">&#171;includes&#187;</text></g><!--link UC21 to UC20--><g class="link" data-entity-1="ent0007" data-entity-2="ent0006" data-link-type="dependency" data-source-line="33" id="lnk18"><path d="M306.25,180.94 C262.97,181.26 214.63,190.59 185.5,224.5 C134.13,284.3 246.019,330.2962 326.119,354.6262" fill="none" id="UC21-to-UC20" style="stroke:#181818;stroke-width:1;stroke-dasharray:7,7;"/><polygon fill="#181818" points="331.86,356.37,324.411,349.927,327.0758,354.9168,322.086,357.5816,331.86,356.37" style="stroke:#181818;stroke-width:1;"/><text fill="#000000" font-family="sans-serif" font-size="13" lengthAdjust="spacing" textLength="67.958" x="141.5" y="237.5669">&#171;extends&#187;</text></g><!--link UC22 to UC20--><g class="link" data-entity-1="ent0008" data-entity-2="ent0006" data-link-type="dependency" data-source-line="34" id="lnk19"><path d="M398.5,299.8 C398.5,315.43 398.5,329.47 398.5,344.79" fill="none" id="UC22-to-UC20" style="stroke:#181818;stroke-width:1;stroke-dasharray:7,7;"/><polygon fill="#181818" points="398.5,350.79,402.5,341.79,398.5,345.79,394.5,341.79,398.5,350.79" style="stroke:#181818;stroke-width:1;"/><text fill="#000000" font-family="sans-serif" font-size="13" lengthAdjust="spacing" textLength="67.958" x="353.5" y="329.8169">&#171;extends&#187;</text></g><?plantuml-src TP91Jy9048Nl-oicvU09jAMOs9WcM8CcNWm4JrwMTbesBBkRtG4anl_kRYdQ14qlqvtlJT--gSIQW3HOqQm9Ac6n9A4LSnkX3BTy2sxDAtqGge6QIuUzpivXoHt29mDuuEMciNgdga9BRM4mcuOdTBIjq7QdwMGolKtzwVo4MeKMufHzCSPByaJqY7kKsg2DW3lmRp1mGkxHde4dGV1gzLvK7HCE1cPdZKJ6Wd-k6eaGlKYiQtZMZeBvLycfrdORjNPxs2CQgOzRL1HvrxFPNP5wn3FmSy5eMGoJcmnEA4oDaQBa8QVMmB98RYxvE8EbgJZXNtnyoIUP3qNAbGyI-fvEWkHICCvWGTfSBuXRWa8hua9rcNZ5-5AHPl0cyD0R3y_2-LIFPr5OpPVVnXLCGzgEXGKCXwSh_jPnhqvwzRXNfuo5pOn6UQk63ExltT4HRe7ytzQWpVDt5P03hjPQRvZ_wXnbcvDR2-DOg-i6fEq0eKgvgz3bUMZ6q1-E7uIgwbh9Fwrl?></g></svg>