<?plantuml 1.2026.2?><svg xmlns="http://www.w3.org/2000/svg" xmlns:xlink="http://www.w3.org/1999/xlink" contentStyleType="text/css" data-diagram-type="DESCRIPTION" height="610px" preserveAspectRatio="none" style="width:1195px;height:610px;background:#FFFFFF;" version="1.1" viewBox="0 0 1195 610" width="1195px" zoomAndPan="magnify"><defs/><g><!--cluster Kleff Hosting Platform--><g class="cluster" data-qualified-name="Kleff Hosting Platform" data-source-line="14" id="ent0006"><rect fill="none" height="500" rx="2.5" ry="2.5" style="stroke:#181818;stroke-width:1;" width="1037" x="152" y="104.01"/><text fill="#000000" font-family="sans-serif" font-size="14" font-weight="bold" lengthAdjust="spacing" textLength="176.6201" x="582.1899" y="119.0051">Kleff Hosting Platform</text></g><!--cluster Identity & Access--><g class="cluster" data-qualified-name="Kleff Hosting Platform.Identity . Access" data-source-line="15" id="ent0007"><rect fill="#FFCDD2" height="433" rx="2.5" ry="2.5" style="stroke:#181818;stroke-width:1;" width="989" x="176" y="147.01"/><text fill="#000000" font-family="sans-serif" font-size="14" font-weight="bold" lengthAdjust="spacing" textLength="137.5527" x="601.7236" y="162.0051">Identity &amp; Access</text></g><!--entity UC01--><g class="entity" data-qualified-name="Kleff Hosting Platform.Identity . Access.UC01" data-source-line="17" id="ent0008"><ellipse cx="289.9584" cy="319.0017" fill="#FAFAFA" rx="97.9584" ry="21.9917" style="stroke:#455A64;stroke-width:0.5;"/><text fill="#000000" font-family="sans-serif" font-size="14" lengthAdjust="spacing" textLength="171.5479" x="204.1844" y="323.6501">UC-01: Register Account</text></g><!--entity UC02--><g class="entity" data-qualified-name="Kleff Hosting Platform.Identity . Access.UC02" data-source-line="18" id="ent0009"><ellipse cx="637.459" cy="455.1018" fill="#FAFAFA" rx="118.459" ry="26.0918" style="stroke:#455A64;stroke-width:0.5;"/><text fill="#000000" font-family="sans-serif" font-size="14" lengthAdjust="spacing" textLength="216.0635" x="529.4273" y="459.7502">UC-02: Login with OAuth/Email</text></g><!--entity UC03--><g class="entity" data-qualified-name="Kleff Hosting Platform.Identity . Access.UC03" data-source-line="19" id="ent0010"><ellipse cx="637.5462" cy="369.9192" fill="#FAFAFA" rx="107.5462" ry="23.9092" style="stroke:#455A64;stroke-width:0.5;"/><text fill="#000000" font-family="sans-serif" font-size="14" lengthAdjust="spacing" textLength="192.5615" x="541.2655" y="374.5677">UC-03: Manage User Profile</text></g><!--entity UC04--><g class="entity" data-qualified-name="Kleff Hosting Platform.Identity . Access.UC04" data-source-line="20" id="ent0011"><ellipse cx="289.8975" cy="241.1895" fill="#FAFAFA" rx="93.8975" ry="21.1795" style="stroke:#455A64;stroke-width:0.5;"/><text fill="#000000" font-family="sans-serif" font-size="14" lengthAdjust="spacing" textLength="162.5107" x="208.6422" y="245.8379">UC-04: Reset Password</text></g><!--entity UC05--><g class="entity" data-qualified-name="Kleff Hosting Platform.Identity . Access.UC05" data-source-line="21" id="ent0012"><ellipse cx="1017.9824" cy="501.1065" fill="#FAFAFA" rx="130.9824" ry="28.5965" style="stroke:#455A64;stroke-width:0.5;"/><text fill="#000000" font-family="sans-serif" font-size="14" lengthAdjust="spacing" textLength="242.6484" x="896.6582" y="505.7549">UC-05: Manage Sessions &amp; Tokens</text></g><!--entity UC06--><g class="entity" data-qualified-name="Kleff Hosting Platform.Identity . Access.UC06" data-source-line="22" id="ent0013"><ellipse cx="637.5436" cy="540.1187" fill="#FAFAFA" rx="106.0436" ry="23.6087" style="stroke:#455A64;stroke-width:0.5;"/><text fill="#000000" font-family="sans-serif" font-size="14" lengthAdjust="spacing" textLength="189.2939" x="542.8966" y="544.7671">UC-06: Deactivate Account</text></g><!--entity UC07--><g class="entity" data-qualified-name="Kleff Hosting Platform.Identity . Access.UC07" data-source-line="23" id="ent0014"><ellipse cx="637.451" cy="203.8002" fill="#FAFAFA" rx="94.451" ry="21.2902" style="stroke:#455A64;stroke-width:0.5;"/><text fill="#000000" font-family="sans-serif" font-size="14" lengthAdjust="spacing" textLength="163.748" x="555.577" y="208.4486">UC-07: View Audit Logs</text></g><!--entity ValidateToken--><g class="entity" data-qualified-name="Kleff Hosting Platform.Identity . Access.ValidateToken" data-source-line="25" id="ent0015"><ellipse cx="1018.0848" cy="358.127" fill="#FAFAFA" rx="86.0848" ry="19.617" style="stroke:#455A64;stroke-width:0.5;"/><text fill="#000000" font-family="sans-serif" font-size="14" lengthAdjust="spacing" textLength="144.8193" x="945.6751" y="362.7754">Validate OIDC Token</text></g><!--entity AutoCreate--><g class="entity" data-qualified-name="Kleff Hosting Platform.Identity . Access.AutoCreate" data-source-line="26" id="ent0016"><ellipse cx="637.3909" cy="286.0882" fill="#FAFAFA" rx="113.3909" ry="25.0782" style="stroke:#455A64;stroke-width:0.5;"/><text fill="#000000" font-family="sans-serif" font-size="14" lengthAdjust="spacing" textLength="120.7432" x="577.0193" y="280.4011">Auto-Create User</text><text fill="#000000" font-family="sans-serif" font-size="14" lengthAdjust="spacing" textLength="169.8115" x="552.4851" y="296.698">(EnsureUserFromToken)</text></g><!--entity Dev--><g class="entity" data-qualified-name="Dev" data-source-line="9" id="ent0002"><ellipse cx="55.5015" cy="374.51" fill="#C0C0C0" rx="8" ry="8" style="stroke:#181818;stroke-width:0.5;"/><path d="M55.5015,382.51 L55.5015,409.51 M42.5015,390.51 L68.5015,390.51 M55.5015,409.51 L42.5015,424.51 M55.5015,409.51 L68.5015,424.51" fill="none" style="stroke:#181818;stroke-width:0.5;"/><text fill="#000000" font-family="sans-serif" font-size="14" lengthAdjust="spacing" textLength="72.0029" x="19.5" y="439.0051">Developer</text></g><!--entity Owner--><g class="entity" data-qualified-name="Owner" data-source-line="10" id="ent0003"><ellipse cx="55.3076" cy="263.51" fill="#ADD8E6" rx="8" ry="8" style="stroke:#181818;stroke-width:0.5;"/><path d="M55.3076,271.51 L55.3076,298.51 M42.3076,279.51 L68.3076,279.51 M55.3076,298.51 L42.3076,313.51 M55.3076,298.51 L68.3076,313.51" fill="none" style="stroke:#181818;stroke-width:0.5;"/><text fill="#000000" font-family="sans-serif" font-size="14" lengthAdjust="spacing" textLength="98.6152" x="6" y="328.0051">Project Owner</text></g><!--entity Authentik--><g class="entity" data-qualified-name="Authentik" data-source-line="11" id="ent0004"><ellipse cx="1017.8467" cy="20.51" fill="#FFFFE0" rx="8" ry="8" style="stroke:#181818;stroke-width:0.5;"/><path d="M1017.8467,28.51 L1017.8467,55.51 M1004.8467,36.51 L1030.8467,36.51 M1017.8467,55.51 L1004.8467,70.51 M1017.8467,55.51 L1030.8467,70.51" fill="none" style="stroke:#181818;stroke-width:0.5;"/><text fill="#000000" font-family="sans-serif" font-size="14" lengthAdjust="spacing" textLength="93.6934" x="971" y="85.0051">Authentik IdP</text></g><!--link Owner to Dev--><g class="link" data-entity-1="ent0003" data-entity-2="ent0002" data-link-type="extension" data-source-line="13" id="lnk5"><path d="M55.5,331.14 C55.5,342.71 55.5,336.28 55.5,347.85" fill="none" id="Owner-to-Dev" style="stroke:#181818;stroke-width:1;"/><polygon fill="none" points="55.5,365.85,61.5,347.85,49.5,347.85,55.5,365.85" style="stroke:#181818;stroke-width:1;"/></g><!--link Dev to UC02--><g class="link" data-entity-1="ent0002" data-entity-2="ent0009" data-link-type="association" data-source-line="31" id="lnk17"><path d="M91.91,407.12 C176.7,414.58 394.21,433.71 527.27,445.41" fill="none" id="Dev-UC02" style="stroke:#181818;stroke-width:1;"/></g><!--link Dev to UC03--><g class="link" data-entity-1="ent0002" data-entity-2="ent0010" data-link-type="association" data-source-line="32" id="lnk18"><path d="M91.91,401.93 C177.99,396.89 400.87,383.82 533.29,376.06" fill="none" id="Dev-UC03" style="stroke:#181818;stroke-width:1;"/></g><!--link Dev to UC04--><g class="link" data-entity-1="ent0002" data-entity-2="ent0011" data-link-type="association" data-source-line="33" id="lnk19"><path d="M91.2,365.96 C96.03,360.1 100.78,354 105,348.01 C125.3,319.22 116.09,300.51 144,279.01 C161.94,265.19 184.43,256.38 206.31,250.76" fill="none" id="Dev-UC04" style="stroke:#181818;stroke-width:1;"/></g><!--link Dev to UC06--><g class="link" data-entity-1="ent0002" data-entity-2="ent0013" data-link-type="association" data-source-line="34" id="lnk20"><path d="M91.66,420.79 C107.39,427.8 126.35,435.56 144,441.01 C281.93,483.56 447.35,512.47 547.08,527.59" fill="none" id="Dev-UC06" style="stroke:#181818;stroke-width:1;"/></g><!--link Dev to UC07--><g class="link" data-entity-1="ent0002" data-entity-2="ent0014" data-link-type="association" data-source-line="35" id="lnk21"><path d="M91.66,368.1 C96.65,361.75 101.33,354.94 105,348.01 C136.45,288.67 90.73,242.92 144,202.01 C275.39,101.11 490,154.08 586.61,185.81" fill="none" id="Dev-UC07" style="stroke:#181818;stroke-width:1;"/></g><!--link Owner to UC01--><g class="link" data-entity-1="ent0003" data-entity-2="ent0008" data-link-type="association" data-source-line="37" id="lnk22"><path d="M105.24,298.46 C133.2,301.59 169.14,305.61 201.81,309.26" fill="none" id="Owner-UC01" style="stroke:#181818;stroke-width:1;"/></g><!--link UC01 to Authentik--><g class="link" data-entity-1="ent0008" data-entity-2="ent0004" data-link-type="association" data-source-line="40" id="lnk23"><path d="M344.38,300.62 C359,294.63 374.52,287.34 388,279.01 C453.65,238.43 450.24,200.07 519,165.01 C672.56,86.71 879.81,61.03 970.86,53.19" fill="none" id="UC01-Authentik" style="stroke:#181818;stroke-width:1;"/></g><!--link UC02 to Authentik--><g class="link" data-entity-1="ent0009" data-entity-2="ent0004" data-link-type="association" data-source-line="41" id="lnk24"><path d="M721.48,436.6 C734.61,430.4 746.85,422.1 756,411.01 C807.05,349.12 745.17,302.07 786,233.01 C809.01,194.09 910.36,121.68 970.91,80.57" fill="none" id="UC02-Authentik" style="stroke:#181818;stroke-width:1;"/></g><!--link UC04 to Authentik--><g class="link" data-entity-1="ent0011" data-entity-2="ent0004" data-link-type="association" data-source-line="42" id="lnk25"><path d="M302.56,220.06 C321.74,187.61 363.51,126.1 418,99.01 C605.1,6 866,28.52 970.77,42.74" fill="none" id="UC04-Authentik" style="stroke:#181818;stroke-width:1;"/></g><!--link UC01 to UC02--><g class="link" data-entity-1="ent0008" data-entity-2="ent0009" data-link-type="dependency" data-source-line="45" id="lnk26"><path d="M338.02,338.39 C384.03,357.25 456.15,386.56 519,411.01 C537.47,418.19 552.0399,423.729 570.3899,430.589" fill="none" id="UC01-to-UC02" style="stroke:#181818;stroke-width:1;stroke-dasharray:7,7;"/><polygon fill="#181818" points="576.01,432.69,568.9805,425.7917,571.3266,430.9391,566.1791,433.2852,576.01,432.69" style="stroke:#181818;stroke-width:1;"/><text fill="#000000" font-family="sans-serif" font-size="13" lengthAdjust="spacing" textLength="69.7798" x="419" y="368.0769">&#171;includes&#187;</text></g><!--link UC02 to UC05--><g class="link" data-entity-1="ent0009" data-entity-2="ent0012" data-link-type="dependency" data-source-line="46" id="lnk27"><path d="M738.03,468.82 C754.06,470.95 770.48,473.09 786,475.01 C823.15,479.62 857.7373,483.6322 894.3473,487.7322" fill="none" id="UC02-to-UC05" style="stroke:#181818;stroke-width:1;stroke-dasharray:7,7;"/><polygon fill="#181818" points="900.31,488.4,891.8111,483.4232,895.3411,487.8435,890.9207,491.3735,900.31,488.4" style="stroke:#181818;stroke-width:1;"/><text fill="#000000" font-family="sans-serif" font-size="13" lengthAdjust="spacing" textLength="69.7798" x="787" y="471.0769">&#171;includes&#187;</text></g><!--link UC02 to ValidateToken--><g class="link" data-entity-1="ent0009" data-entity-2="ent0015" data-link-type="dependency" data-source-line="47" id="lnk28"><path d="M715.55,435.26 C788.18,416.65 889.4879,390.6899 954.5579,374.0099" fill="none" id="UC02-to-ValidateToken" style="stroke:#181818;stroke-width:1;stroke-dasharray:7,7;"/><polygon fill="#181818" points="960.37,372.52,950.6586,370.8801,955.5266,373.7616,952.6451,378.6295,960.37,372.52" style="stroke:#181818;stroke-width:1;"/><text fill="#000000" font-family="sans-serif" font-size="13" lengthAdjust="spacing" textLength="69.7798" x="787" y="397.0769">&#171;includes&#187;</text></g><!--link UC01 to AutoCreate--><g class="link" data-entity-1="ent0008" data-entity-2="ent0016" data-link-type="dependency" data-source-line="48" id="lnk29"><path d="M380.42,310.47 C427.11,306.01 478.4972,301.1002 527.0972,296.4602" fill="none" id="UC01-to-AutoCreate" style="stroke:#181818;stroke-width:1;stroke-dasharray:7,7;"/><polygon fill="#181818" points="533.07,295.89,523.7306,292.7635,528.0926,296.3652,524.4909,300.7273,533.07,295.89" style="stroke:#181818;stroke-width:1;"/><text fill="#000000" font-family="sans-serif" font-size="13" lengthAdjust="spacing" textLength="69.7798" x="419" y="297.0769">&#171;includes&#187;</text></g><!--link UC06 to UC05--><g class="link" data-entity-1="ent0013" data-entity-2="ent0012" data-link-type="dependency" data-source-line="49" id="lnk30"><path d="M743.5,539.46 C779.57,538.39 820.14,536.23 857,532.01 C879.35,529.45 897.3553,526.6093 919.6853,522.3693" fill="none" id="UC06-to-UC05" style="stroke:#181818;stroke-width:1;stroke-dasharray:7,7;"/><polygon fill="#181818" points="925.58,521.25,915.9918,518.9991,920.6678,522.1827,917.4842,526.8587,925.58,521.25" style="stroke:#181818;stroke-width:1;"/><text fill="#000000" font-family="sans-serif" font-size="13" lengthAdjust="spacing" textLength="69.7798" x="787" y="528.0769">&#171;includes&#187;</text></g><!--link UC03 to ValidateToken--><g class="link" data-entity-1="ent0010" data-entity-2="ent0015" data-link-type="dependency" data-source-line="52" id="lnk31"><path d="M744.18,366.66 C803.68,364.77 870.953,362.6397 926.583,360.8797" fill="none" id="UC03-to-ValidateToken" style="stroke:#181818;stroke-width:1;stroke-dasharray:7,7;"/><polygon fill="#181818" points="932.58,360.69,923.458,356.9766,927.5825,360.8481,923.711,364.9726,932.58,360.69" style="stroke:#181818;stroke-width:1;"/><text fill="#000000" font-family="sans-serif" font-size="13" lengthAdjust="spacing" textLength="69.7798" x="787" y="360.0769">&#171;includes&#187;</text></g><!--link UC07 to ValidateToken--><g class="link" data-entity-1="ent0014" data-entity-2="ent0015" data-link-type="dependency" data-source-line="53" id="lnk32"><path d="M694.17,221.29 C713.85,227.72 736.04,235.32 756,243.01 C837.09,274.25 924.2305,314.1564 974.4305,337.7664" fill="none" id="UC07-to-ValidateToken" style="stroke:#181818;stroke-width:1;stroke-dasharray:7,7;"/><polygon fill="#181818" points="979.86,340.32,973.4182,332.87,975.3354,338.192,970.0134,340.1093,979.86,340.32" style="stroke:#181818;stroke-width:1;"/><text fill="#000000" font-family="sans-serif" font-size="13" lengthAdjust="spacing" textLength="69.7798" x="787" y="254.0769">&#171;includes&#187;</text></g><?plantuml-src ZLJRRjf047ttLuoCrCi3QG034egGA1SLfHKeANdgozOUp9Pb5-qkKDJcjH_GJ-oNTCR6NE94hNXPpvmvCtFc28Lp3zw0bUd2Go8jnbuQ7RYbr6jXnGhSGYHc9tKASw4SdcKs3cFX47u40Ez5l4ojsUYaRvInK1dr-CSPOnEqXsZKRFPQ4KNlSgZLQA4M1Oz1869FY720MrHcZJO4uO2-eEAasg8j05Dhlj6GCDdf0oXxGKNn2b_L1WjaR-CNgBrSmZYPPiXJ94VlKIcp2uASeVgpomq3ra3eL264jmhdS_XWd6S1fahukR6hC5lv33PEcDNluHNquXYT2qc0KNymg1EIe73KAfprgzUr3jnXAfsdfeGdANmstgn_NIkZwntuQ5AfOIVz0YQymxlXIaXLrDJBDOqEV19Qf0WpHqr8ixbKM1GqoWKHZ-JGmrGujwEJ5TYeZ6qUoUzfLNABexq_coLgLrGrorMj3ebBbv5RuV7fsgqoljs11uaxkbaYFIjm96y_aVH1A9amwMGywEU3PD0YdaKkIqX4K-rRv2fMw8j-CzHkOv4_HjQiifgtXMbC3YMEHxRgQngV7VRdrs-WGsZc1IPs0HksMislSdetpjxHsRjrzcuVRLZDZK1jxZ4sEX5s3vcb0uvp_kXZZjHBaUWoGaItk0UfOxL9a7nBDkQhBUJQvPHNLzriPEZ0pSq1vxhTdFsGRBwOlD3v6LJEVvBn6KZhnIuq_F2x9slnln9B-Lyjs_z6_GK0?></g></svg>