<?plantuml 1.2026.2?><svg xmlns="http://www.w3.org/2000/svg" xmlns:xlink="http://www.w3.org/1999/xlink" contentStyleType="text/css" data-diagram-type="DESCRIPTION" height="606px" preserveAspectRatio="none" style="width:1009px;height:606px;background:#FFFFFF;" version="1.1" viewBox="0 0 1009 606" width="1009px" zoomAndPan="magnify"><defs/><g><!--cluster Kleff Hosting Platform--><g class="cluster" data-qualified-name="Kleff Hosting Platform" data-source-line="19" id="ent0009"><rect fill="none" height="502" rx="2.5" ry="2.5" style="stroke:#181818;stroke-width:1;" width="699" x="304.72" y="7"/><text fill="#000000" font-family="sans-serif" font-size="14" font-weight="bold" lengthAdjust="spacing" textLength="176.6201" x="565.9099" y="21.9951">Kleff Hosting Platform</text></g><!--cluster Billing--><g class="cluster" data-qualified-name="Kleff Hosting Platform.Billing" data-source-line="21" id="ent0010"><path d="M331.22,50 L382.0745,50 A3.75,3.75 0 0 1 384.5745,52.5 L391.5745,72.2969 L977.22,72.2969 A2.5,2.5 0 0 1 979.72,74.7969 L979.72,482.5 A2.5,2.5 0 0 1 977.22,485 L331.22,485 A2.5,2.5 0 0 1 328.72,482.5 L328.72,52.5 A2.5,2.5 0 0 1 331.22,50" fill="#B3E5FC" style="stroke:#000000;stroke-width:1.5;"/><line style="stroke:#000000;stroke-width:1.5;" x1="328.72" x2="391.5745" y1="72.2969" y2="72.2969"/><text fill="#000000" font-family="sans-serif" font-size="14" font-weight="bold" lengthAdjust="spacing" textLength="49.8545" x="332.72" y="64.9951">Billing</text></g><!--entity UC40--><g class="entity" data-qualified-name="Kleff Hosting Platform.Billing.UC40" data-source-line="22" id="ent0011"><ellipse cx="461.9856" cy="271.1531" fill="#FAFAFA" rx="108.7656" ry="24.1531" style="stroke:#455A64;stroke-width:0.5;"/><text fill="#000000" font-family="sans-serif" font-size="14" lengthAdjust="spacing" textLength="195.207" x="364.3821" y="275.8016">UC-40: View Bills for Project</text></g><!--entity UC41--><g class="entity" data-qualified-name="Kleff Hosting Platform.Billing.UC41" data-source-line="23" id="ent0012"><ellipse cx="462.2251" cy="193.001" fill="#FAFAFA" rx="80.5051" ry="18.501" style="stroke:#455A64;stroke-width:0.5;"/><text fill="#000000" font-family="sans-serif" font-size="14" lengthAdjust="spacing" textLength="131.8652" x="396.2925" y="197.6495">UC-41: Pay Invoice</text></g><!--entity UC43--><g class="entity" data-qualified-name="Kleff Hosting Platform.Billing.UC43" data-source-line="24" id="ent0013"><ellipse cx="462.2518" cy="104.2064" fill="#FAFAFA" rx="84.0318" ry="19.2064" style="stroke:#455A64;stroke-width:0.5;"/><text fill="#000000" font-family="sans-serif" font-size="14" lengthAdjust="spacing" textLength="140.0889" x="392.2073" y="108.8548">UC-43: View Invoice</text></g><!--entity UC44--><g class="entity" data-qualified-name="Kleff Hosting Platform.Billing.UC44" data-source-line="25" id="ent0014"><ellipse cx="867.9858" cy="270.9532" fill="#FAFAFA" rx="95.2658" ry="21.4532" style="stroke:#455A64;stroke-width:0.5;"/><text fill="#000000" font-family="sans-serif" font-size="14" lengthAdjust="spacing" textLength="165.5664" x="785.2026" y="275.6016">UC-44: View Bill History</text></g><!--entity UC45--><g class="entity" data-qualified-name="Kleff Hosting Platform.Billing.UC45" data-source-line="28" id="ent0015"><ellipse cx="462.2968" cy="356.1154" fill="#FAFAFA" rx="116.0768" ry="25.6154" style="stroke:#455A64;stroke-width:0.5;"/><text fill="#000000" font-family="sans-serif" font-size="14" lengthAdjust="spacing" textLength="210.9639" x="356.8149" y="360.7638">UC-45: Generate Monthly Bills</text></g><!--entity UC46--><g class="entity" data-qualified-name="Kleff Hosting Platform.Billing.UC46" data-source-line="29" id="ent0016"><ellipse cx="462.415" cy="442.939" fill="#FAFAFA" rx="117.695" ry="25.939" style="stroke:#455A64;stroke-width:0.5;"/><text fill="#000000" font-family="sans-serif" font-size="14" lengthAdjust="spacing" textLength="214.4297" x="355.2002" y="447.5874">UC-46: Send Billing Reminders</text></g><!--entity AuthUser--><g class="entity" data-qualified-name="AuthUser" data-source-line="10" id="ent0002"><ellipse cx="82.2215" cy="296.5" fill="#C0C0C0" rx="8" ry="8" style="stroke:#181818;stroke-width:0.5;"/><path d="M82.2215,304.5 L82.2215,331.5 M69.2215,312.5 L95.2215,312.5 M82.2215,331.5 L69.2215,346.5 M82.2215,331.5 L95.2215,346.5" fill="none" style="stroke:#181818;stroke-width:0.5;"/><text fill="#000000" font-family="sans-serif" font-size="14" lengthAdjust="spacing" textLength="72.0029" x="46.22" y="360.9951">Developer</text></g><!--entity Owner--><g class="entity" data-qualified-name="Owner" data-source-line="11" id="ent0003"><ellipse cx="82.0276" cy="74.5" fill="#ADD8E6" rx="8" ry="8" style="stroke:#181818;stroke-width:0.5;"/><path d="M82.0276,82.5 L82.0276,109.5 M69.0276,90.5 L95.0276,90.5 M82.0276,109.5 L69.0276,124.5 M82.0276,109.5 L95.0276,124.5" fill="none" style="stroke:#181818;stroke-width:0.5;"/><text fill="#000000" font-family="sans-serif" font-size="14" lengthAdjust="spacing" textLength="98.6152" x="32.72" y="138.9951">Project Owner</text></g><!--entity Collab--><g class="entity" data-qualified-name="Collab" data-source-line="12" id="ent0004"><ellipse cx="82.3684" cy="185.5" fill="#90EE90" rx="8" ry="8" style="stroke:#181818;stroke-width:0.5;"/><path d="M82.3684,193.5 L82.3684,220.5 M69.3684,201.5 L95.3684,201.5 M82.3684,220.5 L69.3684,235.5 M82.3684,220.5 L95.3684,235.5" fill="none" style="stroke:#181818;stroke-width:0.5;"/><text fill="#000000" font-family="sans-serif" font-size="14" lengthAdjust="spacing" textLength="86.2969" x="39.22" y="249.9951">Collaborator</text></g><!--entity Payment--><g class="entity" data-qualified-name="Payment" data-source-line="13" id="ent0005"><ellipse cx="867.9807" cy="533.5" fill="#008000" rx="8" ry="8" style="stroke:#181818;stroke-width:0.5;"/><path d="M867.9807,541.5 L867.9807,568.5 M854.9807,549.5 L880.9807,549.5 M867.9807,568.5 L854.9807,583.5 M867.9807,568.5 L880.9807,583.5" fill="none" style="stroke:#181818;stroke-width:0.5;"/><text fill="#000000" font-family="sans-serif" font-size="14" lengthAdjust="spacing" textLength="41.5215" x="847.22" y="597.9951">Stripe</text></g><!--entity TimeActor--><g class="entity" data-qualified-name="TimeActor" data-source-line="14" id="ent0006"><ellipse cx="82.0662" cy="408.5" fill="#808080" rx="8" ry="8" style="stroke:#181818;stroke-width:0.5;"/><path d="M82.0662,416.5 L82.0662,443.5 M69.0662,424.5 L95.0662,424.5 M82.0662,443.5 L69.0662,458.5 M82.0662,443.5 L95.0662,458.5" fill="none" style="stroke:#181818;stroke-width:0.5;"/><text fill="#000000" font-family="sans-serif" font-size="14" lengthAdjust="spacing" textLength="34.6924" x="64.72" y="472.9951">Time</text></g><!--link Owner to AuthUser--><g class="link" data-entity-1="ent0003" data-entity-2="ent0002" data-link-type="extension" data-source-line="16" id="lnk7"><path d="M38.98,142.15 C30.25,152.33 22.34,164.02 17.72,176.5 C6,208.18 6,220.82 17.72,252.5 C23.61,268.42 22.354,270.0591 33.734,282.0591" fill="none" id="Owner-to-AuthUser" style="stroke:#181818;stroke-width:1;"/><polygon fill="none" points="46.12,295.12,38.0876,277.9305,29.3803,286.1878,46.12,295.12" style="stroke:#181818;stroke-width:1;"/></g><!--link Collab to AuthUser--><g class="link" data-entity-1="ent0004" data-entity-2="ent0002" data-link-type="extension" data-source-line="17" id="lnk8"><path d="M82.22,253.13 C82.22,264.7 82.22,258.27 82.22,269.84" fill="none" id="Collab-to-AuthUser" style="stroke:#181818;stroke-width:1;"/><polygon fill="none" points="82.22,287.84,88.22,269.84,76.22,269.84,82.22,287.84" style="stroke:#181818;stroke-width:1;"/></g><!--link AuthUser to UC40--><g class="link" data-entity-1="ent0002" data-entity-2="ent0011" data-link-type="association" data-source-line="34" id="lnk17"><path d="M118.44,320.88 C175.53,312.57 290.03,295.91 370.96,284.13" fill="none" id="AuthUser-UC40" style="stroke:#181818;stroke-width:1;"/></g><!--link Owner to UC41--><g class="link" data-entity-1="ent0003" data-entity-2="ent0012" data-link-type="association" data-source-line="36" id="lnk18"><path d="M131.86,115.45 C202.05,131.98 331.4,162.43 405.39,179.86" fill="none" id="Owner-UC41" style="stroke:#181818;stroke-width:1;"/></g><!--link Owner to UC43--><g class="link" data-entity-1="ent0003" data-entity-2="ent0013" data-link-type="association" data-source-line="37" id="lnk19"><path d="M131.86,104 C194.07,104 302.77,104 378.19,104" fill="none" id="Owner-UC43" style="stroke:#181818;stroke-width:1;"/></g><!--link TimeActor to UC45--><g class="link" data-entity-1="ent0006" data-entity-2="ent0015" data-link-type="dependency" data-source-line="40" id="lnk20"><path d="M99.8,428.44 C115.31,419.92 139.37,407.79 161.72,401 C223.6,382.21 289.1977,371.7612 346.8477,365.2712" fill="none" id="TimeActor-to-UC45" style="stroke:#181818;stroke-width:1;stroke-dasharray:7,7;"/><polygon fill="#181818" points="352.81,364.6,343.419,361.6319,347.8414,365.1593,344.314,369.5817,352.81,364.6" style="stroke:#181818;stroke-width:1;"/><text fill="#000000" font-family="sans-serif" font-size="13" lengthAdjust="spacing" textLength="110.938" x="170.22" y="356.0669">&#171;system trigger&#187;</text><text fill="#000000" font-family="sans-serif" font-size="13" lengthAdjust="spacing" textLength="89.7813" x="180.7984" y="371.1997">Monthly cycle</text></g><!--link TimeActor to UC46--><g class="link" data-entity-1="ent0006" data-entity-2="ent0016" data-link-type="dependency" data-source-line="41" id="lnk21"><path d="M99.95,438.22 C142.17,438.78 249.9905,440.2109 338.7105,441.3809" fill="none" id="TimeActor-to-UC46" style="stroke:#181818;stroke-width:1;stroke-dasharray:7,7;"/><polygon fill="#181818" points="344.71,441.46,335.7635,437.3417,339.7104,441.3941,335.658,445.341,344.71,441.46" style="stroke:#181818;stroke-width:1;"/><text fill="#000000" font-family="sans-serif" font-size="13" lengthAdjust="spacing" textLength="110.938" x="170.0166" y="421.0669">&#171;system trigger&#187;</text><text fill="#000000" font-family="sans-serif" font-size="13" lengthAdjust="spacing" textLength="125.5313" x="162.72" y="436.1997">Reminder schedule</text></g><!--link UC41 to Payment--><g class="link" data-entity-1="ent0012" data-entity-2="ent0005" data-link-type="dependency" data-source-line="44" id="lnk22"><path d="M531.04,202.77 C548.64,208.09 566.37,216.31 579.72,229 C607.85,255.73 589.38,277.95 609.72,311 C665.26,401.24 695.48,412.46 772.72,485 C797.22,508.01 822.7364,528.6432 842.3164,543.8932" fill="none" id="UC41-to-Payment" style="stroke:#181818;stroke-width:1;stroke-dasharray:7,7;"/><polygon fill="#181818" points="847.05,547.58,842.4074,538.894,843.1053,544.5076,837.4917,545.2055,847.05,547.58" style="stroke:#181818;stroke-width:1;"/><text fill="#000000" font-family="sans-serif" font-size="13" lengthAdjust="spacing" textLength="110.938" x="621.2381" y="292.0669">&#171;system trigger&#187;</text><text fill="#000000" font-family="sans-serif" font-size="13" lengthAdjust="spacing" textLength="131.9741" x="610.72" y="307.1997">Payment processing</text></g><!--link UC43 to UC41--><g class="link" data-entity-1="ent0013" data-entity-2="ent0012" data-link-type="dependency" data-source-line="47" id="lnk23"><path d="M462.22,123.15 C462.22,138.23 462.22,153.12 462.22,168.13" fill="none" id="UC43-to-UC41" style="stroke:#181818;stroke-width:1;stroke-dasharray:7,7;"/><polygon fill="#181818" points="462.22,174.13,466.22,165.13,462.22,169.13,458.22,165.13,462.22,174.13" style="stroke:#181818;stroke-width:1;"/><text fill="#000000" font-family="sans-serif" font-size="13" lengthAdjust="spacing" textLength="67.958" x="417.22" y="153.3169">&#171;extends&#187;</text></g><!--link UC40 to UC44--><g class="link" data-entity-1="ent0011" data-entity-2="ent0014" data-link-type="dependency" data-source-line="50" id="lnk24"><path d="M571.48,271 C634.12,271 706.21,271 766.42,271" fill="none" id="UC40-to-UC44" style="stroke:#181818;stroke-width:1;stroke-dasharray:7,7;"/><polygon fill="#181818" points="772.42,271,763.42,267,767.42,271,763.42,275,772.42,271" style="stroke:#181818;stroke-width:1;"/><text fill="#000000" font-family="sans-serif" font-size="13" lengthAdjust="spacing" textLength="69.7798" x="641.72" y="267.0669">&#171;includes&#187;</text></g><?plantuml-src TPDDSzem48Rl_XKxSCY930o60vComrUQJ5lA16Xxw4NOYwr6bXX9a7hI_FUkRCiGtC95bfvtFrwj1EujM0MQ9wc5c6kCB5SoCCzS7fXc6PYKnUg5omJsJ1YyE3aQZ9X1U0q0fYnwJhGwodYcXDBGlf-ulpjHEaPTxOQ3mMGOqkvJYMg96dfXy1O4D_21VZ29hDAcM0VChQ4rnnCATK3T0cPWShJfrf2iRRWueVRKIgjVL3nyVP4LMQoWBLnhEt54Jr8jWksKPlHLWEL6HIOQKNfqRJK_O06jM9wXjD1-1snuLXwxHL6x0rWU16NspfznNN5GvNct5pZ7cKm4GkkJmFqU7fInpkwLO7QlTDOYWycn0pdC4gAcN0WwRq5xsbyCxcU5_r3VHcixwuJT4NpZ-0AEDK1HeBAdg7Kx2xjDJM_aUeH7UL8yGW_scc2_2dv5zfjaU546F713zkGU3uE2lu7buhkpGsNCyWWi-TZPKOGOTcMZBYIucAQPO322ZqW-CulmHKcRYhpisMSPD3N34QnHnb3v24-OSKaZMck6f7cx7ad2w3xeQPYK7whvh4UnqoazzPVUAPsx_EhNuJRd3jUviPZ1XbvVWdxgpvDqUpikUe0HtDsPahKbEnx_bBxXA8y4DcN3_yXyls2Y5ECZINrbYzyMjMJYggwoBDTH4Te_X7z7zwS7hI8qXWm-X_-nMIpdwpfS7yf2UqKefEGoDkDnpJykPv-tyyLPqFMjXOM2oqWSOtIIlm00?></g></svg>