<?plantuml 1.2026.2?><svg xmlns="http://www.w3.org/2000/svg" xmlns:xlink="http://www.w3.org/1999/xlink" contentStyleType="text/css" data-diagram-type="DESCRIPTION" height="351px" preserveAspectRatio="none" style="width:1054px;height:351px;background:#FFFFFF;" version="1.1" viewBox="0 0 1054 351" width="1054px" zoomAndPan="magnify"><defs/><g><!--cluster Kleff Hosting Platform--><g class="cluster" data-qualified-name="Kleff Hosting Platform" data-source-line="12" id="ent0003"><rect fill="none" height="338" rx="2.5" ry="2.5" style="stroke:#181818;stroke-width:1;" width="311" x="205" y="7"/><text fill="#000000" font-family="sans-serif" font-size="14" font-weight="bold" lengthAdjust="spacing" textLength="176.6201" x="272.1899" y="21.9951">Kleff Hosting Platform</text></g><!--cluster Platform Admin--><g class="cluster" data-qualified-name="Kleff Hosting Platform.Platform Admin" data-source-line="14" id="ent0004"><path d="M231.5,50 L355.9844,50 A3.75,3.75 0 0 1 358.4844,52.5 L365.4844,72.2969 L489.5,72.2969 A2.5,2.5 0 0 1 492,74.7969 L492,318.5 A2.5,2.5 0 0 1 489.5,321 L231.5,321 A2.5,2.5 0 0 1 229,318.5 L229,52.5 A2.5,2.5 0 0 1 231.5,50" fill="#FFE0B2" style="stroke:#000000;stroke-width:1.5;"/><line style="stroke:#000000;stroke-width:1.5;" x1="229" x2="365.4844" y1="72.2969" y2="72.2969"/><text fill="#000000" font-family="sans-serif" font-size="14" font-weight="bold" lengthAdjust="spacing" textLength="123.4844" x="233" y="64.9951">Platform Admin</text></g><!--entity UC50--><g class="entity" data-qualified-name="Kleff Hosting Platform.Platform Admin.UC50" data-source-line="15" id="ent0005"><ellipse cx="360.4361" cy="109.1872" fill="#FAFAFA" rx="106.4361" ry="23.6872" style="stroke:#455A64;stroke-width:0.5;"/><text fill="#000000" font-family="sans-serif" font-size="14" lengthAdjust="spacing" textLength="190.1484" x="265.3619" y="113.8357">UC-50: View Cluster Health</text></g><!--entity UC51--><g class="entity" data-qualified-name="Kleff Hosting Platform.Platform Admin.UC51" data-source-line="16" id="ent0006"><ellipse cx="360.4796" cy="193.0959" fill="#FAFAFA" rx="113.4796" ry="25.0959" style="stroke:#455A64;stroke-width:0.5;"/><text fill="#000000" font-family="sans-serif" font-size="14" lengthAdjust="spacing" textLength="205.3857" x="257.7868" y="197.7444">UC-51: Manage Service Plans</text></g><!--entity UC52--><g class="entity" data-qualified-name="Kleff Hosting Platform.Platform Admin.UC52" data-source-line="17" id="ent0007"><ellipse cx="360.6051" cy="279.021" fill="#FAFAFA" rx="115.6051" ry="25.521" style="stroke:#455A64;stroke-width:0.5;"/><text fill="#000000" font-family="sans-serif" font-size="14" lengthAdjust="spacing" textLength="209.9521" x="255.629" y="283.6695">UC-52: Suspend User Account</text></g><!--entity Admin--><g class="entity" data-qualified-name="Admin" data-source-line="10" id="ent0002"><ellipse cx="82.1694" cy="163.5" fill="#FFA500" rx="8" ry="8" style="stroke:#181818;stroke-width:0.5;"/><path d="M82.1694,171.5 L82.1694,198.5 M69.1694,179.5 L95.1694,179.5 M82.1694,198.5 L69.1694,213.5 M82.1694,198.5 L95.1694,213.5" fill="none" style="stroke:#181818;stroke-width:0.5;"/><text fill="#000000" font-family="sans-serif" font-size="14" lengthAdjust="spacing" textLength="152.3389" x="6" y="227.9951">System Administrator</text></g><!--entity UC32--><g class="entity" data-qualified-name="UC32" data-source-line="27" id="ent0011"><ellipse cx="1028.9185" cy="79.5" fill="#F1F1F1" rx="8" ry="8" style="stroke:#181818;stroke-width:0.5;"/><path d="M1028.9185,87.5 L1028.9185,114.5 M1015.9185,95.5 L1041.9185,95.5 M1028.9185,114.5 L1015.9185,129.5 M1028.9185,114.5 L1041.9185,129.5" fill="none" style="stroke:#181818;stroke-width:0.5;"/><text fill="#000000" font-family="sans-serif" font-size="14" lengthAdjust="spacing" textLength="37.8369" x="1010" y="143.9951">UC32</text></g><!--entity UC05--><g class="entity" data-qualified-name="UC05" data-source-line="28" id="ent0013"><ellipse cx="1028.9185" cy="249.5" fill="#F1F1F1" rx="8" ry="8" style="stroke:#181818;stroke-width:0.5;"/><path d="M1028.9185,257.5 L1028.9185,284.5 M1015.9185,265.5 L1041.9185,265.5 M1028.9185,284.5 L1015.9185,299.5 M1028.9185,284.5 L1041.9185,299.5" fill="none" style="stroke:#181818;stroke-width:0.5;"/><text fill="#000000" font-family="sans-serif" font-size="14" lengthAdjust="spacing" textLength="37.8369" x="1010" y="313.9951">UC05</text></g><!--link Admin to UC50--><g class="link" data-entity-1="ent0002" data-entity-2="ent0005" data-link-type="association" data-source-line="22" id="lnk8"><path d="M158,163.33 C170.92,158.62 184.28,153.99 197,150 C225.6,141.03 257.49,132.64 285.39,125.82" fill="none" id="Admin-UC50" style="stroke:#181818;stroke-width:1;"/></g><!--link Admin to UC51--><g class="link" data-entity-1="ent0002" data-entity-2="ent0006" data-link-type="association" data-source-line="23" id="lnk9"><path d="M158.19,193 C185.54,193 217.07,193 246.95,193" fill="none" id="Admin-UC51" style="stroke:#181818;stroke-width:1;"/></g><!--link Admin to UC52--><g class="link" data-entity-1="ent0002" data-entity-2="ent0007" data-link-type="association" data-source-line="24" id="lnk10"><path d="M158.04,222.54 C170.96,227.27 184.31,231.94 197,236 C224.52,244.8 255.05,253.23 282.16,260.25" fill="none" id="Admin-UC52" style="stroke:#181818;stroke-width:1;"/></g><!--link UC50 to UC32--><g class="link" data-entity-1="ent0005" data-entity-2="ent0011" data-link-type="dependency" data-source-line="27" id="lnk12"><path d="M467.11,109 C630.27,109 926.88,109 1003.83,109" fill="none" id="UC50-to-UC32" style="stroke:#181818;stroke-width:1;stroke-dasharray:7,7;"/><polygon fill="#181818" points="1009.83,109,1000.83,105,1004.83,109,1000.83,113,1009.83,109" style="stroke:#181818;stroke-width:1;"/><text fill="#000000" font-family="sans-serif" font-size="13" lengthAdjust="spacing" textLength="390.0381" x="561" y="105.0669">&#171;includes&#187;  ' from Observability BC (View Resource Metrics)</text></g><!--link UC52 to UC05--><g class="link" data-entity-1="ent0007" data-entity-2="ent0013" data-link-type="dependency" data-source-line="28" id="lnk14"><path d="M476.08,279 C641.14,279 928.36,279 1003.87,279" fill="none" id="UC52-to-UC05" style="stroke:#181818;stroke-width:1;stroke-dasharray:7,7;"/><polygon fill="#181818" points="1009.87,279,1000.87,275,1004.87,279,1000.87,283,1009.87,279" style="stroke:#181818;stroke-width:1;"/><text fill="#000000" font-family="sans-serif" font-size="13" lengthAdjust="spacing" textLength="446.7607" x="533" y="275.0669">&#171;includes&#187;  ' from Identity &amp; Access BC (Manage Sessions &amp; Tokens)</text></g><?plantuml-src TLBHRjim37ptLn0kiBR0KYHUl8UW2-1uBLfitOPasRigquuGMGf8kLrHzDz7sKdGhPZzGXrrn-FP5ki0mGEPPXEWCeGw6EyItXgtKwHQu8sg_ADn3TJAChxgT8nQCS9p0h1GUjkGxrnLUki9JgwB-CQEfmffZqxplFWu5NGvN2M719Dfyf8af_197YXqyCHzdQXOGxfwue0j55LhdE50Ij0K50y8d7XIhi4aYTwbiWZf5ujr3JUUGpJ-mwfGUsfJiIgpT-9LDNBhW0z2gPY-lXeliduXEAwNhijHFfx1BuEFKDfEp13SeB9XqxjOb_duBM4oWplbufWLqeFH65quFZ0cRndP35OTxz1Li6OPKMWj8OK38nF6oxz1mH9b1_bWl36xVMf3AgFHOEprQVBNAJjAbUIPHwLt0Ny7kFrMVbr_lbh1cVPjYm9Mxw4ctuANlyGuPS-7GL4VBYxc8lOXWnbSNXgdRLSXp-S0fmFd-xtiyg3kZJNX2HObdFKvBf5zHvBA7GOoci-ZMhPN6-V_Kxkjn4yKUXVZGUPUyHWqSun2cZ_z5fs8_W40?></g></svg>