<?plantuml 1.2026.2?><svg xmlns="http://www.w3.org/2000/svg" xmlns:xlink="http://www.w3.org/1999/xlink" contentStyleType="text/css" data-diagram-type="DESCRIPTION" height="540px" preserveAspectRatio="none" style="width:848px;height:540px;background:#FFFFFF;" version="1.1" viewBox="0 0 848 540" width="848px" zoomAndPan="magnify"><defs/><g><!--cluster Kleff Hosting Platform--><g class="cluster" data-qualified-name="Kleff Hosting Platform" data-source-line="17" id="ent0007"><rect fill="none" height="520" rx="2.5" ry="2.5" style="stroke:#181818;stroke-width:1;" width="664" x="178.72" y="14.68"/><text fill="#000000" font-family="sans-serif" font-size="14" font-weight="bold" lengthAdjust="spacing" textLength="176.6201" x="422.4099" y="29.6751">Kleff Hosting Platform</text></g><!--cluster Observability--><g class="cluster" data-qualified-name="Kleff Hosting Platform.Observability" data-source-line="19" id="ent0008"><path d="M205.22,57.68 L311.6848,57.68 A3.75,3.75 0 0 1 314.1848,60.18 L321.1848,79.9769 L816.22,79.9769 A2.5,2.5 0 0 1 818.72,82.4769 L818.72,508.18 A2.5,2.5 0 0 1 816.22,510.68 L205.22,510.68 A2.5,2.5 0 0 1 202.72,508.18 L202.72,60.18 A2.5,2.5 0 0 1 205.22,57.68" fill="#FFCCBC" style="stroke:#000000;stroke-width:1.5;"/><line style="stroke:#000000;stroke-width:1.5;" x1="202.72" x2="321.1848" y1="79.9769" y2="79.9769"/><text fill="#000000" font-family="sans-serif" font-size="14" font-weight="bold" lengthAdjust="spacing" textLength="105.4648" x="206.72" y="72.6751">Observability</text></g><!--entity UC30--><g class="entity" data-qualified-name="Kleff Hosting Platform.Observability.UC30" data-source-line="20" id="ent0009"><ellipse cx="686.6393" cy="204.7639" fill="#FAFAFA" rx="113.4193" ry="25.0839" style="stroke:#455A64;stroke-width:0.5;"/><text fill="#000000" font-family="sans-serif" font-size="14" lengthAdjust="spacing" textLength="205.2559" x="584.0114" y="209.4123">UC-30: View Application Logs</text></g><!--entity UC31--><g class="entity" data-qualified-name="Kleff Hosting Platform.Observability.UC31" data-source-line="21" id="ent0010"><ellipse cx="686.5405" cy="303.7441" fill="#FAFAFA" rx="100.8205" ry="22.5641" style="stroke:#455A64;stroke-width:0.5;"/><text fill="#000000" font-family="sans-serif" font-size="14" lengthAdjust="spacing" textLength="177.8643" x="597.6084" y="308.3925">UC-31: Filter/Search Logs</text></g><!--entity UC32--><g class="entity" data-qualified-name="Kleff Hosting Platform.Observability.UC32" data-source-line="22" id="ent0011"><ellipse cx="686.5545" cy="118.7469" fill="#FAFAFA" rx="115.8345" ry="25.5669" style="stroke:#455A64;stroke-width:0.5;"/><text fill="#000000" font-family="sans-serif" font-size="14" lengthAdjust="spacing" textLength="210.4443" x="581.3324" y="123.3953">UC-32: View Resource Metrics</text></g><!--entity UC33--><g class="entity" data-qualified-name="Kleff Hosting Platform.Observability.UC33" data-source-line="23" id="ent0012"><ellipse cx="329.438" cy="127.7236" fill="#FAFAFA" rx="110.718" ry="24.5436" style="stroke:#455A64;stroke-width:0.5;"/><text fill="#000000" font-family="sans-serif" font-size="14" lengthAdjust="spacing" textLength="199.4316" x="229.7222" y="132.372">UC-33: Set Monitoring Alerts</text></g><!--entity UC34--><g class="entity" data-qualified-name="Kleff Hosting Platform.Observability.UC34" data-source-line="24" id="ent0013"><ellipse cx="686.7072" cy="384.4774" fill="#FAFAFA" rx="101.9872" ry="22.7974" style="stroke:#455A64;stroke-width:0.5;"/><text fill="#000000" font-family="sans-serif" font-size="14" lengthAdjust="spacing" textLength="180.4277" x="596.4933" y="389.1259">UC-34: Download Reports</text></g><!--entity UC35--><g class="entity" data-qualified-name="Kleff Hosting Platform.Observability.UC35" data-source-line="25" id="ent0014"><ellipse cx="686.5703" cy="468.5501" fill="#FAFAFA" rx="114.8503" ry="25.3701" style="stroke:#455A64;stroke-width:0.5;"/><text fill="#000000" font-family="sans-serif" font-size="14" lengthAdjust="spacing" textLength="208.332" x="582.4043" y="473.1985">UC-35: View Error Summaries</text></g><!--entity AuthUser--><g class="entity" data-qualified-name="AuthUser" data-source-line="10" id="ent0002"><ellipse cx="82.2215" cy="273.18" fill="#C0C0C0" rx="8" ry="8" style="stroke:#181818;stroke-width:0.5;"/><path d="M82.2215,281.18 L82.2215,308.18 M69.2215,289.18 L95.2215,289.18 M82.2215,308.18 L69.2215,323.18 M82.2215,308.18 L95.2215,323.18" fill="none" style="stroke:#181818;stroke-width:0.5;"/><text fill="#000000" font-family="sans-serif" font-size="14" lengthAdjust="spacing" textLength="72.0029" x="46.22" y="337.6751">Developer</text></g><!--entity Owner--><g class="entity" data-qualified-name="Owner" data-source-line="11" id="ent0003"><ellipse cx="82.0276" cy="162.18" fill="#ADD8E6" rx="8" ry="8" style="stroke:#181818;stroke-width:0.5;"/><path d="M82.0276,170.18 L82.0276,197.18 M69.0276,178.18 L95.0276,178.18 M82.0276,197.18 L69.0276,212.18 M82.0276,197.18 L95.0276,212.18" fill="none" style="stroke:#181818;stroke-width:0.5;"/><text fill="#000000" font-family="sans-serif" font-size="14" lengthAdjust="spacing" textLength="98.6152" x="32.72" y="226.6751">Project Owner</text></g><!--entity Collab--><g class="entity" data-qualified-name="Collab" data-source-line="12" id="ent0004"><ellipse cx="82.3684" cy="30.18" fill="#90EE90" rx="8" ry="8" style="stroke:#181818;stroke-width:0.5;"/><path d="M82.3684,38.18 L82.3684,65.18 M69.3684,46.18 L95.3684,46.18 M82.3684,65.18 L69.3684,80.18 M82.3684,65.18 L95.3684,80.18" fill="none" style="stroke:#181818;stroke-width:0.5;"/><text fill="#000000" font-family="sans-serif" font-size="14" lengthAdjust="spacing" textLength="86.2969" x="39.22" y="94.6751">Collaborator</text></g><!--link Owner to AuthUser--><g class="link" data-entity-1="ent0003" data-entity-2="ent0002" data-link-type="extension" data-source-line="14" id="lnk5"><path d="M82.22,229.81 C82.22,241.38 82.22,234.95 82.22,246.52" fill="none" id="Owner-to-AuthUser" style="stroke:#181818;stroke-width:1;"/><polygon fill="none" points="82.22,264.52,88.22,246.52,76.22,246.52,82.22,264.52" style="stroke:#181818;stroke-width:1;"/></g><!--link Collab to AuthUser--><g class="link" data-entity-1="ent0004" data-entity-2="ent0002" data-link-type="extension" data-source-line="15" id="lnk6"><path d="M48.14,97.81 C36.06,113.76 23.93,133.22 17.72,153.18 C7.67,185.43 6,197.5 17.72,229.18 C23.61,245.1 22.3597,246.7337 33.7297,258.7337" fill="none" id="Collab-to-AuthUser" style="stroke:#181818;stroke-width:1;"/><polygon fill="none" points="46.11,271.8,38.0851,254.6069,29.3743,262.8605,46.11,271.8" style="stroke:#181818;stroke-width:1;"/></g><!--link AuthUser to UC30--><g class="link" data-entity-1="ent0002" data-entity-2="ent0009" data-link-type="association" data-source-line="30" id="lnk15"><path d="M118.46,290.23 C131.88,285.82 147.39,281.1 161.72,277.68 C304.65,243.51 473.6,223.54 580.22,213.36" fill="none" id="AuthUser-UC30" style="stroke:#181818;stroke-width:1;"/></g><!--link AuthUser to UC31--><g class="link" data-entity-1="ent0002" data-entity-2="ent0010" data-link-type="association" data-source-line="31" id="lnk16"><path d="M118.66,302.74 C208.58,302.89 448.2,303.29 585.45,303.51" fill="none" id="AuthUser-UC31" style="stroke:#181818;stroke-width:1;"/></g><!--link AuthUser to UC33--><g class="link" data-entity-1="ent0002" data-entity-2="ent0012" data-link-type="association" data-source-line="32" id="lnk17"><path d="M118.43,264.98 C123.19,259.07 127.78,252.86 131.72,246.68 C149.25,219.17 137.32,201.35 161.72,179.68 C182.77,160.98 210.5,149 237.28,141.33" fill="none" id="AuthUser-UC33" style="stroke:#181818;stroke-width:1;"/></g><!--link AuthUser to UC34--><g class="link" data-entity-1="ent0002" data-entity-2="ent0013" data-link-type="association" data-source-line="33" id="lnk18"><path d="M118.66,307.5 C211.61,320.15 464.5,354.57 598.96,372.87" fill="none" id="AuthUser-UC34" style="stroke:#181818;stroke-width:1;"/></g><!--link AuthUser to UC35--><g class="link" data-entity-1="ent0002" data-entity-2="ent0014" data-link-type="association" data-source-line="34" id="lnk19"><path d="M118.23,329.19 C133.63,339.74 152.37,351.14 170.72,358.68 C307.29,414.8 476.51,443.89 582.83,457.72" fill="none" id="AuthUser-UC35" style="stroke:#181818;stroke-width:1;"/></g><!--link Collab to UC30--><g class="link" data-entity-1="ent0004" data-entity-2="ent0009" data-link-type="association" data-source-line="36" id="lnk20"><path d="M125.29,50.03 C212.15,32.68 413.74,6 540.72,97.68 C566.19,116.07 547.63,140.38 570.72,161.68 C582,172.09 596.03,180.04 610.37,186.1" fill="none" id="Collab-UC30" style="stroke:#181818;stroke-width:1;"/></g><!--link UC31 to UC30--><g class="link" data-entity-1="ent0010" data-entity-2="ent0009" data-link-type="dependency" data-source-line="39" id="lnk21"><path d="M686.72,280.72 C686.72,265.52 686.72,251.59 686.72,235.95" fill="none" id="UC31-to-UC30" style="stroke:#181818;stroke-width:1;stroke-dasharray:7,7;"/><polygon fill="#181818" points="686.72,229.95,682.72,238.95,686.72,234.95,690.72,238.95,686.72,229.95" style="stroke:#181818;stroke-width:1;"/><text fill="#000000" font-family="sans-serif" font-size="13" lengthAdjust="spacing" textLength="67.958" x="641.72" y="259.9969">&#171;extends&#187;</text></g><!--link UC34 to UC30--><g class="link" data-entity-1="ent0013" data-entity-2="ent0009" data-link-type="dependency" data-source-line="40" id="lnk22"><path d="M618.28,367.56 C601.82,361.58 584.91,353.77 570.72,343.68 C520.53,308.01 451.99,275.37 492.72,229.18 C516.18,202.57 546.814,193.8201 581.954,192.5301" fill="none" id="UC34-to-UC30" style="stroke:#181818;stroke-width:1;stroke-dasharray:7,7;"/><polygon fill="#181818" points="587.95,192.31,578.8093,188.6429,582.9534,192.4934,579.1028,196.6375,587.95,192.31" style="stroke:#181818;stroke-width:1;"/><text fill="#000000" font-family="sans-serif" font-size="13" lengthAdjust="spacing" textLength="67.958" x="471.72" y="242.2469">&#171;extends&#187;</text></g><!--link UC34 to UC32--><g class="link" data-entity-1="ent0013" data-entity-2="ent0011" data-link-type="dependency" data-source-line="41" id="lnk23"><path d="M619.99,367.03 C573.01,350.41 514.71,320.09 492.72,268.18 C465.92,204.95 544.4782,163.9859 610.3082,140.8959" fill="none" id="UC34-to-UC32" style="stroke:#181818;stroke-width:1;stroke-dasharray:7,7;"/><polygon fill="#181818" points="615.97,138.91,606.1533,138.1143,611.2518,140.5649,608.8012,145.6634,615.97,138.91" style="stroke:#181818;stroke-width:1;"/><text fill="#000000" font-family="sans-serif" font-size="13" lengthAdjust="spacing" textLength="67.958" x="471.72" y="264.2469">&#171;extends&#187;</text></g><!--link UC35 to UC30--><g class="link" data-entity-1="ent0014" data-entity-2="ent0009" data-link-type="dependency" data-source-line="42" id="lnk24"><path d="M611.08,449.32 C596.67,443.32 582.44,435.59 570.72,425.68 C512.57,376.54 448.75,335.33 492.72,273.18 C514.27,242.71 544.7635,227.2494 580.1535,217.7894" fill="none" id="UC35-to-UC30" style="stroke:#181818;stroke-width:1;stroke-dasharray:7,7;"/><polygon fill="#181818" points="585.95,216.24,576.2223,214.6998,581.1196,217.5312,578.2882,222.4285,585.95,216.24" style="stroke:#181818;stroke-width:1;"/><text fill="#000000" font-family="sans-serif" font-size="13" lengthAdjust="spacing" textLength="67.958" x="471.72" y="286.2469">&#171;extends&#187;</text></g><!--link UC33 to UC32--><g class="link" data-entity-1="ent0012" data-entity-2="ent0011" data-link-type="dependency" data-source-line="45" id="lnk25"><path d="M439.29,124.92 C481.13,123.86 522.9719,122.8016 565.3019,121.7316" fill="none" id="UC33-to-UC32" style="stroke:#181818;stroke-width:1;stroke-dasharray:7,7;"/><polygon fill="#181818" points="571.3,121.58,562.2018,117.8087,566.3016,121.7063,562.404,125.8061,571.3,121.58" style="stroke:#181818;stroke-width:1;"/><text fill="#000000" font-family="sans-serif" font-size="13" lengthAdjust="spacing" textLength="69.7798" x="470.72" y="118.7469">&#171;includes&#187;</text></g><?plantuml-src XLBBRjim4BppAnRoeIUdiINr82G65Db6Y-Q5k2vwfQMrp8OcXILbjqZpxoLbMN4i59KkrEpCxd2q4jSMh0OIvSP28GXpAxHYvbceYXFVWjdmGk-5Ac7DfS6JIcqmvmRXXG7SyFov95sh8jDI4mpcgNzzHLE1rA9H7AUV8eS-7QYaa60KiLV6Fi2rUo3DhIRJd1dtPmYck4EfAwG0k86qjfkbSRA14NA7T6GzalxfpCF3NhNCvWG3wQ-saZKUcSwBv2jDt7qrn0FGCaj2L8mTnCC_asuWQsdlCEO3uwgK2C5NYUirVDR6-hGU9RThJTl0vUCkNBc0UEbO3okds_6LaCB-3bnGyooxoPeGeOiqM6R3y3A1xmBta5QL53dt_mLkTMaQpyiilEnBHWdCXRH87nV8AT-yuu_w_74xuWcDhYb7k4DB8kyauxuaJ6215kwq4Yu_VzDK8jbE4lObKG9JlLTIyy9DglG9E-gpuzRJZCZzhKMztN8Is2bYftWzNnZNLZO1cOsesktf5cKuFAHr1epEWV0SYCw1c7LBqFOykfZz-3QxdouEatrpk9Wq34ZWwWf_MLI5cKnyAVf_QTmlnVzG7GrykSzkbzFPcuCGBawR2PNBka0l-Gi0?></g></svg>