<?plantuml 1.2026.2?><svg xmlns="http://www.w3.org/2000/svg" xmlns:xlink="http://www.w3.org/1999/xlink" contentStyleType="text/css" data-diagram-type="DESCRIPTION" height="517px" preserveAspectRatio="none" style="width:859px;height:517px;background:#FFFFFF;" version="1.1" viewBox="0 0 859 517" width="859px" zoomAndPan="magnify"><defs/><g><!--cluster Kleff Hosting Platform--><g class="cluster" data-qualified-name="Kleff Hosting Platform" data-source-line="15" id="ent0007"><rect fill="none" height="504" rx="2.5" ry="2.5" style="stroke:#181818;stroke-width:1;" width="675" x="178.87" y="7"/><text fill="#000000" font-family="sans-serif" font-size="14" font-weight="bold" lengthAdjust="spacing" textLength="176.6201" x="428.0599" y="21.9951">Kleff Hosting Platform</text></g><!--cluster Project Management--><g class="cluster" data-qualified-name="Kleff Hosting Platform.Project Management" data-source-line="16" id="ent0008"><rect fill="#D1C4E9" height="437" rx="2.5" ry="2.5" style="stroke:#181818;stroke-width:1;" width="627" x="202.87" y="50"/><text fill="#000000" font-family="sans-serif" font-size="14" font-weight="bold" lengthAdjust="spacing" textLength="163.9941" x="434.3729" y="64.9951">Project Management</text></g><!--entity UC10--><g class="entity" data-qualified-name="Kleff Hosting Platform.Project Management.UC10" data-source-line="18" id="ent0009"><ellipse cx="346.5072" cy="271.2274" fill="#FAFAFA" rx="89.1372" ry="20.2274" style="stroke:#455A64;stroke-width:0.5;"/><text fill="#000000" font-family="sans-serif" font-size="14" lengthAdjust="spacing" textLength="151.7852" x="270.6146" y="275.8759">UC-10: Create Project</text></g><!--entity UC11--><g class="entity" data-qualified-name="Kleff Hosting Platform.Project Management.UC11" data-source-line="19" id="ent0010"><ellipse cx="346.2294" cy="353.8719" fill="#FAFAFA" rx="127.3594" ry="27.8719" style="stroke:#455A64;stroke-width:0.5;"/><text fill="#000000" font-family="sans-serif" font-size="14" lengthAdjust="spacing" textLength="234.9922" x="228.7333" y="358.5203">UC-11: Configure Project Settings</text></g><!--entity UC12--><g class="entity" data-qualified-name="Kleff Hosting Platform.Project Management.UC12" data-source-line="20" id="ent0011"><ellipse cx="346.6116" cy="107.9483" fill="#FAFAFA" rx="102.7416" ry="22.9483" style="stroke:#455A64;stroke-width:0.5;"/><text fill="#000000" font-family="sans-serif" font-size="14" lengthAdjust="spacing" textLength="182.082" x="255.5706" y="112.5968">UC-12: Invite Collaborator</text></g><!--entity UC13--><g class="entity" data-qualified-name="Kleff Hosting Platform.Project Management.UC13" data-source-line="21" id="ent0012"><ellipse cx="709.343" cy="149.7946" fill="#FAFAFA" rx="104.473" ry="23.2946" style="stroke:#455A64;stroke-width:0.5;"/><text fill="#000000" font-family="sans-serif" font-size="14" lengthAdjust="spacing" textLength="185.8691" x="616.4084" y="154.443">UC-13: Assign Permissions</text></g><!--entity UC14--><g class="entity" data-qualified-name="Kleff Hosting Platform.Project Management.UC14" data-source-line="22" id="ent0013"><ellipse cx="346.4646" cy="191.1189" fill="#FAFAFA" rx="111.0946" ry="24.6189" style="stroke:#455A64;stroke-width:0.5;"/><text fill="#000000" font-family="sans-serif" font-size="14" lengthAdjust="spacing" textLength="200.2451" x="246.3421" y="195.7674">UC-14: Remove Collaborator</text></g><!--entity UC15--><g class="entity" data-qualified-name="Kleff Hosting Platform.Project Management.UC15" data-source-line="23" id="ent0014"><ellipse cx="346.2694" cy="443.8799" fill="#FAFAFA" rx="119.8994" ry="26.3799" style="stroke:#455A64;stroke-width:0.5;"/><text fill="#000000" font-family="sans-serif" font-size="14" lengthAdjust="spacing" textLength="219.1396" x="236.6996" y="448.5283">UC-15: View Project Dashboard</text></g><!--entity Dev--><g class="entity" data-qualified-name="Dev" data-source-line="9" id="ent0002"><ellipse cx="82.3715" cy="353.5" fill="#C0C0C0" rx="8" ry="8" style="stroke:#181818;stroke-width:0.5;"/><path d="M82.3715,361.5 L82.3715,388.5 M69.3715,369.5 L95.3715,369.5 M82.3715,388.5 L69.3715,403.5 M82.3715,388.5 L95.3715,403.5" fill="none" style="stroke:#181818;stroke-width:0.5;"/><text fill="#000000" font-family="sans-serif" font-size="14" lengthAdjust="spacing" textLength="72.0029" x="46.37" y="417.9951">Developer</text></g><!--entity Owner--><g class="entity" data-qualified-name="Owner" data-source-line="10" id="ent0003"><ellipse cx="82.1776" cy="242.5" fill="#ADD8E6" rx="8" ry="8" style="stroke:#181818;stroke-width:0.5;"/><path d="M82.1776,250.5 L82.1776,277.5 M69.1776,258.5 L95.1776,258.5 M82.1776,277.5 L69.1776,292.5 M82.1776,277.5 L95.1776,292.5" fill="none" style="stroke:#181818;stroke-width:0.5;"/><text fill="#000000" font-family="sans-serif" font-size="14" lengthAdjust="spacing" textLength="98.6152" x="32.87" y="306.9951">Project Owner</text></g><!--entity Collab--><g class="entity" data-qualified-name="Collab" data-source-line="11" id="ent0004"><ellipse cx="82.5184" cy="131.5" fill="#90EE90" rx="8" ry="8" style="stroke:#181818;stroke-width:0.5;"/><path d="M82.5184,139.5 L82.5184,166.5 M69.5184,147.5 L95.5184,147.5 M82.5184,166.5 L69.5184,181.5 M82.5184,166.5 L95.5184,181.5" fill="none" style="stroke:#181818;stroke-width:0.5;"/><text fill="#000000" font-family="sans-serif" font-size="14" lengthAdjust="spacing" textLength="86.2969" x="39.37" y="195.9951">Collaborator</text></g><!--link Owner to Dev--><g class="link" data-entity-1="ent0003" data-entity-2="ent0002" data-link-type="extension" data-source-line="13" id="lnk5"><path d="M82.37,310.13 C82.37,321.7 82.37,315.27 82.37,326.84" fill="none" id="Owner-to-Dev" style="stroke:#181818;stroke-width:1;"/><polygon fill="none" points="82.37,344.84,88.37,326.84,76.37,326.84,82.37,344.84" style="stroke:#181818;stroke-width:1;"/></g><!--link Collab to Dev--><g class="link" data-entity-1="ent0004" data-entity-2="ent0002" data-link-type="extension" data-source-line="14" id="lnk6"><path d="M39.13,199.15 C30.4,209.33 22.49,221.02 17.87,233.5 C6,265.6 6,278.4 17.87,310.5 C23.72,326.3 22.3612,327.8477 33.7412,339.6777" fill="none" id="Collab-to-Dev" style="stroke:#181818;stroke-width:1;"/><polygon fill="none" points="46.22,352.65,38.0653,335.5181,29.4171,343.8373,46.22,352.65" style="stroke:#181818;stroke-width:1;"/></g><!--link Owner to UC10--><g class="link" data-entity-1="ent0003" data-entity-2="ent0009" data-link-type="association" data-source-line="27" id="lnk15"><path d="M132.04,271.81 C167.11,271.68 215.43,271.5 257.21,271.34" fill="none" id="Owner-UC10" style="stroke:#181818;stroke-width:1;"/></g><!--link Owner to UC11--><g class="link" data-entity-1="ent0003" data-entity-2="ent0010" data-link-type="association" data-source-line="28" id="lnk16"><path d="M131.94,294.04 C144.48,299.31 158.06,304.67 170.87,309 C198.58,318.37 229.33,326.9 257.2,333.96" fill="none" id="Owner-UC11" style="stroke:#181818;stroke-width:1;"/></g><!--link Owner to UC12--><g class="link" data-entity-1="ent0003" data-entity-2="ent0011" data-link-type="association" data-source-line="29" id="lnk17"><path d="M118.01,233.91 C122.84,228.05 127.61,221.96 131.87,216 C151.91,187.97 143.18,169.5 170.87,149 C193.76,132.06 222.58,121.99 250.17,116.05" fill="none" id="Owner-UC12" style="stroke:#181818;stroke-width:1;"/></g><!--link Owner to UC14--><g class="link" data-entity-1="ent0003" data-entity-2="ent0013" data-link-type="association" data-source-line="30" id="lnk18"><path d="M132.26,248.32 C144.68,242.83 158.12,237.34 170.87,233 C200.67,222.87 234.12,214.19 263.7,207.4" fill="none" id="Owner-UC14" style="stroke:#181818;stroke-width:1;"/></g><!--link Collab to UC12--><g class="link" data-entity-1="ent0004" data-entity-2="ent0011" data-link-type="association" data-source-line="32" id="lnk19"><path d="M125.5,142.07 C137.09,137.5 149.8,133.05 161.87,130 C189.56,123 220.17,118.21 248.33,114.93" fill="none" id="Collab-UC12" style="stroke:#181818;stroke-width:1;"/></g><!--link Collab to UC14--><g class="link" data-entity-1="ent0004" data-entity-2="ent0013" data-link-type="association" data-source-line="33" id="lnk20"><path d="M125.47,165.82 C158.38,169.59 205.46,174.98 247.62,179.81" fill="none" id="Collab-UC14" style="stroke:#181818;stroke-width:1;"/></g><!--link Dev to UC15--><g class="link" data-entity-1="ent0002" data-entity-2="ent0014" data-link-type="association" data-source-line="35" id="lnk21"><path d="M118.44,391.16 C155.25,399.73 214.43,413.51 263.13,424.85" fill="none" id="Dev-UC15" style="stroke:#181818;stroke-width:1;"/></g><!--link UC12 to UC13--><g class="link" data-entity-1="ent0011" data-entity-2="ent0012" data-link-type="dependency" data-source-line="38" id="lnk22"><path d="M438,118.54 C492.41,124.87 555.4902,132.2169 610.1802,138.5769" fill="none" id="UC12-to-UC13" style="stroke:#181818;stroke-width:1;stroke-dasharray:7,7;"/><polygon fill="#181818" points="616.14,139.27,607.6623,134.2572,611.1735,138.6924,606.7382,142.2036,616.14,139.27" style="stroke:#181818;stroke-width:1;"/><text fill="#000000" font-family="sans-serif" font-size="13" lengthAdjust="spacing" textLength="69.7798" x="504.87" y="123.0669">&#171;includes&#187;</text></g><!--link UC14 to UC13--><g class="link" data-entity-1="ent0013" data-entity-2="ent0012" data-link-type="dependency" data-source-line="39" id="lnk23"><path d="M455.25,185.96 C493.16,183.51 536,179.99 574.87,175 C593.47,172.61 607.4897,170.3895 626.1197,166.9495" fill="none" id="UC14-to-UC13" style="stroke:#181818;stroke-width:1;stroke-dasharray:7,7;"/><polygon fill="#181818" points="632.02,165.86,622.4433,163.5607,627.1031,166.7679,623.8959,171.4277,632.02,165.86" style="stroke:#181818;stroke-width:1;"/><text fill="#000000" font-family="sans-serif" font-size="13" lengthAdjust="spacing" textLength="69.7798" x="504.87" y="171.0669">&#171;includes&#187;</text></g><?plantuml-src TPBFZjCm4CRlVefHUk3KrQQR816jAfKKn0eXgbqjzsaoISqwTZLssWFibGVW4NaIxFnJgu1yyUVvVPxnZ1LL3fm1blN1GIcP2YUD5lP5wYCoDc0FM9gpr3LKg2nTH5fB1Lg27mBWFHOlDPjMbxbHXc7nSHDMY1WkYOVJ94qtRnD_-jYZh8aXJiIh45WuJqHREf4oH-88q89NiB1IdOX7OCVckoyIlfxr07KxMAZmXBrgQIHzJeLxm-XL1_O70rapaHQYDoz_haCkCH2Z3Dr0NIk2wBEYge9FnhhGYfr2Lnbkekxn5zXOtHVKM5D3saMmsCPvyk6THpqBKzkYvtmPtsQGCw4Z69nTeSzvV3jdOyyQNScwvGc79tAX8ZlwuhblbS63FacVOzOHRrZD3NSPRAoLjOOTSIFzrkWfmTsSJp9ufCQS_fqWcHlI3Bv9Ea-FsA8zx0roENfIxtdrl-8DRC8iBVpvzHiQb3hS0-4YEqvksNVhKiLNQdMb4Z4DUOXUIHyEVwuNgV05F6X7h57vAVkXXquSvD6AO8MRctNN4iZW_bxgGhKbsVKw19F_1ly2?></g></svg>