<?plantuml 1.2026.2?><svg xmlns="http://www.w3.org/2000/svg" xmlns:xlink="http://www.w3.org/1999/xlink" contentStyleType="text/css" data-diagram-type="STATE" height="843px" preserveAspectRatio="none" style="width:536px;height:843px;background:#FFFFFF;" version="1.1" viewBox="0 0 536 843" width="536px" zoomAndPan="magnify"><title>UC-01: Create Project - State Transition Diagram (STD)</title><defs/><g><g class="title" data-source-line="1"><text fill="#000000" font-family="sans-serif" font-size="14" font-weight="bold" lengthAdjust="spacing" textLength="434.2051" x="44.2068" y="22.9951">UC-01: Create Project - State Transition Diagram (STD)</text></g><path d="M137,140.2969 L337.4556,140.2969 A12.5,12.5 0 0 1 349.9556,152.7969 L349.9556,166.5938 L124.5,166.5938 L124.5,152.7969 A12.5,12.5 0 0 1 137,140.2969" fill="#F1F1F1"/><rect fill="none" height="360.2969" rx="12.5" ry="12.5" style="stroke:#181818;stroke-width:0.5;" width="225.4556" x="124.5" y="140.2969"/><line style="stroke:#181818;stroke-width:0.5;" x1="124.5" x2="349.9556" y1="166.5938" y2="166.5938"/><text fill="#000000" font-family="sans-serif" font-size="14" lengthAdjust="spacing" textLength="59.8623" x="207.2966" y="158.292">Creating</text><g class="start_entity" data-qualified-name="Creating..start.Creating" data-source-line="5" id="ent0004"><ellipse cx="202.5" cy="187.5938" fill="#222222" rx="10" ry="10" style="stroke:#222222;stroke-width:1;"/></g><g class="entity" data-qualified-name="Creating.ValidatingName" id="ent0005"><rect fill="#F1F1F1" height="50" rx="12.5" ry="12.5" style="stroke:#181818;stroke-width:0.5;" width="131.8428" x="136.5" y="234.5938"/><line style="stroke:#181818;stroke-width:0.5;" x1="136.5" x2="268.3428" y1="260.8906" y2="260.8906"/><text fill="#000000" font-family="sans-serif" font-size="14" lengthAdjust="spacing" textLength="111.8428" x="146.5" y="252.5889">ValidatingName</text></g><g class="entity" data-qualified-name="Creating.ConfiguringGit" id="ent0007"><rect fill="#F1F1F1" height="50" rx="12.5" ry="12.5" style="stroke:#181818;stroke-width:0.5;" width="121.4248" x="142" y="337.5938"/><line style="stroke:#181818;stroke-width:0.5;" x1="142" x2="263.4248" y1="363.8906" y2="363.8906"/><text fill="#000000" font-family="sans-serif" font-size="14" lengthAdjust="spacing" textLength="101.4248" x="152" y="355.5889">ConfiguringGit</text></g><g class="entity" data-qualified-name="Creating.Persisting" id="ent0009"><rect fill="#F1F1F1" height="50" rx="12.5" ry="12.5" style="stroke:#181818;stroke-width:0.5;" width="88.4277" x="158.5" y="440.5938"/><line style="stroke:#181818;stroke-width:0.5;" x1="158.5" x2="246.9277" y1="466.8906" y2="466.8906"/><text fill="#000000" font-family="sans-serif" font-size="14" lengthAdjust="spacing" textLength="68.4277" x="168.5" y="458.5889">Persisting</text></g><!--link *start*Creating to ValidatingName--><g class="link" data-entity-1="ent0004" data-entity-2="ent0005" data-link-type="dependency" data-source-line="5" id="lnk6"><path d="M202.5,197.7437 C202.5,207.0138 202.5,215.7338 202.5,228.3737" fill="none" id="*start*Creating-to-ValidatingName" style="stroke:#181818;stroke-width:1;"/><polygon fill="#181818" points="202.5,234.3737,206.5,225.3737,202.5,229.3737,198.5,225.3737,202.5,234.3737" style="stroke:#181818;stroke-width:1;"/></g><!--link ValidatingName to ConfiguringGit--><g class="link" data-entity-1="ent0005" data-entity-2="ent0007" data-link-type="dependency" data-source-line="6" id="lnk8"><path d="M202.5,284.7838 C202.5,300.6638 202.5,315.3438 202.5,331.2537" fill="none" id="ValidatingName-to-ConfiguringGit" style="stroke:#181818;stroke-width:1;"/><polygon fill="#181818" points="202.5,337.2537,206.5,328.2537,202.5,332.2537,198.5,328.2537,202.5,337.2537" style="stroke:#181818;stroke-width:1;"/><text fill="#000000" font-family="sans-serif" font-size="13" lengthAdjust="spacing" textLength="88.3403" x="203.5" y="315.6606">Name Unique</text></g><!--link ConfiguringGit to Persisting--><g class="link" data-entity-1="ent0007" data-entity-2="ent0009" data-link-type="dependency" data-source-line="7" id="lnk10"><path d="M202.5,387.7838 C202.5,403.6638 202.5,418.3438 202.5,434.2537" fill="none" id="ConfiguringGit-to-Persisting" style="stroke:#181818;stroke-width:1;"/><polygon fill="#181818" points="202.5,440.2537,206.5,431.2537,202.5,435.2537,198.5,431.2537,202.5,440.2537" style="stroke:#181818;stroke-width:1;"/><text fill="#000000" font-family="sans-serif" font-size="13" lengthAdjust="spacing" textLength="136.4556" x="203.5" y="418.6606">Webhook Configured</text></g><g class="start_entity" data-qualified-name=".start." data-source-line="3" id="ent0002"><ellipse cx="237" cy="53.2969" fill="#222222" rx="10" ry="10" style="stroke:#222222;stroke-width:1;"/></g><g class="entity" data-qualified-name="Active" id="ent0011"><rect fill="#F1F1F1" height="50" rx="12.5" ry="12.5" style="stroke:#181818;stroke-width:0.5;" width="63.5518" x="16" y="577.2969"/><line style="stroke:#181818;stroke-width:0.5;" x1="16" x2="79.5518" y1="603.5938" y2="603.5938"/><text fill="#000000" font-family="sans-serif" font-size="14" lengthAdjust="spacing" textLength="43.5518" x="26" y="595.292">Active</text></g><g class="entity" data-qualified-name="Failed" id="ent0013"><rect fill="#F1F1F1" height="50" rx="12.5" ry="12.5" style="stroke:#181818;stroke-width:0.5;" width="61.9111" x="355" y="577.2969"/><line style="stroke:#181818;stroke-width:0.5;" x1="355" x2="416.9111" y1="603.5938" y2="603.5938"/><text fill="#000000" font-family="sans-serif" font-size="14" lengthAdjust="spacing" textLength="41.9111" x="365" y="595.292">Failed</text></g><g class="entity" data-qualified-name="Archived" id="ent0015"><rect fill="#F1F1F1" height="50" rx="12.5" ry="12.5" style="stroke:#181818;stroke-width:0.5;" width="81.5781" x="7" y="704.2969"/><line style="stroke:#181818;stroke-width:0.5;" x1="7" x2="88.5781" y1="730.5938" y2="730.5938"/><text fill="#000000" font-family="sans-serif" font-size="14" lengthAdjust="spacing" textLength="61.5781" x="17" y="722.292">Archived</text></g><g class="end_entity" data-qualified-name=".end." data-source-line="17" id="ent0019"><ellipse cx="48" cy="826.2969" fill="none" rx="11" ry="11" style="stroke:#222222;stroke-width:1;"/><ellipse cx="48" cy="826.2969" fill="#222222" rx="6" ry="6" style="stroke:#222222;stroke-width:1;"/></g><!--link *start* to Creating--><g class="link" data-entity-1="ent0002" data-entity-2="ent0002" data-link-type="dependency" data-source-line="3" id="lnk3"><path d="M237,63.4169 C237,77.5269 237,100.5369 237,134.1469" fill="none" id="*start*-to-Creating" style="stroke:#181818;stroke-width:1;"/><polygon fill="#181818" points="237,140.1469,241,131.1469,237,135.1469,233,131.1469,237,140.1469" style="stroke:#181818;stroke-width:1;"/><text fill="#000000" font-family="sans-serif" font-size="13" lengthAdjust="spacing" textLength="124.2236" x="238" y="106.3638">User Submits Form</text></g><!--link Creating to Active--><g class="link" data-entity-1="ent0002" data-entity-2="ent0011" data-link-type="dependency" data-source-line="10" id="lnk12"><path d="M124.29,444.0269 C103.41,471.0669 83.38,500.5569 68,530.2969 C60.41,544.9669 56.6771,557.0266 53.5671,571.1866" fill="none" id="Creating-to-Active" style="stroke:#181818;stroke-width:1;"/><polygon fill="#181818" points="52.28,577.0469,58.1176,569.1145,53.3526,572.1633,50.3038,567.3983,52.28,577.0469" style="stroke:#181818;stroke-width:1;"/><text fill="#000000" font-family="sans-serif" font-size="13" lengthAdjust="spacing" textLength="147.71" x="69" y="543.3638">Persistence Successful</text></g><!--link Creating to Failed--><g class="link" data-entity-1="ent0002" data-entity-2="ent0013" data-link-type="dependency" data-source-line="11" id="lnk14"><path d="M213.75,500.5469 C217.6,517.2569 224.04,533.1969 234,547.2969 C261.3,585.9569 312.8125,596.5878 348.7425,599.7078" fill="none" id="Creating-to-Failed" style="stroke:#181818;stroke-width:1;"/><polygon fill="#181818" points="354.72,600.2269,346.0998,595.4633,349.7387,599.7943,345.4077,603.4333,354.72,600.2269" style="stroke:#181818;stroke-width:1;"/><text fill="#000000" font-family="sans-serif" font-size="13" lengthAdjust="spacing" textLength="206.0386" x="235" y="543.3638">Error (Name Conflict / Git Error)</text></g><!--link Failed to Creating--><g class="link" data-entity-1="ent0013" data-entity-2="ent0002" data-link-type="dependency" data-source-line="16" id="lnk18"><path d="M417.12,583.6369 C435.89,570.4469 454.65,551.1669 446,530.2969 C425.72,481.3469 392.2574,441.9144 354.2274,407.4744" fill="none" id="Failed-to-Creating" style="stroke:#181818;stroke-width:1;"/><polygon fill="#181818" points="349.78,403.4469,353.766,412.4531,353.4861,406.8032,359.1361,406.5233,349.78,403.4469" style="stroke:#181818;stroke-width:1;"/><text fill="#000000" font-family="sans-serif" font-size="13" lengthAdjust="spacing" textLength="79.6187" x="449" y="543.3638">User Retries</text></g><!--link Active to Archived--><g class="link" data-entity-1="ent0011" data-entity-2="ent0015" data-link-type="dependency" data-source-line="13" id="lnk16"><path d="M48,627.3969 C48,649.5369 48,676.1569 48,698.2669" fill="none" id="Active-to-Archived" style="stroke:#181818;stroke-width:1;"/><polygon fill="#181818" points="48,704.2669,52,695.2669,48,699.2669,44,695.2669,48,704.2669" style="stroke:#181818;stroke-width:1;"/><text fill="#000000" font-family="sans-serif" font-size="13" lengthAdjust="spacing" textLength="205.2705" x="49" y="670.3638">Project Owner Deletes/Archives</text></g><!--link Active to Active--><g class="link" data-entity-1="ent0011" data-entity-2="ent0011" data-link-type="dependency" data-source-line="14" id="lnk17"><path d="M80.06,591.2669 C98.2,589.1169 115,592.7869 115,602.2969 C115,611.8069 104.1583,616.1831 86.0183,614.0331" fill="none" id="Active-to-Active" style="stroke:#181818;stroke-width:1;"/><polygon fill="#181818" points="80.06,613.3269,88.5266,618.3584,85.0252,613.9154,89.4682,610.414,80.06,613.3269" style="stroke:#181818;stroke-width:1;"/><text fill="#000000" font-family="sans-serif" font-size="13" lengthAdjust="spacing" textLength="112.7852" x="121" y="606.8638">Settings Updated</text></g><!--link Archived to *end*--><g class="link" data-entity-1="ent0015" data-entity-2="ent0019" data-link-type="dependency" data-source-line="17" id="lnk20"><path d="M48,754.7569 C48,774.3369 48,794.7869 48,809.0969" fill="none" id="Archived-to-*end*" style="stroke:#181818;stroke-width:1;"/><polygon fill="#181818" points="48,815.0969,52,806.0969,48,810.0969,44,806.0969,48,815.0969" style="stroke:#181818;stroke-width:1;"/></g><?plantuml-src RL0zJyCm4DtzAsuiI55XxO246ie65MbWG0okSqqF71lE3Wo8_yxPJI85iTdtFkxTYnGjGhqkBYvNi6RK4M7B_XLDX0AgcFuxrYvG9E-W9Dsoxc1HxSepfPxFNw0ehav2SYsie0x8KFNxZcA0ZUTEXMmoKRuLmAXxr9QQFBxJ7Gem7voylJjGsxFCRYdAXepKZZxwfFW39yKMEL0OyZpX_kZzsyJ3HlqeDQL9_6iJwHE5EmZH6PGJZC4G3hsTapUQB3P2lc7s38kS9fbRaigMa49aIEePZFCEDaTv9-5Ox_sNawfAj1WnB0T2c8d6O1N65210_Ixjo0bgYF5V-GyOcPBHk3AHf77r2m00?></g></svg>