<?plantuml 1.2026.2?><svg xmlns="http://www.w3.org/2000/svg" xmlns:xlink="http://www.w3.org/1999/xlink" contentStyleType="text/css" data-diagram-type="SEQUENCE" height="627px" preserveAspectRatio="none" style="width:1376px;height:627px;background:#FFFFFF;" version="1.1" viewBox="0 0 1376 627" width="1376px" zoomAndPan="magnify"><title>UC-01: Create Project - Design-Level Sequence Diagram (DLSD)</title><defs/><g><text fill="#000000" font-family="sans-serif" font-size="14" font-weight="bold" lengthAdjust="spacing" textLength="501.416" x="439.2898" y="27.9951">UC-01: Create Project - Design-Level Sequence Diagram (DLSD)</text><g><title>Project API Controller</title><rect fill="#FFFFFF" height="320.4609" style="stroke:#181818;stroke-width:1;" width="10" x="505.6055" y="178.8594"/></g><g><title>Project Application Service</title><rect fill="#FFFFFF" height="262.1953" style="stroke:#181818;stroke-width:1;" width="10" x="707.7378" y="207.9922"/></g><g><title>Project Aggregate</title><rect fill="#FFFFFF" height="29.1328" style="stroke:#181818;stroke-width:1;" width="10" x="888.4927" y="237.125"/></g><g><title>ProjectRepository</title><rect fill="#FFFFFF" height="87.3984" style="stroke:#181818;stroke-width:1;" width="10" x="1037.3511" y="353.6563"/></g><g><title>GitIntegrationAdapter</title><rect fill="#FFFFFF" height="29.1328" style="stroke:#181818;stroke-width:1;" width="10" x="1199.6934" y="295.3906"/></g><g class="participant-lifeline" data-entity-uid="part1" data-qualified-name="Owner" id="part1-lifeline"><g><title>Project Owner</title><rect fill="#000000" fill-opacity="0.00000" height="427.8594" width="8" x="53.3076" y="118.5938"/><line style="stroke:#181818;stroke-width:0.5;stroke-dasharray:5,5;" x1="57" x2="57" y1="118.5938" y2="546.4531"/></g></g><g class="participant-lifeline" data-entity-uid="part2" data-qualified-name="SPA" id="part2-lifeline"><g><title>Kleff Dashboard .SPA.</title><rect fill="#000000" fill-opacity="0.00000" height="427.8594" width="8" x="256.0132" y="118.5938"/><line style="stroke:#181818;stroke-width:0.5;stroke-dasharray:5,5;" x1="259.7773" x2="259.7773" y1="118.5938" y2="546.4531"/></g></g><g class="participant-lifeline" data-entity-uid="part3" data-qualified-name="Controller" id="part3-lifeline"><g><title>Project API Controller</title><rect fill="#000000" fill-opacity="0.00000" height="427.8594" width="8" x="506.6055" y="118.5938"/><line style="stroke:#181818;stroke-width:0.5;stroke-dasharray:5,5;" x1="510.2681" x2="510.2681" y1="118.5938" y2="546.4531"/></g></g><g class="participant-lifeline" data-entity-uid="part4" data-qualified-name="AppService" id="part4-lifeline"><g><title>Project Application Service</title><rect fill="#000000" fill-opacity="0.00000" height="427.8594" width="8" x="708.7378" y="118.5938"/><line style="stroke:#181818;stroke-width:0.5;stroke-dasharray:5,5;" x1="712.0786" x2="712.0786" y1="118.5938" y2="546.4531"/></g></g><g class="participant-lifeline" data-entity-uid="part5" data-qualified-name="Domain" id="part5-lifeline"><g><title>Project Aggregate</title><rect fill="#000000" fill-opacity="0.00000" height="427.8594" width="8" x="889.4927" y="118.5938"/><line style="stroke:#181818;stroke-width:0.5;stroke-dasharray:5,5;" x1="893.397" x2="893.397" y1="118.5938" y2="546.4531"/></g></g><g class="participant-lifeline" data-entity-uid="part6" data-qualified-name="Repo" id="part6-lifeline"><g><title>ProjectRepository</title><rect fill="#000000" fill-opacity="0.00000" height="427.8594" width="8" x="1038.3511" y="118.5938"/><line style="stroke:#181818;stroke-width:0.5;stroke-dasharray:5,5;" x1="1041.5884" x2="1041.5884" y1="118.5938" y2="546.4531"/></g></g><g class="participant-lifeline" data-entity-uid="part7" data-qualified-name="GitAdapter" id="part7-lifeline"><g><title>GitIntegrationAdapter</title><rect fill="#000000" fill-opacity="0.00000" height="427.8594" width="8" x="1200.6934" y="118.5938"/><line style="stroke:#181818;stroke-width:0.5;stroke-dasharray:5,5;" x1="1204.1138" x2="1204.1138" y1="118.5938" y2="546.4531"/></g></g><g class="participant-lifeline" data-entity-uid="part8" data-qualified-name="DB" id="part8-lifeline"><g><title>project-db</title><rect fill="#000000" fill-opacity="0.00000" height="427.8594" width="8" x="1333.1343" y="118.5938"/><line style="stroke:#181818;stroke-width:0.5;stroke-dasharray:5,5;" x1="1336.2729" x2="1336.2729" y1="118.5938" y2="546.4531"/></g></g><g class="participant participant-head" data-entity-uid="part1" data-qualified-name="Owner" id="part1-head"><text fill="#000000" font-family="sans-serif" font-size="14" lengthAdjust="spacing" textLength="98.6152" x="5" y="115.292">Project Owner</text><ellipse cx="57.3076" cy="50.7969" fill="#E2E2F0" rx="8" ry="8" style="stroke:#181818;stroke-width:0.5;"/><path d="M57.3076,58.7969 L57.3076,85.7969 M44.3076,66.7969 L70.3076,66.7969 M57.3076,85.7969 L44.3076,100.7969 M57.3076,85.7969 L70.3076,100.7969" fill="none" style="stroke:#181818;stroke-width:0.5;"/></g><g class="participant participant-tail" data-entity-uid="part1" data-qualified-name="Owner" id="part1-tail"><text fill="#000000" font-family="sans-serif" font-size="14" lengthAdjust="spacing" textLength="98.6152" x="5" y="558.4482">Project Owner</text><ellipse cx="57.3076" cy="570.25" fill="#E2E2F0" rx="8" ry="8" style="stroke:#181818;stroke-width:0.5;"/><path d="M57.3076,578.25 L57.3076,605.25 M44.3076,586.25 L70.3076,586.25 M57.3076,605.25 L44.3076,620.25 M57.3076,605.25 L70.3076,620.25" fill="none" style="stroke:#181818;stroke-width:0.5;"/></g><g class="participant participant-head" data-entity-uid="part2" data-qualified-name="SPA" id="part2-head"><rect fill="#E2E2F0" height="30.2969" rx="2.5" ry="2.5" style="stroke:#181818;stroke-width:0.5;" width="168.4717" x="175.7773" y="87.2969"/><text fill="#000000" font-family="sans-serif" font-size="14" lengthAdjust="spacing" textLength="154.4717" x="182.7773" y="107.292">Kleff Dashboard (SPA)</text></g><g class="participant participant-tail" data-entity-uid="part2" data-qualified-name="SPA" id="part2-tail"><rect fill="#E2E2F0" height="30.2969" rx="2.5" ry="2.5" style="stroke:#181818;stroke-width:0.5;" width="168.4717" x="175.7773" y="545.4531"/><text fill="#000000" font-family="sans-serif" font-size="14" lengthAdjust="spacing" textLength="154.4717" x="182.7773" y="565.4482">Kleff Dashboard (SPA)</text></g><g class="participant participant-head" data-entity-uid="part3" data-qualified-name="Controller" id="part3-head"><rect fill="#E2E2F0" height="30.2969" rx="2.5" ry="2.5" style="stroke:#181818;stroke-width:0.5;" width="162.6748" x="429.2681" y="87.2969"/><text fill="#000000" font-family="sans-serif" font-size="14" lengthAdjust="spacing" textLength="148.6748" x="436.2681" y="107.292">Project API Controller</text></g><g class="participant participant-tail" data-entity-uid="part3" data-qualified-name="Controller" id="part3-tail"><rect fill="#E2E2F0" height="30.2969" rx="2.5" ry="2.5" style="stroke:#181818;stroke-width:0.5;" width="162.6748" x="429.2681" y="545.4531"/><text fill="#000000" font-family="sans-serif" font-size="14" lengthAdjust="spacing" textLength="148.6748" x="436.2681" y="565.4482">Project API Controller</text></g><g class="participant participant-head" data-entity-uid="part4" data-qualified-name="AppService" id="part4-head"><rect fill="#E2E2F0" height="30.2969" rx="2.5" ry="2.5" style="stroke:#181818;stroke-width:0.5;" width="201.3184" x="612.0786" y="87.2969"/><text fill="#000000" font-family="sans-serif" font-size="14" lengthAdjust="spacing" textLength="187.3184" x="619.0786" y="107.292">Project Application Service</text></g><g class="participant participant-tail" data-entity-uid="part4" data-qualified-name="AppService" id="part4-tail"><rect fill="#E2E2F0" height="30.2969" rx="2.5" ry="2.5" style="stroke:#181818;stroke-width:0.5;" width="201.3184" x="612.0786" y="545.4531"/><text fill="#000000" font-family="sans-serif" font-size="14" lengthAdjust="spacing" textLength="187.3184" x="619.0786" y="565.4482">Project Application Service</text></g><g class="participant participant-head" data-entity-uid="part5" data-qualified-name="Domain" id="part5-head"><rect fill="#E2E2F0" height="30.2969" rx="2.5" ry="2.5" style="stroke:#181818;stroke-width:0.5;" width="140.1914" x="823.397" y="87.2969"/><text fill="#000000" font-family="sans-serif" font-size="14" lengthAdjust="spacing" textLength="126.1914" x="830.397" y="107.292">Project Aggregate</text></g><g class="participant participant-tail" data-entity-uid="part5" data-qualified-name="Domain" id="part5-tail"><rect fill="#E2E2F0" height="30.2969" rx="2.5" ry="2.5" style="stroke:#181818;stroke-width:0.5;" width="140.1914" x="823.397" y="545.4531"/><text fill="#000000" font-family="sans-serif" font-size="14" lengthAdjust="spacing" textLength="126.1914" x="830.397" y="565.4482">Project Aggregate</text></g><g class="participant participant-head" data-entity-uid="part6" data-qualified-name="Repo" id="part6-head"><rect fill="#E2E2F0" height="30.2969" rx="2.5" ry="2.5" style="stroke:#181818;stroke-width:0.5;" width="137.5254" x="973.5884" y="87.2969"/><text fill="#000000" font-family="sans-serif" font-size="14" lengthAdjust="spacing" textLength="123.5254" x="980.5884" y="107.292">ProjectRepository</text></g><g class="participant participant-tail" data-entity-uid="part6" data-qualified-name="Repo" id="part6-tail"><rect fill="#E2E2F0" height="30.2969" rx="2.5" ry="2.5" style="stroke:#181818;stroke-width:0.5;" width="137.5254" x="973.5884" y="545.4531"/><text fill="#000000" font-family="sans-serif" font-size="14" lengthAdjust="spacing" textLength="123.5254" x="980.5884" y="565.4482">ProjectRepository</text></g><g class="participant participant-head" data-entity-uid="part7" data-qualified-name="GitAdapter" id="part7-head"><rect fill="#E2E2F0" height="30.2969" rx="2.5" ry="2.5" style="stroke:#181818;stroke-width:0.5;" width="167.1592" x="1121.1138" y="87.2969"/><text fill="#000000" font-family="sans-serif" font-size="14" lengthAdjust="spacing" textLength="153.1592" x="1128.1138" y="107.292">GitIntegrationAdapter</text></g><g class="participant participant-tail" data-entity-uid="part7" data-qualified-name="GitAdapter" id="part7-tail"><rect fill="#E2E2F0" height="30.2969" rx="2.5" ry="2.5" style="stroke:#181818;stroke-width:0.5;" width="167.1592" x="1121.1138" y="545.4531"/><text fill="#000000" font-family="sans-serif" font-size="14" lengthAdjust="spacing" textLength="153.1592" x="1128.1138" y="565.4482">GitIntegrationAdapter</text></g><g class="participant participant-head" data-entity-uid="part8" data-qualified-name="DB" id="part8-head"><text fill="#000000" font-family="sans-serif" font-size="14" lengthAdjust="spacing" textLength="71.7227" x="1298.2729" y="115.292">project-db</text><path d="M1319.1343,66.2969 C1319.1343,56.2969 1337.1343,56.2969 1337.1343,56.2969 C1337.1343,56.2969 1355.1343,56.2969 1355.1343,66.2969 L1355.1343,92.2969 C1355.1343,102.2969 1337.1343,102.2969 1337.1343,102.2969 C1337.1343,102.2969 1319.1343,102.2969 1319.1343,92.2969 L1319.1343,66.2969" fill="#E2E2F0" style="stroke:#181818;stroke-width:0.5;"/><path d="M1319.1343,66.2969 C1319.1343,76.2969 1337.1343,76.2969 1337.1343,76.2969 C1337.1343,76.2969 1355.1343,76.2969 1355.1343,66.2969" fill="none" style="stroke:#181818;stroke-width:0.5;"/></g><g class="participant participant-tail" data-entity-uid="part8" data-qualified-name="DB" id="part8-tail"><text fill="#000000" font-family="sans-serif" font-size="14" lengthAdjust="spacing" textLength="71.7227" x="1298.2729" y="558.4482">project-db</text><path d="M1319.1343,571.75 C1319.1343,561.75 1337.1343,561.75 1337.1343,561.75 C1337.1343,561.75 1355.1343,561.75 1355.1343,571.75 L1355.1343,597.75 C1355.1343,607.75 1337.1343,607.75 1337.1343,607.75 C1337.1343,607.75 1319.1343,607.75 1319.1343,597.75 L1319.1343,571.75" fill="#E2E2F0" style="stroke:#181818;stroke-width:0.5;"/><path d="M1319.1343,571.75 C1319.1343,581.75 1337.1343,581.75 1337.1343,581.75 C1337.1343,581.75 1355.1343,581.75 1355.1343,571.75" fill="none" style="stroke:#181818;stroke-width:0.5;"/></g><g><title>Project API Controller</title><rect fill="#FFFFFF" height="320.4609" style="stroke:#181818;stroke-width:1;" width="10" x="505.6055" y="178.8594"/></g><g><title>Project Application Service</title><rect fill="#FFFFFF" height="262.1953" style="stroke:#181818;stroke-width:1;" width="10" x="707.7378" y="207.9922"/></g><g><title>Project Aggregate</title><rect fill="#FFFFFF" height="29.1328" style="stroke:#181818;stroke-width:1;" width="10" x="888.4927" y="237.125"/></g><g><title>ProjectRepository</title><rect fill="#FFFFFF" height="87.3984" style="stroke:#181818;stroke-width:1;" width="10" x="1037.3511" y="353.6563"/></g><g><title>GitIntegrationAdapter</title><rect fill="#FFFFFF" height="29.1328" style="stroke:#181818;stroke-width:1;" width="10" x="1199.6934" y="295.3906"/></g><g class="message" data-entity-1="part1" data-entity-2="part2" id="msg1"><polygon fill="#181818" points="248.0132,145.7266,258.0132,149.7266,248.0132,153.7266,252.0132,149.7266" style="stroke:#181818;stroke-width:1;"/><line style="stroke:#181818;stroke-width:1;" x1="57.3076" x2="254.0132" y1="149.7266" y2="149.7266"/><text fill="#000000" font-family="sans-serif" font-size="13" lengthAdjust="spacing" textLength="146.4468" x="64.3076" y="144.6606">Clicks "Create Project"</text></g><g class="message" data-entity-1="part2" data-entity-2="part3" id="msg2"><polygon fill="#181818" points="493.6055,174.8594,503.6055,178.8594,493.6055,182.8594,497.6055,178.8594" style="stroke:#181818;stroke-width:1;"/><line style="stroke:#181818;stroke-width:1;" x1="260.0132" x2="499.6055" y1="178.8594" y2="178.8594"/><text fill="#000000" font-family="sans-serif" font-size="13" lengthAdjust="spacing" textLength="226.5923" x="267.0132" y="173.7935">POST /api/projects (name, repoUrl)</text></g><g class="message" data-entity-1="part3" data-entity-2="part4" id="msg3"><polygon fill="#181818" points="695.7378,203.9922,705.7378,207.9922,695.7378,211.9922,699.7378,207.9922" style="stroke:#181818;stroke-width:1;"/><line style="stroke:#181818;stroke-width:1;" x1="515.6055" x2="701.7378" y1="207.9922" y2="207.9922"/><text fill="#000000" font-family="sans-serif" font-size="13" lengthAdjust="spacing" textLength="173.1323" x="522.6055" y="202.9263">createProject(projectData)</text></g><g class="message" data-entity-1="part4" data-entity-2="part5" id="msg4"><polygon fill="#181818" points="876.4927,233.125,886.4927,237.125,876.4927,241.125,880.4927,237.125" style="stroke:#181818;stroke-width:1;"/><line style="stroke:#181818;stroke-width:1;" x1="717.7378" x2="882.4927" y1="237.125" y2="237.125"/><text fill="#000000" font-family="sans-serif" font-size="13" lengthAdjust="spacing" textLength="138.7852" x="724.7378" y="232.0591">validate(projectData)</text></g><g class="message" data-entity-1="part5" data-entity-2="part4" id="msg5"><polygon fill="#181818" points="728.7378,262.2578,718.7378,266.2578,728.7378,270.2578,724.7378,266.2578" style="stroke:#181818;stroke-width:1;"/><line style="stroke:#181818;stroke-width:1;stroke-dasharray:2,2;" x1="722.7378" x2="892.4927" y1="266.2578" y2="266.2578"/><text fill="#000000" font-family="sans-serif" font-size="13" lengthAdjust="spacing" textLength="31.1353" x="734.7378" y="261.1919">valid</text></g><g class="message" data-entity-1="part4" data-entity-2="part7" id="msg6"><polygon fill="#181818" points="1187.6934,291.3906,1197.6934,295.3906,1187.6934,299.3906,1191.6934,295.3906" style="stroke:#181818;stroke-width:1;"/><line style="stroke:#181818;stroke-width:1;" x1="717.7378" x2="1193.6934" y1="295.3906" y2="295.3906"/><text fill="#000000" font-family="sans-serif" font-size="13" lengthAdjust="spacing" textLength="187.0781" x="724.7378" y="290.3247">configureWebhooks(repoUrl)</text></g><g class="message" data-entity-1="part7" data-entity-2="part4" id="msg7"><polygon fill="#181818" points="728.7378,320.5234,718.7378,324.5234,728.7378,328.5234,724.7378,324.5234" style="stroke:#181818;stroke-width:1;"/><line style="stroke:#181818;stroke-width:1;stroke-dasharray:2,2;" x1="722.7378" x2="1203.6934" y1="324.5234" y2="324.5234"/><text fill="#000000" font-family="sans-serif" font-size="13" lengthAdjust="spacing" textLength="112.3535" x="734.7378" y="319.4575">webhookConfigId</text></g><g class="message" data-entity-1="part4" data-entity-2="part6" id="msg8"><polygon fill="#181818" points="1025.3511,349.6563,1035.3511,353.6563,1025.3511,357.6563,1029.3511,353.6563" style="stroke:#181818;stroke-width:1;"/><line style="stroke:#181818;stroke-width:1;" x1="717.7378" x2="1031.3511" y1="353.6563" y2="353.6563"/><text fill="#000000" font-family="sans-serif" font-size="13" lengthAdjust="spacing" textLength="126.7119" x="724.7378" y="348.5903">save(new Project())</text></g><g class="message" data-entity-1="part6" data-entity-2="part8" id="msg9"><polygon fill="#181818" points="1325.1343,378.7891,1335.1343,382.7891,1325.1343,386.7891,1329.1343,382.7891" style="stroke:#181818;stroke-width:1;"/><line style="stroke:#181818;stroke-width:1;" x1="1047.3511" x2="1331.1343" y1="382.7891" y2="382.7891"/><text fill="#000000" font-family="sans-serif" font-size="13" lengthAdjust="spacing" textLength="155.7017" x="1054.3511" y="377.7231">INSERT INTO projects ...</text></g><g class="message" data-entity-1="part8" data-entity-2="part6" id="msg10"><polygon fill="#181818" points="1058.3511,407.9219,1048.3511,411.9219,1058.3511,415.9219,1054.3511,411.9219" style="stroke:#181818;stroke-width:1;"/><line style="stroke:#181818;stroke-width:1;stroke-dasharray:2,2;" x1="1052.3511" x2="1336.1343" y1="411.9219" y2="411.9219"/><text fill="#000000" font-family="sans-serif" font-size="13" lengthAdjust="spacing" textLength="52.3301" x="1064.3511" y="406.856">Success</text></g><g class="message" data-entity-1="part6" data-entity-2="part4" id="msg11"><polygon fill="#181818" points="728.7378,437.0547,718.7378,441.0547,728.7378,445.0547,724.7378,441.0547" style="stroke:#181818;stroke-width:1;"/><line style="stroke:#181818;stroke-width:1;stroke-dasharray:2,2;" x1="722.7378" x2="1041.3511" y1="441.0547" y2="441.0547"/><text fill="#000000" font-family="sans-serif" font-size="13" lengthAdjust="spacing" textLength="83.3574" x="734.7378" y="435.9888">projectEntity</text></g><g class="message" data-entity-1="part4" data-entity-2="part3" id="msg12"><polygon fill="#181818" points="526.6055,466.1875,516.6055,470.1875,526.6055,474.1875,522.6055,470.1875" style="stroke:#181818;stroke-width:1;"/><line style="stroke:#181818;stroke-width:1;stroke-dasharray:2,2;" x1="520.6055" x2="711.7378" y1="470.1875" y2="470.1875"/><text fill="#000000" font-family="sans-serif" font-size="13" lengthAdjust="spacing" textLength="136.6079" x="532.6055" y="465.1216">projectResponseDTO</text></g><g class="message" data-entity-1="part3" data-entity-2="part2" id="msg13"><polygon fill="#181818" points="271.0132,495.3203,261.0132,499.3203,271.0132,503.3203,267.0132,499.3203" style="stroke:#181818;stroke-width:1;"/><line style="stroke:#181818;stroke-width:1;stroke-dasharray:2,2;" x1="265.0132" x2="509.6055" y1="499.3203" y2="499.3203"/><text fill="#000000" font-family="sans-serif" font-size="13" lengthAdjust="spacing" textLength="176.1221" x="277.0132" y="494.2544">201 Created (Project JSON)</text></g><g class="message" data-entity-1="part2" data-entity-2="part1" id="msg14"><polygon fill="#181818" points="68.3076,524.4531,58.3076,528.4531,68.3076,532.4531,64.3076,528.4531" style="stroke:#181818;stroke-width:1;"/><line style="stroke:#181818;stroke-width:1;stroke-dasharray:2,2;" x1="62.3076" x2="259.0132" y1="528.4531" y2="528.4531"/><text fill="#000000" font-family="sans-serif" font-size="13" lengthAdjust="spacing" textLength="178.7056" x="74.3076" y="523.3872">Displays Project Dashboard</text></g><?plantuml-src?></g></svg>