<?plantuml 1.2026.2?><svg xmlns="http://www.w3.org/2000/svg" xmlns:xlink="http://www.w3.org/1999/xlink" contentStyleType="text/css" data-diagram-type="CLASS" height="670px" preserveAspectRatio="none" style="width:689px;height:670px;background:#FFFFFF;" version="1.1" viewBox="0 0 689 670" width="689px" zoomAndPan="magnify"><title>UC-01: Create Project - Design-Level Class Diagram (DLCD)</title><defs/><g><g class="title" data-source-line="1"><text fill="#000000" font-family="sans-serif" font-size="14" font-weight="bold" lengthAdjust="spacing" textLength="465.9717" x="105.0063" y="22.9951">UC-01: Create Project - Design-Level Class Diagram (DLCD)</text></g><!--class Project--><g class="entity" data-qualified-name="Project" data-source-line="3" id="ent0002"><rect fill="#F1F1F1" height="145.7813" rx="2.5" ry="2.5" style="stroke:#181818;stroke-width:0.5;" width="166.5332" x="7" y="517.2969"/><ellipse cx="61.79" cy="533.2969" fill="#ADD1B2" rx="11" ry="11" style="stroke:#181818;stroke-width:1;"/><path d="M64.7588,538.9375 Q64.1807,539.2344 63.54,539.375 Q62.8994,539.5313 62.1963,539.5313 Q59.6963,539.5313 58.3682,537.8906 Q57.0557,536.2344 57.0557,533.1094 Q57.0557,529.9844 58.3682,528.3281 Q59.6963,526.6719 62.1963,526.6719 Q62.8994,526.6719 63.54,526.8281 Q64.1963,526.9844 64.7588,527.2813 L64.7588,530 Q64.1338,529.4219 63.54,529.1563 Q62.9463,528.875 62.3213,528.875 Q60.9775,528.875 60.29,529.9531 Q59.6025,531.0156 59.6025,533.1094 Q59.6025,535.2031 60.29,536.2813 Q60.9775,537.3438 62.3213,537.3438 Q62.9463,537.3438 63.54,537.0781 Q64.1338,536.7969 64.7588,536.2188 L64.7588,538.9375 Z " fill="#000000"/><text fill="#000000" font-family="sans-serif" font-size="14" lengthAdjust="spacing" textLength="48.4531" x="82.29" y="538.1436">Project</text><line style="stroke:#181818;stroke-width:0.5;" x1="8" x2="172.5332" y1="549.2969" y2="549.2969"/><g data-visibility-modifier="PRIVATE_FIELD"><rect fill="none" height="6" style="stroke:#C82930;stroke-width:1;" width="6" x="15" y="559.9453"/></g><text fill="#000000" font-family="sans-serif" font-size="14" lengthAdjust="spacing" textLength="52.6299" x="27" y="566.292">UUID id</text><g data-visibility-modifier="PRIVATE_FIELD"><rect fill="none" height="6" style="stroke:#C82930;stroke-width:1;" width="6" x="15" y="576.2422"/></g><text fill="#000000" font-family="sans-serif" font-size="14" lengthAdjust="spacing" textLength="85.9346" x="27" y="582.5889">String name</text><g data-visibility-modifier="PRIVATE_FIELD"><rect fill="none" height="6" style="stroke:#C82930;stroke-width:1;" width="6" x="15" y="592.5391"/></g><text fill="#000000" font-family="sans-serif" font-size="14" lengthAdjust="spacing" textLength="137.2246" x="27" y="598.8857">String repositoryUrl</text><g data-visibility-modifier="PRIVATE_FIELD"><rect fill="none" height="6" style="stroke:#C82930;stroke-width:1;" width="6" x="15" y="608.8359"/></g><text fill="#000000" font-family="sans-serif" font-size="14" lengthAdjust="spacing" textLength="140.5332" x="27" y="615.1826">ProjectStatus status</text><line style="stroke:#181818;stroke-width:0.5;" x1="8" x2="172.5332" y1="622.4844" y2="622.4844"/><g data-visibility-modifier="PUBLIC_METHOD"><ellipse cx="18" cy="636.1328" fill="#84BE84" rx="3" ry="3" style="stroke:#038048;stroke-width:1;"/></g><text fill="#000000" font-family="sans-serif" font-size="14" lengthAdjust="spacing" textLength="67.1357" x="27" y="639.4795">validate()</text><g data-visibility-modifier="PUBLIC_METHOD"><ellipse cx="18" cy="652.4297" fill="#84BE84" rx="3" ry="3" style="stroke:#038048;stroke-width:1;"/></g><text fill="#000000" font-family="sans-serif" font-size="14" lengthAdjust="spacing" textLength="117.6738" x="27" y="655.7764">updateSettings()</text></g><!--class ProjectStatus--><g class="entity" data-qualified-name="ProjectStatus" data-source-line="12" id="ent0003"><rect fill="#F1F1F1" height="96.8906" rx="2.5" ry="2.5" style="stroke:#181818;stroke-width:0.5;" width="125.0645" x="466" y="44.2969"/><ellipse cx="481" cy="60.2969" fill="#EB937F" rx="11" ry="11" style="stroke:#181818;stroke-width:1;"/><path d="M485.1094,66.2969 L477.3906,66.2969 L477.3906,53.9063 L485.1094,53.9063 L485.1094,56.0625 L479.8438,56.0625 L479.8438,58.7344 L484.6094,58.7344 L484.6094,60.8906 L479.8438,60.8906 L479.8438,64.1406 L485.1094,64.1406 L485.1094,66.2969 Z " fill="#000000"/><text fill="#000000" font-family="sans-serif" font-size="14" lengthAdjust="spacing" textLength="93.0645" x="495" y="65.1436">ProjectStatus</text><line style="stroke:#181818;stroke-width:0.5;" x1="467" x2="590.0645" y1="76.2969" y2="76.2969"/><text fill="#000000" font-family="sans-serif" font-size="14" lengthAdjust="spacing" textLength="71.9277" x="472" y="93.292">CREATING</text><text fill="#000000" font-family="sans-serif" font-size="14" lengthAdjust="spacing" textLength="50.4561" x="472" y="109.5889">ACTIVE</text><text fill="#000000" font-family="sans-serif" font-size="14" lengthAdjust="spacing" textLength="72.9395" x="472" y="125.8857">ARCHIVED</text><line style="stroke:#181818;stroke-width:0.5;" x1="467" x2="590.0645" y1="133.1875" y2="133.1875"/></g><!--class ProjectRepository--><g class="entity" data-qualified-name="ProjectRepository" data-source-line="18" id="ent0004"><rect fill="#F1F1F1" height="80.5938" rx="2.5" ry="2.5" style="stroke:#181818;stroke-width:0.5;" width="222.0957" x="157.5" y="359.2969"/><ellipse cx="202.5352" cy="375.2969" fill="#B4A7E5" rx="11" ry="11" style="stroke:#181818;stroke-width:1;"/><path d="M198.457,371.0625 L198.457,368.9063 L205.8477,368.9063 L205.8477,371.0625 L203.3789,371.0625 L203.3789,379.1406 L205.8477,379.1406 L205.8477,381.2969 L198.457,381.2969 L198.457,379.1406 L200.9258,379.1406 L200.9258,371.0625 L198.457,371.0625 Z " fill="#000000"/><text fill="#000000" font-family="sans-serif" font-size="14" font-style="italic" lengthAdjust="spacing" textLength="123.5254" x="223.0352" y="380.1436">ProjectRepository</text><line style="stroke:#181818;stroke-width:0.5;" x1="158.5" x2="378.5957" y1="391.2969" y2="391.2969"/><line style="stroke:#181818;stroke-width:0.5;" x1="158.5" x2="378.5957" y1="399.2969" y2="399.2969"/><g data-visibility-modifier="PUBLIC_METHOD"><ellipse cx="168.5" cy="412.9453" fill="#84BE84" rx="3" ry="3" style="stroke:#038048;stroke-width:1;"/></g><text fill="#000000" font-family="sans-serif" font-size="14" lengthAdjust="spacing" textLength="149.7686" x="177.5" y="416.292">save(Project): Project</text><g data-visibility-modifier="PUBLIC_METHOD"><ellipse cx="168.5" cy="429.2422" fill="#84BE84" rx="3" ry="3" style="stroke:#038048;stroke-width:1;"/></g><text fill="#000000" font-family="sans-serif" font-size="14" lengthAdjust="spacing" textLength="196.0957" x="177.5" y="432.5889">findByName(String): Project</text></g><!--class ProjectApplicationService--><g class="entity" data-qualified-name="ProjectApplicationService" data-source-line="23" id="ent0005"><rect fill="#F1F1F1" height="64.2969" rx="2.5" ry="2.5" style="stroke:#181818;stroke-width:0.5;" width="218.0967" x="159.5" y="218.2969"/><ellipse cx="177.9554" cy="234.2969" fill="#ADD1B2" rx="11" ry="11" style="stroke:#181818;stroke-width:1;"/><path d="M180.9242,239.9375 Q180.346,240.2344 179.7054,240.375 Q179.0648,240.5313 178.3617,240.5313 Q175.8617,240.5313 174.5335,238.8906 Q173.221,237.2344 173.221,234.1094 Q173.221,230.9844 174.5335,229.3281 Q175.8617,227.6719 178.3617,227.6719 Q179.0648,227.6719 179.7054,227.8281 Q180.3617,227.9844 180.9242,228.2813 L180.9242,231 Q180.2992,230.4219 179.7054,230.1563 Q179.1117,229.875 178.4867,229.875 Q177.1429,229.875 176.4554,230.9531 Q175.7679,232.0156 175.7679,234.1094 Q175.7679,236.2031 176.4554,237.2813 Q177.1429,238.3438 178.4867,238.3438 Q179.1117,238.3438 179.7054,238.0781 Q180.2992,237.7969 180.9242,237.2188 L180.9242,239.9375 Z " fill="#000000"/><text fill="#000000" font-family="sans-serif" font-size="14" lengthAdjust="spacing" textLength="178.418" x="192.7233" y="239.1436">ProjectApplicationService</text><line style="stroke:#181818;stroke-width:0.5;" x1="160.5" x2="376.5967" y1="250.2969" y2="250.2969"/><line style="stroke:#181818;stroke-width:0.5;" x1="160.5" x2="376.5967" y1="258.2969" y2="258.2969"/><g data-visibility-modifier="PUBLIC_METHOD"><ellipse cx="170.5" cy="271.9453" fill="#84BE84" rx="3" ry="3" style="stroke:#038048;stroke-width:1;"/></g><text fill="#000000" font-family="sans-serif" font-size="14" lengthAdjust="spacing" textLength="192.0967" x="179.5" y="275.292">createProject(DTO): Project</text></g><!--class ProjectApiController--><g class="entity" data-qualified-name="ProjectApiController" data-source-line="27" id="ent0006"><rect fill="#F1F1F1" height="64.2969" rx="2.5" ry="2.5" style="stroke:#181818;stroke-width:0.5;" width="325.4414" x="106" y="60.7969"/><ellipse cx="194.481" cy="76.7969" fill="#ADD1B2" rx="11" ry="11" style="stroke:#181818;stroke-width:1;"/><path d="M197.4497,82.4375 Q196.8716,82.7344 196.231,82.875 Q195.5903,83.0313 194.8872,83.0313 Q192.3872,83.0313 191.0591,81.3906 Q189.7466,79.7344 189.7466,76.6094 Q189.7466,73.4844 191.0591,71.8281 Q192.3872,70.1719 194.8872,70.1719 Q195.5903,70.1719 196.231,70.3281 Q196.8872,70.4844 197.4497,70.7813 L197.4497,73.5 Q196.8247,72.9219 196.231,72.6563 Q195.6372,72.375 195.0122,72.375 Q193.6685,72.375 192.981,73.4531 Q192.2935,74.5156 192.2935,76.6094 Q192.2935,78.7031 192.981,79.7813 Q193.6685,80.8438 195.0122,80.8438 Q195.6372,80.8438 196.231,80.5781 Q196.8247,80.2969 197.4497,79.7188 L197.4497,82.4375 Z " fill="#000000"/><text fill="#000000" font-family="sans-serif" font-size="14" lengthAdjust="spacing" textLength="139.9795" x="214.981" y="81.6436">ProjectApiController</text><line style="stroke:#181818;stroke-width:0.5;" x1="107" x2="430.4414" y1="92.7969" y2="92.7969"/><line style="stroke:#181818;stroke-width:0.5;" x1="107" x2="430.4414" y1="100.7969" y2="100.7969"/><g data-visibility-modifier="PUBLIC_METHOD"><ellipse cx="117" cy="114.4453" fill="#84BE84" rx="3" ry="3" style="stroke:#038048;stroke-width:1;"/></g><text fill="#000000" font-family="sans-serif" font-size="14" lengthAdjust="spacing" textLength="299.4414" x="126" y="117.792">createProject(HttpRequest): HttpResponse</text></g><!--class GitIntegrationAdapter--><g class="entity" data-qualified-name="GitIntegrationAdapter" data-source-line="31" id="ent0007"><rect fill="#F1F1F1" height="64.2969" rx="2.5" ry="2.5" style="stroke:#181818;stroke-width:0.5;" width="268.4844" x="414.5" y="367.7969"/><ellipse cx="467.9126" cy="383.7969" fill="#ADD1B2" rx="11" ry="11" style="stroke:#181818;stroke-width:1;"/><path d="M470.8813,389.4375 Q470.3032,389.7344 469.6626,389.875 Q469.022,390.0313 468.3188,390.0313 Q465.8188,390.0313 464.4907,388.3906 Q463.1782,386.7344 463.1782,383.6094 Q463.1782,380.4844 464.4907,378.8281 Q465.8188,377.1719 468.3188,377.1719 Q469.022,377.1719 469.6626,377.3281 Q470.3188,377.4844 470.8813,377.7813 L470.8813,380.5 Q470.2563,379.9219 469.6626,379.6563 Q469.0688,379.375 468.4438,379.375 Q467.1001,379.375 466.4126,380.4531 Q465.7251,381.5156 465.7251,383.6094 Q465.7251,385.7031 466.4126,386.7813 Q467.1001,387.8438 468.4438,387.8438 Q469.0688,387.8438 469.6626,387.5781 Q470.2563,387.2969 470.8813,386.7188 L470.8813,389.4375 Z " fill="#000000"/><text fill="#000000" font-family="sans-serif" font-size="14" lengthAdjust="spacing" textLength="153.1592" x="488.4126" y="388.6436">GitIntegrationAdapter</text><line style="stroke:#181818;stroke-width:0.5;" x1="415.5" x2="681.9844" y1="399.7969" y2="399.7969"/><line style="stroke:#181818;stroke-width:0.5;" x1="415.5" x2="681.9844" y1="407.7969" y2="407.7969"/><g data-visibility-modifier="PUBLIC_METHOD"><ellipse cx="425.5" cy="421.4453" fill="#84BE84" rx="3" ry="3" style="stroke:#038048;stroke-width:1;"/></g><text fill="#000000" font-family="sans-serif" font-size="14" lengthAdjust="spacing" textLength="242.4844" x="434.5" y="424.792">configureWebhooks(String): String</text></g><!--link ProjectApiController to ProjectApplicationService--><g class="link" data-entity-1="ent0006" data-entity-2="ent0005" data-link-type="dependency" data-source-line="35" id="lnk8"><path codeLine="35" d="M268.5,124.8869 C268.5,152.0069 268.5,185.1469 268.5,212.2569" fill="none" id="ProjectApiController-to-ProjectApplicationService" style="stroke:#181818;stroke-width:1;"/><polygon fill="#181818" points="268.5,218.2569,272.5,209.2569,268.5,213.2569,264.5,209.2569,268.5,218.2569" style="stroke:#181818;stroke-width:1;"/><text fill="#000000" font-family="sans-serif" font-size="13" lengthAdjust="spacing" textLength="29.7832" x="269.5" y="184.3638">uses</text></g><!--link ProjectApplicationService to ProjectRepository--><g class="link" data-entity-1="ent0005" data-entity-2="ent0004" data-link-type="dependency" data-source-line="36" id="lnk9"><path codeLine="36" d="M268.5,282.5769 C268.5,304.9069 268.5,329.1069 268.5,353.1269" fill="none" id="ProjectApplicationService-to-ProjectRepository" style="stroke:#181818;stroke-width:1;"/><polygon fill="#181818" points="268.5,359.1269,272.5,350.1269,268.5,354.1269,264.5,350.1269,268.5,359.1269" style="stroke:#181818;stroke-width:1;"/><text fill="#000000" font-family="sans-serif" font-size="13" lengthAdjust="spacing" textLength="29.7832" x="269.5" y="325.3638">uses</text></g><!--link ProjectApplicationService to GitIntegrationAdapter--><g class="link" data-entity-1="ent0005" data-entity-2="ent0007" data-link-type="dependency" data-source-line="37" id="lnk10"><path codeLine="37" d="M327.54,282.3969 C375.19,307.4969 436.6015,339.8505 484.2315,364.9405" fill="none" id="ProjectApplicationService-to-GitIntegrationAdapter" style="stroke:#181818;stroke-width:1;"/><polygon fill="#181818" points="489.54,367.7369,483.4415,360.0033,485.1162,365.4066,479.713,367.0813,489.54,367.7369" style="stroke:#181818;stroke-width:1;"/><text fill="#000000" font-family="sans-serif" font-size="13" lengthAdjust="spacing" textLength="29.7832" x="409.5" y="325.3638">uses</text></g><!--link ProjectApplicationService to Project--><g class="link" data-entity-1="ent0005" data-entity-2="ent0002" data-link-type="dependency" data-source-line="38" id="lnk11"><path codeLine="38" d="M172.08,282.3369 C136.14,299.1269 99.11,323.8769 78.5,359.2969 C50.95,406.6469 54.9832,463.3377 65.9332,511.2477" fill="none" id="ProjectApplicationService-to-Project" style="stroke:#181818;stroke-width:1;stroke-dasharray:7,7;"/><polygon fill="#181818" points="67.27,517.0969,69.1642,507.4319,66.156,512.2226,61.3653,509.2143,67.27,517.0969" style="stroke:#181818;stroke-width:1;"/><text fill="#000000" font-family="sans-serif" font-size="13" lengthAdjust="spacing" textLength="59.8584" x="79.5" y="404.3638">manages</text></g><!--link ProjectRepository to Project--><g class="link" data-entity-1="ent0004" data-entity-2="ent0002" data-link-type="dependency" data-source-line="39" id="lnk12"><path codeLine="39" d="M231.19,440.3169 C210.18,462.5569 187.4296,486.6547 162.8096,512.7247" fill="none" id="ProjectRepository-to-Project" style="stroke:#181818;stroke-width:1;stroke-dasharray:7,7;"/><polygon fill="#181818" points="158.69,517.0869,167.7775,513.2899,162.123,513.4517,161.9612,507.7972,158.69,517.0869" style="stroke:#181818;stroke-width:1;"/><text fill="#000000" font-family="sans-serif" font-size="13" lengthAdjust="spacing" textLength="50.6226" x="202.5" y="483.3638">persists</text></g><?plantuml-src ZL7BReCm4Bpp5JuIHKJjDOTA5A84AKeh2EtPXGrr2pRrBaXHbN-lCKcWKVeuUTSxCpjZaw0IM1fuDxTp5cZW1EnHgpV8Y7ai11I5zDRGGic2aYEoKF12yugvuJe89uwJsTiJvTDXXfQcKSX4Rkk4j905axo2SQ-XLYX8wNsgIpiuIYJ4gK66zZ23AMjvANBZovtOjgcx9W4YeuFcyk0u89lgGg1p4iGBVnjjbgRqWstqjEYAE5YPAkneGXBe7S_EaUEpAykVCkGjkCVXP7w2sT5EoFn-lp6vt3xJQ7wuU1U_hakHSH9A9g1ROJRs-fbzyIFA3RSFlug8G4dIgYn1N-MlYEeOFXh0pcpVOQqamY2s51IPsEOFEpT-pciQr9JSYQBHy0mlhqgzuv2iBpgPgsuyx-wNh7FM8A3pCs147tt1lsZNy_n9dStE6msuuf8N0txauJkk1eq22Pql?></g></svg>